<svg width="43" height="43" fill="none" xmlns="http://www.w3.org/2000/svg"><path d="M9.589 15.8H9.55l-2.216 1.179L7 15.684l2.785-1.47h1.471v12.573H9.589V15.799zm6.165 7.796a3.56 3.56 0 0 1 .716-2.085 3.64 3.64 0 0 1 1.815-1.281l-.02-.058a3.15 3.15 0 0 1-1.446-1.111c-.36-.503-.56-1.1-.575-1.715 0-1.992 1.707-3.346 3.945-3.346 2.47 0 3.708 1.527 3.708 3.095a3.16 3.16 0 0 1-.589 1.79c-.374.524-.9.925-1.509 1.15v.059c1.59.622 2.57 1.721 2.57 3.249 0 2.186-1.902 3.657-4.334 3.657-2.674-.005-4.281-1.568-4.281-3.404zm6.864-.078c0-1.528-1.08-2.262-2.804-2.746-1.491.425-2.295 1.393-2.295 2.59a2.296 2.296 0 0 0 .728 1.765 2.364 2.364 0 0 0 1.82.635 2.337 2.337 0 0 0 1.78-.565 2.248 2.248 0 0 0 .77-1.68h.001zm-4.75-6.287c0 1.257.962 1.934 2.434 2.321a2.519 2.519 0 0 0 1.358-.821c.35-.412.556-.926.585-1.463a1.929 1.929 0 0 0-.603-1.51 1.985 1.985 0 0 0-1.553-.54 2.055 2.055 0 0 0-1.565.518 2 2 0 0 0-.655 1.495zm13.633-.067l.04 2.871H34.4l.015 1.152h-2.898L31.5 24h-1.255v-2.813h-2.863v-1.152h2.863l.014-2.875c.473-.006.741-.007 1.242.004z" fill="#fff"/><path d="M40.464 21.232c0 10.622-8.61 19.232-19.232 19.232C10.611 40.464 2 31.854 2 21.232 2 10.611 10.61 2 21.232 2s19.232 8.61 19.232 19.232z" stroke="red" stroke-width="3" stroke-miterlimit="10"/></svg>