<svg viewBox="0 0 132 64" xmlns="http://www.w3.org/2000/svg"><path d="M1.574 25.467a37.61 37.61 0 0 1 3.75-4.49c3.93-4.024 7.82-6.18 11.11-7.986a68.865 68.865 0 0 1 9.583-4.305c1.737-.64 9.277-3.346 20.693-4.93a133.32 133.32 0 0 1 23.609-.973c7.08.183 14.125 1.043 21.04 2.57a107.1 107.1 0 0 1 18.61 6.11 45.87 45.87 0 0 1 4.305 2.014 35.213 35.213 0 0 1 11.041 8.68c1.431 1.732 3.509 4.245 4.514 7.638a37.617 37.617 0 0 1 1.041 5.139c.154 1.136.234 2.094.278 2.777.785-3.049.809-6.244.069-9.304a19.978 19.978 0 0 0-3.749-7.5c-1.825-2.422-3.579-3.777-6.458-5.972a59.987 59.987 0 0 0-9.359-5.864 69.276 69.276 0 0 0-11.473-4.343 111.228 111.228 0 0 0-16.721-3.541A138.715 138.715 0 0 0 52.959.555 101.171 101.171 0 0 0 34.7 3.478 74.209 74.209 0 0 0 19.91 8.78c-5.566 2.73-11.251 5.596-15.871 11.718a32.082 32.082 0 0 0-4.036 7.077l1.572-2.107z" fill="#019CDF"/><path d="M130.181 38.273a37.628 37.628 0 0 1-3.75 4.49c-3.93 4.023-7.82 6.18-11.11 7.985a68.88 68.88 0 0 1-9.583 4.306c-1.738.638-9.277 3.345-20.693 4.93a133.328 133.328 0 0 1-23.61.972 110.896 110.896 0 0 1-21.04-2.57 107.079 107.079 0 0 1-18.61-6.11 45.907 45.907 0 0 1-4.304-2.014 35.219 35.219 0 0 1-11.041-8.68c-1.431-1.731-3.51-4.245-4.514-7.638a37.617 37.617 0 0 1-1.041-5.139 40.068 40.068 0 0 1-.278-2.777 19.22 19.22 0 0 0-.07 9.305 19.99 19.99 0 0 0 3.75 7.5c1.824 2.421 3.58 3.777 6.458 5.971a59.94 59.94 0 0 0 9.359 5.865 69.28 69.28 0 0 0 11.473 4.343 111.236 111.236 0 0 0 16.72 3.541 138.725 138.725 0 0 0 30.499.632 101.175 101.175 0 0 0 18.26-2.924 74.22 74.22 0 0 0 14.79-5.3c5.566-2.73 11.251-5.596 15.871-11.718a32.024 32.024 0 0 0 4.035-7.078l-1.571 2.108z" fill="#019CDF"/><path d="M9.471 40.842h11.812v-.348H19.86a.976.976 0 0 1-.729-1.11l4.27-19.548a.968.968 0 0 1 .765-.763h2.152v-.463H14.27v.428h1.805a.91.91 0 0 1 .382 1.077c-2.289 10.593-3.956 18.284-4.097 18.992a1.9 1.9 0 0 1-1.041 1.389l-1.843-.005-.005.35zm30.328-14.623l-4.618-.191-.381 1.753a3.773 3.773 0 0 0-2.153-1.979 3.736 3.736 0 0 0-2.291.07c-1.365.404-2.17 1.294-3.021 2.257a10.89 10.89 0 0 0-2.292 3.888 11.062 11.062 0 0 0-.486 4.48 6.74 6.74 0 0 0 .799 3.09c.3.566.743 1.045 1.285 1.389a3.55 3.55 0 0 0 3.125.208c1.03-.433 1.577-1.3 2.129-2.176.192-.304.362-.621.51-.949-.233 1.8-.604 3.58-1.112 5.324a21.892 21.892 0 0 1-1.365 3.217c-.36.756-.611 1.229-1.157 1.505-.675.342-1.713.34-1.997-.15a.718.718 0 0 1-.063-.487 2.01 2.01 0 0 0 1.563-.52 2.11 2.11 0 0 0 .52-1.39 2.743 2.743 0 0 0-.242-1.458 2.65 2.65 0 0 0-1.042-1.145 2.205 2.205 0 0 0-1.354-.347c-.421.045-.82.214-1.145.486-.365.319-.62.744-.729 1.215a3.07 3.07 0 0 0 .07 1.736c.153.505.4.976.729 1.39a4.981 4.981 0 0 0 2.291 1.596c1.333.42 2.77.359 4.063-.173a7.18 7.18 0 0 0 2.674-1.736 8.65 8.65 0 0 0 1.805-2.743 13.26 13.26 0 0 0 1.007-3.298c.526-2.85 1.389-5.63 2.014-8.46.267-1.212.725-3.283 1.32-5.948l-.456-.454zm-6.238 6.585c-.574 2.492-.997 4.236-2.432 6.04a10.68 10.68 0 0 1-1.248 1.32c0-4.63 1.035-9.2 3.032-13.378.32.335.585.718.787 1.134.284.588.615 1.62-.138 4.884h-.001zm30.384-6.747c-3.755-1.283-7.957 1.07-9.388 5.256-1.431 4.185.455 8.618 4.21 9.901 3.754 1.283 7.957-1.071 9.388-5.256 1.43-4.186-.455-8.619-4.21-9.901zm-.056 1.85l-2.888 11.98a1.118 1.118 0 1 1-2.172-.523l2.889-11.98a1.117 1.117 0 1 1 2.171.523zm28.943-1.85c-3.755-1.283-7.957 1.07-9.388 5.256-1.431 4.185.454 8.618 4.21 9.901 3.754 1.283 7.957-1.071 9.387-5.256 1.43-4.186-.454-8.619-4.21-9.901zm-.056 1.85l-2.888 11.98a1.117 1.117 0 1 1-2.172-.523l2.889-11.98a1.117 1.117 0 0 1 2.171.523z" fill="#019CDF"/><path d="M101.544 48.995l-6.69-.173 1.343-1.157 5.231-19.906a1.003 1.003 0 0 0-.602-.834h-1.805v-.897h2.824c.06-.175.154-.444.277-.769a15.432 15.432 0 0 1 2.222-4.351 6.593 6.593 0 0 1 1.852-1.76 3.979 3.979 0 0 1 2.037-.694 3.558 3.558 0 0 1 1.852.463 4.02 4.02 0 0 1 1.846 2.962c.071.445-.002.902-.209 1.302a1.877 1.877 0 0 1-1.024.816 2.127 2.127 0 0 1-1.858-.364 2.323 2.323 0 0 1-.781-1.145 2.593 2.593 0 0 1 0-1.789c.079-.198.184-.385.313-.555a.962.962 0 0 0-.312.017 1.295 1.295 0 0 0-.747.59c-.87 1.287-.903 3.959-.903 3.959-.006.546.015.997.035 1.302h2.136v.902h-2.587c-.072.345-.182.878-.312 1.528-.843 4.188-.983 5.488-1.65 9.01-.492 2.6-.94 4.661-1.422 6.886-.366 1.683-.698 3.15-.971 4.336l-.095.321zM70.25 39.36a3.389 3.389 0 0 1-.608-.955 2.968 2.968 0 0 1-.07-1.857 1.97 1.97 0 0 1 .591-1.076 2.06 2.06 0 0 1 1.578-.348c.517.038 1.01.238 1.406.573.385.336.653.786.764 1.285a1.964 1.964 0 0 1-.209 1.545 1.79 1.79 0 0 1-.885.66 2.084 2.084 0 0 1-1.32.035c.008.142.037.283.087.416.397 1.045 2.007 1.259 2.465 1.32a2.928 2.928 0 0 0 1.667-.139c.35-.152.66-.384.903-.677.255-.322.422-.705.486-1.111.07-.393.053-.796-.052-1.18a2.975 2.975 0 0 0-.799-1.303 5.451 5.451 0 0 0-1.25-.92c-1.751-1.08-1.712-1.02-2.083-1.284a5.189 5.189 0 0 1-1.666-1.597 4.07 4.07 0 0 1-.47-1.146 4.448 4.448 0 0 1 .435-3.02 4.96 4.96 0 0 1 1.302-1.58 6.066 6.066 0 0 1 2.986-1.302 6.84 6.84 0 0 1 2.638.07 7.26 7.26 0 0 1 3.142 1.683A2.644 2.644 0 0 1 82.4 29.9a1.72 1.72 0 0 1-.26 1.024c-.19.245-.45.427-.747.521a2.472 2.472 0 0 1-1.822-.087 2.745 2.745 0 0 1-.92-.659 1.898 1.898 0 0 1-.434-2.1c.085-.301.253-.572.486-.781a1.758 1.758 0 0 1 1.493-.26 3.727 3.727 0 0 0-2.083-1.095 2.752 2.752 0 0 0-1.614.087 2.16 2.16 0 0 0-1.094.938 2.432 2.432 0 0 0-.052 1.927 3.77 3.77 0 0 0 1.058 1.58 9.773 9.773 0 0 0 1.563 1.146c.71.445 1.388.938 2.031 1.475.56.433 1.002 1 1.285 1.65.248.717.266 1.494.052 2.221a4.86 4.86 0 0 1-1.024 1.858 6.357 6.357 0 0 1-1.753 1.65 6.09 6.09 0 0 1-3.542.816 6.633 6.633 0 0 1-3.384-1.132 6.841 6.841 0 0 1-1.388-1.319zm-29.327-7.18h-.347c.04-.174.102-.436.188-.752.37-1.446.967-2.825 1.768-4.085a3.856 3.856 0 0 1 1.192-1.333 2.868 2.868 0 0 1 1.864-.325c.434.085.843.271 1.192.545a3.36 3.36 0 0 1 1.03 1.284c.343.729.459 1.543.333 2.338.111-.23.284-.576.5-.995.37-.857.856-1.66 1.444-2.385.225-.293.514-.53.845-.694.47-.177.986-.181 1.458-.012.535.195.99.561 1.296 1.042.295.421.489.904.568 1.412a4.274 4.274 0 0 1-.116 1.904 2.575 2.575 0 0 1-.74 1.545c-.281.227-.62.372-.978.416a2.354 2.354 0 0 1-1.77-.555 2.843 2.843 0 0 1-.92-1.597 3.034 3.034 0 0 1-.07-1.354 2.95 2.95 0 0 1 .364-.972l-.45.469-1.459 2.794-.156.66c-.468 1.988-.967 4.108-1.441 6.563-.135.7-.321 1.7-.52 2.916H40.91c.032-.254.082-.628.156-1.076.217-1.265.507-2.517.868-3.75.141-.523.692-2.57 1.128-4.478a69.95 69.95 0 0 0 .642-3.125 1.203 1.203 0 0 0-.304-.944.5.5 0 0 0-.33-.148c-.31 0-.538.405-.755.833a16.703 16.703 0 0 0-1.254 3.303l-.138.556z" fill="#019CDF"/><path d="M113.404 18.615h4.791l-1.527 7.36h2.118v.938h-2.327a81.428 81.428 0 0 1-.625 2.743c-.466 1.893-.983 3.688-1.493 5.81a25.58 25.58 0 0 0-.578 3.31c.057.594.182.915.373.962.481.118 1.388-1.504 2.722-4.865l.286.176c-.045.185-.111.459-.209.787-.351 1.14-.8 2.247-1.342 3.31-.605 1.237-.817 1.482-1.088 1.69a3.002 3.002 0 0 1-1.255.538 3.705 3.705 0 0 1-2.656-.422 3.266 3.266 0 0 1-1.274-1.343c-.303-.62-.328-1.23-.208-2.338.141-1.236.381-2.459.718-3.657.579-2.194.694-2.698.938-3.75.288-1.246.486-2.27.607-2.933h-2.014v-.903h2.414l1.629-7.413z" fill="#019CDF"/></svg>