<svg viewBox="0 0 69 36" xmlns="http://www.w3.org/2000/svg"><path d="M9.262 35.94A129.066 129.066 0 0 0 24.3 34.572a79.053 79.053 0 0 0 22.067-6.287c3.267-1.4 6.255-3.492 8.794-6.158 1.394-1.416 2.337-3.29 2.69-5.345a8.896 8.896 0 0 0-.288-3.452 8.33 8.33 0 0 0-1.571-3.002c-1.866-2.373-4.15-4.301-6.713-5.668A51.774 51.774 0 0 0 39.387.271c-.233-.07-.46-.16-.679-.271a11.44 11.44 0 0 1 2.912.387 73.898 73.898 0 0 1 16.946 5.164c3.244 1.334 6.223 3.35 8.77 5.939 1.45 1.407 2.39 3.347 2.643 5.46.134 1.863-.385 3.712-1.45 5.164-1.633 2.262-3.697 4.1-6.046 5.384a53.302 53.302 0 0 1-13.717 5.577 115.123 115.123 0 0 1-24.208 3.718c-6.302.336-12.616.263-18.91-.22-1.333-.103-2.666-.258-3.988-.387.106-.362.374-.181.562-.181h6.373c.224.033.452.011.667-.065z" fill="#E31E13"/><path d="M50.415 22.385a5.714 5.714 0 0 1-3.413-1.088c-1.016-.727-1.814-1.77-2.293-2.996a7.414 7.414 0 0 1-.402-3.897 7.034 7.034 0 0 1 1.625-3.488c.842-.96 1.922-1.623 3.105-1.906a5.589 5.589 0 0 1 3.542.317c1.126.49 2.096 1.336 2.787 2.433a7.253 7.253 0 0 1 1.095 3.732c.019 1.796-.606 3.529-1.738 4.82-1.132 1.29-2.68 2.036-4.308 2.073zm-24.442-4.699h-3.146c-.397 0-.433-.13-.339-.503.444-1.86.433-1.86 2.175-1.86h3.953c.234 0 .456 0 .363.388-.33 2.094-1.39 3.961-2.954 5.202-1.563 1.24-3.505 1.755-5.408 1.433-1.165-.183-2.22-.854-2.95-1.872a5.436 5.436 0 0 1-.968-3.601c.162-2.164 1.024-4.19 2.429-5.71 1.404-1.52 3.257-2.43 5.22-2.565a4.88 4.88 0 0 1 2.626.548 5.473 5.473 0 0 1 2.051 1.891c.187.285.223.465-.105.607a2.731 2.731 0 0 0-.327.194 4.288 4.288 0 0 1-1.287.775c-.491.09-.655-.62-1.017-.93a3.78 3.78 0 0 0-2.24-.747 3.78 3.78 0 0 0-2.24.747 5.67 5.67 0 0 0-2.069 2.19 6.428 6.428 0 0 0-.76 3.051c-.002.818.28 1.606.785 2.203.507.598 1.2.96 1.94 1.012a4.236 4.236 0 0 0 2.448-.56 4.82 4.82 0 0 0 1.82-1.893zm-16.08 2.091h3.661c.433 0 .573 0 .421.594-.49 1.769-.479 1.769-2.14 1.769H7.52c-.421 0-.585 0-.433-.594a1278.15 1278.15 0 0 0 3.17-11.941.845.845 0 0 1 .092-.31.765.765 0 0 1 .197-.24.682.682 0 0 1 .27-.133.648.648 0 0 1 .294-.002h5.368c.397 0 .48.078.362.53-.467 1.846-.467 1.846-2.198 1.846h-2.035c-.339 0-.526.077-.62.464a21.176 21.176 0 0 1-.467 1.756c-.176.568 0 .49.362.49h3.204c.398 0 .538 0 .41.556-.456 1.781-.445 1.794-2.105 1.794h-2.222a.37.37 0 0 0-.312.076.437.437 0 0 0-.111.13.484.484 0 0 0-.057.169c-.21.878-.467 1.742-.69 2.582-.035.129-.058.258-.105.464zm23.705-8.48H31.06c.187-.737.374-1.408.538-2.08.07-.258.234-.27.433-.27h6.934l-.55 2.155c-.058.246-.245.194-.408.194h-1.661c-.491 0-.55.22-.643.594-.83 3.124-1.673 6.248-2.48 9.385-.163.646-.374.904-1.029.878-1.462-.065-1.462 0-1.052-1.562l2.456-9.295z" fill="#E31E13"/><path d="M9.262 35.94c-.199.194-.433.117-.655.117h-6.35c-.21 0-.456-.104-.643.116A4.863 4.863 0 0 1 0 35.94h9.262z" fill="#EB5D56"/></svg>