<svg viewBox="0 0 49 27" xmlns="http://www.w3.org/2000/svg"><path d="M29.828 10.64h-.656l-1.006.006h-6.212c-.064.248-.064.28-.064.567 0 .312.026.478.108.764h6.11a3.326 3.326 0 0 1-3.179 2.357 3.328 3.328 0 0 1-3.325-3.325 3.328 3.328 0 0 1 3.325-3.326 3.335 3.335 0 0 1 3.198 2.408h1.67a4.902 4.902 0 0 0-.268-.917l-.427.172a4.499 4.499 0 0 0-1.854-2.16l.249-.414a4.844 4.844 0 0 0-1.822-.656l-.058.408a4.588 4.588 0 0 0-2.797.522l-.223-.408a4.937 4.937 0 0 0-1.592 1.351l.376.287a4.503 4.503 0 0 0-.688 1.268 4.46 4.46 0 0 0-.255 1.42l-.453-.006v.05c0 .67.134 1.313.376 1.9l.408-.166a4.498 4.498 0 0 0 1.854 2.16l-.217.363c.56.33 1.192.56 1.86.65l.058-.415a4.59 4.59 0 0 0 2.797-.522l.204.37a4.937 4.937 0 0 0 1.503-1.281l-.337-.261a4.5 4.5 0 0 0 .688-1.268 4.47 4.47 0 0 0 .254-1.42l.453.006v-.122c-.007-.235-.026-.127-.058-.363z" fill="#77A007"/><path d="M27.153.3a.497.497 0 0 0-.434-.3h-3.51a.497.497 0 0 0-.433.3l-7.677 20.278c-.064.166.032.3.204.3h4.523a.76.76 0 0 0 .522-.243s2.46-2.918 4.62-2.918 4.618 2.918 4.618 2.918c.115.134.35.242.523.242h4.447c.178 0 .267-.133.204-.299L27.153.299zm-2.026 15.614a4.877 4.877 0 0 1-5.033-5.032 4.894 4.894 0 0 1 4.714-4.715 4.877 4.877 0 0 1 5.033 5.033c-.076 2.555-2.16 4.632-4.714 4.714z" fill="#77A007"/><path d="M4.816 26.592H3.76l-.414-1.096H1.42l-.395 1.096H0l1.873-4.803h1.026l1.917 4.803zm-1.784-1.905l-.662-1.784-.65 1.784h1.312zm4.244 1.905v-.522a1.387 1.387 0 0 1-1.153.599c-.236 0-.447-.052-.631-.153a.912.912 0 0 1-.402-.434c-.082-.184-.127-.44-.127-.77v-2.199h.917v1.6c0 .49.02.79.051.898a.484.484 0 0 0 .185.261c.09.064.204.096.338.096.159 0 .3-.045.42-.128a.642.642 0 0 0 .255-.318c.045-.128.07-.44.07-.937V23.12h.918v3.478h-.842v-.006zm3.07-3.479v.733h-.63v1.402c0 .286.006.452.018.496a.207.207 0 0 0 .083.115.254.254 0 0 0 .153.045c.083 0 .21-.032.37-.09l.076.714c-.217.09-.459.14-.726.14a1.08 1.08 0 0 1-.446-.083.666.666 0 0 1-.293-.216.787.787 0 0 1-.128-.357 4.484 4.484 0 0 1-.031-.65v-1.516H8.37v-.733h.42v-.688l.924-.535v1.23h.631v-.007zm1.217-1.325v1.765c.3-.344.65-.522 1.064-.522.21 0 .401.038.573.12.172.077.3.18.383.3.089.121.146.255.178.408.032.146.045.376.045.688v2.039h-.918V24.75c0-.363-.02-.599-.05-.695a.448.448 0 0 0-.186-.235.596.596 0 0 0-.331-.09.795.795 0 0 0-.408.109.613.613 0 0 0-.26.337c-.058.147-.084.37-.084.663v1.74h-.924v-4.804h.918v.012zm4.861 3.695l.918.153c-.121.338-.306.593-.56.771-.256.179-.574.261-.957.261-.605 0-1.05-.197-1.344-.592-.23-.319-.344-.714-.344-1.198 0-.573.153-1.025.452-1.357.3-.325.682-.49 1.14-.49.517 0 .925.172 1.224.51.3.343.44.866.427 1.573h-2.306c.006.274.082.484.223.637a.69.69 0 0 0 .528.23.532.532 0 0 0 .364-.122c.114-.076.184-.203.235-.376zm.051-.93c-.006-.267-.076-.471-.204-.605a.638.638 0 0 0-.477-.21c-.204 0-.37.07-.497.217-.134.146-.198.344-.191.598h1.37zm4.492 2.04h-.918v-1.778c0-.376-.019-.618-.057-.727a.487.487 0 0 0-.191-.255.534.534 0 0 0-.319-.089c-.16 0-.3.045-.427.134a.651.651 0 0 0-.26.35c-.046.147-.071.408-.071.797v1.573h-.917V23.12h.853v.51c.306-.395.688-.593 1.147-.593.204 0 .389.038.554.108.166.07.293.166.383.28a.953.953 0 0 1 .178.39c.032.146.051.35.051.617l-.006 2.16zm2.197-3.48v.733h-.63v1.402c0 .286.006.452.019.496a.207.207 0 0 0 .083.115.254.254 0 0 0 .153.045c.082 0 .21-.032.37-.09l.075.714c-.216.09-.458.14-.726.14-.165 0-.318-.025-.446-.083a.667.667 0 0 1-.293-.216.788.788 0 0 1-.127-.357 4.464 4.464 0 0 1-.032-.65v-1.516h-.42v-.733h.42v-.688l.924-.535v1.23h.63v-.007zm.3-.47v-.854h.917v.853h-.917zm0 3.95v-3.48h.917v3.48h-.917zm4.561-2.454l-.904.166c-.032-.178-.102-.319-.21-.408s-.249-.14-.42-.14c-.23 0-.415.076-.549.236-.134.159-.204.42-.204.796 0 .414.07.707.21.873.14.172.326.255.561.255a.63.63 0 0 0 .427-.147c.108-.095.191-.267.236-.51l.904.153c-.095.415-.273.727-.541.943-.268.21-.624.319-1.07.319-.51 0-.918-.16-1.217-.484-.3-.325-.453-.765-.453-1.332 0-.573.153-1.02.453-1.344.306-.319.713-.478 1.23-.478.42 0 .758.09 1.012.274.249.178.427.452.535.828z" fill="#fff"/><path d="M30.67 24.706v-.56l2.032-.007v1.784a3.667 3.667 0 0 1-.969.56 2.835 2.835 0 0 1-1.019.192c-.471 0-.898-.102-1.287-.306a2.007 2.007 0 0 1-.873-.88 2.746 2.746 0 0 1-.293-1.28c0-.465.096-.904.293-1.306.198-.407.478-.707.841-.904.37-.198.79-.293 1.268-.293.344 0 .663.057.943.165.28.115.503.268.663.472.159.203.28.465.363.783l-.574.16c-.07-.243-.159-.44-.267-.574a1.165 1.165 0 0 0-.459-.338 1.706 1.706 0 0 0-.663-.127 1.91 1.91 0 0 0-.751.134c-.21.09-.383.204-.51.35-.127.147-.23.3-.306.478-.12.3-.185.618-.185.968 0 .427.077.784.223 1.077.147.287.364.503.644.644a2.074 2.074 0 0 0 1.701.051c.261-.109.459-.217.599-.338v-.892h-1.415v-.013zm4.828 1.453a2.174 2.174 0 0 1-.63.395 1.849 1.849 0 0 1-.65.115c-.383 0-.676-.096-.88-.28a.925.925 0 0 1-.305-.714.948.948 0 0 1 .42-.803 1.531 1.531 0 0 1 .427-.191 4.71 4.71 0 0 1 .522-.09c.478-.057.829-.127 1.052-.203 0-.083.006-.134.006-.153 0-.242-.057-.408-.166-.51-.152-.134-.375-.197-.669-.197-.28 0-.484.05-.611.146-.134.096-.23.268-.293.516l-.574-.076a1.4 1.4 0 0 1 .262-.6 1.13 1.13 0 0 1 .522-.35c.23-.082.49-.12.79-.12.3 0 .535.031.726.101.185.07.325.16.408.262.083.101.147.242.185.401.019.102.032.28.032.541v.784c0 .548.012.892.038 1.039.025.146.076.286.146.42h-.637a1.276 1.276 0 0 1-.12-.433zm-.044-1.313c-.217.09-.536.16-.962.223a2.04 2.04 0 0 0-.516.121.541.541 0 0 0-.236.192.482.482 0 0 0-.083.28.5.5 0 0 0 .178.395c.121.102.293.16.523.16.23 0 .427-.052.605-.147a.921.921 0 0 0 .389-.408c.063-.134.095-.331.095-.593l.007-.223zm1.172 1.746v-3.478h.53v.49c.108-.172.254-.306.433-.414a1.23 1.23 0 0 1 .617-.153c.255 0 .472.051.631.16.166.108.28.254.35.445.275-.407.631-.611 1.077-.611.344 0 .612.095.797.287.184.19.28.484.28.885v2.39h-.586V24.4c0-.235-.02-.407-.058-.51a.495.495 0 0 0-.21-.248.649.649 0 0 0-.357-.095.851.851 0 0 0-.611.242c-.16.165-.242.42-.242.783v2.02h-.593V24.33c0-.26-.05-.458-.146-.592-.096-.134-.255-.198-.472-.198a.838.838 0 0 0-.458.134.763.763 0 0 0-.306.382c-.064.166-.096.408-.096.727v1.803h-.58v.006zm5.256-4.128v-.675h.593v.675h-.593zm0 4.128v-3.478h.593v3.478h-.593zm1.153 0v-3.478h.529v.496c.255-.382.624-.573 1.109-.573.21 0 .4.038.58.115a.88.88 0 0 1 .394.3c.09.12.147.267.185.432.02.109.032.3.032.574v2.14h-.593v-2.115c0-.242-.025-.42-.07-.541a.56.56 0 0 0-.242-.287.786.786 0 0 0-.414-.108.967.967 0 0 0-.65.242c-.184.16-.274.459-.274.904v1.9h-.586zm3.288.287l.573.083c.026.178.09.305.198.388.146.108.344.166.598.166.274 0 .485-.057.631-.166a.8.8 0 0 0 .3-.459c.031-.12.044-.369.044-.758a1.2 1.2 0 0 1-.962.453c-.478 0-.847-.172-1.108-.516-.262-.344-.395-.759-.395-1.243 0-.33.057-.637.178-.917a1.44 1.44 0 0 1 .522-.65c.23-.153.497-.23.803-.23.408 0 .752.166 1.013.498v-.42h.542v3.006c0 .542-.058.924-.166 1.153a1.242 1.242 0 0 1-.522.535c-.243.134-.536.198-.886.198-.414 0-.752-.096-1.007-.28-.242-.185-.369-.465-.356-.841zm.484-2.09c0 .459.09.79.274 1 .178.21.408.312.681.312a.864.864 0 0 0 .682-.312c.185-.21.274-.535.274-.98 0-.428-.095-.746-.28-.963-.191-.216-.414-.325-.682-.325a.863.863 0 0 0-.669.319c-.185.21-.28.529-.28.95z" fill="#77A007"/></svg>