<svg viewBox="0 0 65 28" xmlns="http://www.w3.org/2000/svg"><path fill-rule="evenodd" clip-rule="evenodd" d="M64.022 17.493l-.194-1.11-.381 1.11h-.298l-.378-1.11-.196 1.11h-.334l.298-1.753h.334l.417 1.227.42-1.227h.332l.298 1.753h-.318zm-2.206 0h-.345v-1.432h-.318v-.33h.991v.33h-.327v1.432h-.001zm-4.707 3.18h-.96V18.52l-1.49-2.814h1.033l.944 1.787.941-1.787h1.021l-1.49 2.817v2.15l.002.001zm-2.74 0l-.396-1.023H51.91l-.405 1.02h-1l1.94-4.965h.977l1.947 4.968h-1zm-1.43-3.65l-.679 1.704h1.355l-.676-1.704zm-5.369-1.318h.956v4.053h1.402v.9h-2.367l.01-4.953zm-1.646 2.797a4.415 4.415 0 0 1-1.015.079v2.104h-.965v-4.98h1.01a3.42 3.42 0 0 1 1.19.149c.247.092.456.263.597.485.146.243.22.523.211.807a1.335 1.335 0 0 1-.277.876 1.436 1.436 0 0 1-.75.48h-.001zm-.137-1.787a1.315 1.315 0 0 0-.613-.1h-.271l.006 1.029h.298c.169.009.338-.008.503-.05a.447.447 0 0 0 .223-.166.484.484 0 0 0 .08-.293.45.45 0 0 0-.226-.419v-.002zm-7.422-.316a1.715 1.715 0 0 0-1.748 1.68v.047a1.78 1.78 0 0 0 .224.9c.149.261.368.475.634.617.28.151.593.229.91.225.27.003.537-.05.784-.158a2.796 2.796 0 0 0 .78-.584l.666.685a3.648 3.648 0 0 1-1.08.76 3.003 3.003 0 0 1-1.162.213 2.708 2.708 0 0 1-1.977-.734 2.634 2.634 0 0 1-.78-2.255 2.634 2.634 0 0 1 1.36-1.96 2.865 2.865 0 0 1 1.403-.359 3 3 0 0 1 2.248 1.017l-.685.635a2.146 2.146 0 0 0-1.576-.728l-.001-.001zm2.266.09v.005l-.003-.003.003-.003zm-6.755-.892h.976v5.07h-.976v-5.07zm-1.724 5.07h-.983v-4.123h-.917v-.945h2.855v.945h-.955v4.126-.002zm-2.816 0l-.405-1.042h-2.108l-.42 1.043h-1.02l2.006-5.071h.983l1.996 5.07h-1.032zm-1.441-3.726l-.694 1.754h1.379l-.685-1.754zm-4.611.514l-1.1 3.215h-.863l-1.078-3.2-.566 3.215h-.97l.896-5.086h.958l1.192 3.537 1.209-3.537h.958l.867 5.07h-.95l-.553-3.214zm-6.286 3.03a2.633 2.633 0 0 1-1.31.314 2.954 2.954 0 0 1-1.435-.342 2.532 2.532 0 0 1-.994-.991 2.68 2.68 0 0 1-.366-1.368 2.517 2.517 0 0 1 .678-1.754 2.704 2.704 0 0 1 2.085-.876c.432-.003.86.08 1.26.245.372.166.704.41.976.713l-.693.672a2.062 2.062 0 0 0-1.534-.685 1.769 1.769 0 0 0-1.277.497 1.612 1.612 0 0 0-.515 1.207 1.654 1.654 0 0 0 .533 1.245 1.832 1.832 0 0 0 1.319.512 1.64 1.64 0 0 0 .86-.21 1.49 1.49 0 0 0 .563-.658h-1.49V18.1h2.602v.213a2.556 2.556 0 0 1-1.261 2.173zm-5.686-.858H9.227l-.42 1.042H7.774l1.992-5.07h.997l1.986 5.07h-1.021l-.416-1.042zm-1.039-2.683l-.693 1.753h1.382l-.689-1.753zM6.108 20.67l-1.161-2.148h-.09v2.148h-.988V15.6H4.91a3.507 3.507 0 0 1 1.218.148c.246.098.455.272.596.497a1.5 1.5 0 0 1 .22.824 1.383 1.383 0 0 1-.244.836 1.489 1.489 0 0 1-.747.511l1.223 2.254H6.108zm-.137-3.61a.474.474 0 0 0-.321-.467 1.823 1.823 0 0 0-.524-.05h-.27l-.004 1.038h.298a1.213 1.213 0 0 0 .646-.12.45.45 0 0 0 .176-.4zm-3.953 1.383a4.472 4.472 0 0 1-1.036.079v2.148H0V15.6h1.043a3.495 3.495 0 0 1 1.22.151c.248.098.456.272.597.497.149.248.224.533.217.822a1.363 1.363 0 0 1-.283.876 1.467 1.467 0 0 1-.776.497zm-.15-1.81a1.342 1.342 0 0 0-.61-.089H.984v1.038h.298c.172.008.345-.01.512-.053a.452.452 0 0 0 .226-.172.495.495 0 0 0 .083-.293.46.46 0 0 0-.233-.43z"/><path fill-rule="evenodd" clip-rule="evenodd" d="M51.08 28a9.765 9.765 0 0 1-7.015-16.64 9.765 9.765 0 0 1 16.699 6.875A9.724 9.724 0 0 1 51.08 28zm0-18.503a8.736 8.736 0 0 0 0 17.47v.004h.004a8.737 8.737 0 1 0-.003-17.475zm2.935 5.337c-3.322.208-4.671-3.738-1.665-3.926 3.2-.2 4.914 3.71 1.665 3.926zm-3.57-7.39a9.572 9.572 0 0 0-4.734 1.44c-.21-.668-1.136-3.162-3.523-4.546a4.913 4.913 0 0 1 4.052 2.58S45.316 2.984 45.57 0c1.876 2.312 3.318 6.092 3.318 6.092a4.977 4.977 0 0 1 1.9-4.438c-1.213 2.54-.533 5.167-.343 5.79z" fill="#F79520"/></svg>