<svg width="97" height="20" fill="none" xmlns="http://www.w3.org/2000/svg"><path d="M92.823 9.634h-.554V8.046h-.522V7.57h1.633v.476h-.557v1.588zm3.423 0h-.544l.04-1.582h-.016l-.513 1.582h-.477l-.527-1.582h-.018l.046 1.582h-.543V7.57h.872l.393 1.296h.02l.372-1.296h.895v2.064zm-67.92 6.563h-2.357v-3.448h-3.054v3.448H20.56V7.419h2.355v3.317h3.054V7.419h2.356v8.778zm3.748-1.512l-.42 1.512h-2.447l2.631-8.778h3.567l2.67 8.778H35.68l-.46-1.512h-3.145zm1.58-5.515l-1.079 3.817h2.183L33.655 9.17zm5.303-1.75h4.776c.8.008 1.435.16 1.908.453.475.295.711.894.711 1.798 0 .508-.068.95-.205 1.322-.134.372-.523.612-1.163.717v.066c.596.062.997.25 1.204.566.206.316.31.762.31 1.342 0 .983-.196 1.647-.587 1.994-.39.347-1.104.519-2.137.519h-4.817V7.419zm3.855 3.514a.429.429 0 0 0 .105.012h.093c.28-.009.52-.045.716-.112.198-.065.296-.277.296-.638 0-.315-.054-.532-.164-.651-.109-.118-.323-.177-.638-.177h-1.908v1.566h1.5zm.066 3.329c.368.008.673-.023.915-.099.242-.075.36-.327.36-.756 0-.412-.092-.656-.281-.731-.19-.074-.468-.112-.836-.112h-1.724v1.698h1.566zm6.751.422l-.42 1.512H46.76l2.632-8.778h3.565l2.672 8.778h-2.395l-.461-1.512h-3.145zm1.579-5.515l-1.078 3.817h2.183L51.208 9.17zm13.805 7.027h-3.987l-2.474-6.75h-.105l.105 6.75h-2.304V7.419h3.961l2.474 6.674h.093l-.093-6.674h2.33v8.778zm3.512-5.263h3.737v1.63h-3.737v1.698h4.08v1.935H66.17V7.419h6.356v1.936h-4.001v1.579zm5.186-3.515h4.42c1.124.01 1.928.2 2.41.573.481.373.723 1.148.723 2.323 0 .657-.072 1.192-.217 1.598-.144.408-.626.7-1.44.876v.079c.543.035.944.2 1.203.494s.39.708.39 1.242v1.593h-2.397v-1.17c0-.351-.067-.63-.204-.836-.136-.207-.397-.31-.783-.31h-1.75v2.316h-2.355V7.419zm4.224 4.449c.43.008.69-.088.783-.29.092-.2.139-.492.139-.868 0-.43-.05-.745-.146-.948-.096-.202-.394-.302-.895-.302l-1.75-.014v2.422h1.87zm4.25-.52a10.774 10.774 0 0 1 .118-1.599c.168-.982.615-1.618 1.344-1.907A6.659 6.659 0 0 1 86 7.38h.263c1.519 0 2.58.256 3.185.769.606.513.908 1.564.908 3.152 0 1.624-.177 2.855-.533 3.698-.356.843-1.519 1.263-3.493 1.263-.14 0-.286-.002-.435-.007a12.586 12.586 0 0 1-.447-.02 5.407 5.407 0 0 1-1.883-.407c-.587-.246-.986-.738-1.196-1.474a4.019 4.019 0 0 1-.158-.909 16.138 16.138 0 0 1-.027-.92v-1.178zm2.408.481v.526c0 .623.066 1.096.198 1.42.131.326.562.488 1.29.488.807 0 1.318-.13 1.532-.388.215-.259.322-.762.322-1.506v-.317c0-.106.006-.214.014-.328v-.632c0-.587-.084-1.018-.25-1.29-.167-.272-.566-.408-1.197-.408-.912 0-1.456.122-1.626.368-.171.245-.266.921-.283 2.027v.052-.012z" fill="#292929"/><path fill-rule="evenodd" clip-rule="evenodd" d="M12.74 7.421a.439.439 0 0 0-.438.44v.222l-.003-.001a.437.437 0 0 1-.437.41.44.44 0 0 1-.44-.438V7.018a.44.44 0 0 0-.437-.44.44.44 0 0 0-.44.44v.05-.087a.439.439 0 0 1-.438.44.439.439 0 0 1-.44-.44V5.145a.439.439 0 0 0-.44-.44.44.44 0 0 0-.44.44v.91l-.041-.025a.432.432 0 0 1-.396.254.439.439 0 0 1-.44-.438V3.87a.439.439 0 0 0-.438-.44.439.439 0 0 0-.44.44v1.717a.439.439 0 0 1-.44.44.439.439 0 0 1-.438-.44V4.97a.439.439 0 0 0-.44-.44.44.44 0 0 0-.439.44v1.321a.439.439 0 0 1-.438.44.44.44 0 0 1-.44-.44V4.457a.439.439 0 0 0-.438-.44.439.439 0 0 0-.44.44v2.808a.44.44 0 0 1-.437.44.44.44 0 0 1-.44-.44v-.743a.439.439 0 0 0-.44-.44.439.439 0 0 0-.438.44v2.07a.439.439 0 0 1-.44.437.44.44 0 0 1-.44-.438v-.68a.437.437 0 0 0-.437-.44.44.44 0 0 0-.44.44v.673L0 8.59v7.607L6.589 20l6.59-3.804V7.861a.439.439 0 0 0-.439-.44zM9.693 14.86h-2.07v-1.575h-2.07v1.575H3.486V9.926h2.069v1.66h2.068v-1.66h2.071v4.934z" fill="url(#a)"/><defs><linearGradient id="a" y1="11.715" x2="13.18" y2="11.715" gradientUnits="userSpaceOnUse"><stop stop-color="#EF4257"/><stop offset="1" stop-color="#F89C39"/></linearGradient></defs></svg>