<svg viewBox="0 0 109 19" xmlns="http://www.w3.org/2000/svg"><path fill-rule="evenodd" clip-rule="evenodd" d="M16.017 0H.263A.263.263 0 0 0 0 .263v19.43c0 .145.118.263.263.263h15.754a.263.263 0 0 0 .263-.263V.263A.263.263 0 0 0 16.017 0z" fill="#FFCB08"/><path fill-rule="evenodd" clip-rule="evenodd" d="M11.494 15.79c-.742.675-1.815 1.013-3.221 1.013H4.006a.33.33 0 0 1-.333-.327V3.48a.33.33 0 0 1 .333-.327h3.961c1.451 0 2.553.317 3.307.952.754.634 1.131 1.564 1.131 2.788 0 .694-.156 1.291-.468 1.791a2.74 2.74 0 0 1-1.026.975.117.117 0 0 0 .014.21c.495.194.887.517 1.175.967.337.528.505 1.18.505 1.954 0 1.325-.37 2.325-1.111 3zm-3.04-4.922H6.811a.33.33 0 0 0-.332.327v2.993c0 .18.149.327.332.327h1.462c.503 0 .884-.153 1.145-.46.26-.305.391-.74.391-1.302 0-1.225-.451-1.853-1.355-1.885zM6.811 8.862H7.94c1.1 0 1.65-.559 1.65-1.678 0-.619-.126-1.062-.38-1.331-.255-.269-.67-.403-1.241-.403H6.81a.33.33 0 0 0-.332.326v2.76c0 .18.149.326.332.326z"/><path fill-rule="evenodd" clip-rule="evenodd" d="M96.952.044h-.647a.07.07 0 0 0-.07.07V19.93c0 .039.031.07.07.07h.647a.07.07 0 0 0 .07-.07V.114a.07.07 0 0 0-.07-.07zm-16.28 0h-.647a.07.07 0 0 0-.07.07V19.93c0 .039.031.07.07.07h.648a.07.07 0 0 0 .07-.07V.114a.07.07 0 0 0-.07-.07zm-16.28 0h-.647a.07.07 0 0 0-.07.07V19.93c0 .039.032.07.07.07h.648a.07.07 0 0 0 .07-.07V.114a.07.07 0 0 0-.07-.07zm-16.279 0h-.648a.07.07 0 0 0-.07.07V19.93c0 .039.032.07.07.07h.648a.07.07 0 0 0 .07-.07V.114a.07.07 0 0 0-.07-.07zm-16.28 0h-.647a.07.07 0 0 0-.07.07V19.93c0 .039.031.07.07.07h.647a.07.07 0 0 0 .07-.07V.114a.07.07 0 0 0-.07-.07z" fill="#CECECE"/><path fill-rule="evenodd" clip-rule="evenodd" d="M109.074 10.05h-3.757a.241.241 0 0 0-.243.24v.981c0 .132.109.24.243.24h2.028c.134 0 .243.107.243.239v2.767c0 .067-.029.13-.079.176l-.176.16c-.486.445-1.195.667-2.127.667-.989 0-1.748-.364-2.277-1.093-.53-.728-.794-1.775-.794-3.14V8.524c.019-1.395.258-2.411.718-3.047.46-.636 1.184-.954 2.174-.954.825 0 1.441.238 1.847.712.371.434.602 1.02.692 1.762a.242.242 0 0 0 .24.215h1.248c.142 0 .257-.12.244-.259-.112-1.208-.513-2.146-1.205-2.816-.74-.716-1.766-1.074-3.076-1.074-1.537 0-2.692.473-3.463 1.418-.772.947-1.158 2.368-1.158 4.267v2.66c.019 1.774.452 3.146 1.299 4.117.848.97 2.015 1.456 3.502 1.456 1.676 0 2.948-.499 3.818-1.498l.249-.306a.24.24 0 0 0 .053-.15V10.29a.241.241 0 0 0-.243-.24zM92.825 3.327H91.6a.241.241 0 0 0-.242.241v9.338c0 .253-.339.335-.455.111l-4.967-9.56a.241.241 0 0 0-.214-.13h-1.34a.241.241 0 0 0-.24.241v13.17a.24.24 0 0 0 .24.241h1.245a.241.241 0 0 0 .241-.241V7.446c0-.252.34-.335.456-.111l4.948 9.514a.242.242 0 0 0 .214.13h1.339a.241.241 0 0 0 .241-.241V3.568a.241.241 0 0 0-.241-.24zm-19.919 0h-1.3a.248.248 0 0 0-.253.241v13.17c0 .133.113.241.254.241h1.3c.14 0 .253-.108.253-.241V3.568a.248.248 0 0 0-.254-.24zm-11.325 0h-1.796a.24.24 0 0 0-.23.168l-3.279 10.253a.241.241 0 0 1-.46 0L52.538 3.495a.241.241 0 0 0-.23-.168h-1.795a.241.241 0 0 0-.241.241v13.17c0 .133.108.241.241.241h1.233a.241.241 0 0 0 .242-.241v-5.075l-.13-4.276c-.004-.172.237-.215.292-.052l3.177 9.48a.24.24 0 0 0 .228.164h.966a.241.241 0 0 0 .229-.164l3.195-9.52c.055-.163.297-.12.291.052l-.129 4.316v5.075c0 .133.108.241.241.241h1.234a.241.241 0 0 0 .24-.241V3.568a.241.241 0 0 0-.24-.24zm-20.16 8.608h-3.093a.241.241 0 0 1-.232-.31l1.542-5.127c.07-.229.396-.23.465 0l1.55 5.126a.241.241 0 0 1-.232.31zm-.751-8.44a.243.243 0 0 0-.231-.168H39.31a.242.242 0 0 0-.23.168l-4.269 13.169a.242.242 0 0 0 .231.315h1.26a.242.242 0 0 0 .232-.173l.963-3.227a.242.242 0 0 1 .233-.172h4.28a.243.243 0 0 1 .232.171l.98 3.23a.242.242 0 0 0 .233.171h1.26c.164 0 .28-.16.23-.315L40.67 3.494zM27.675 10.05h-3.757a.241.241 0 0 0-.243.24v.981c0 .133.109.24.243.24h2.028c.134 0 .243.107.243.239v2.768a.238.238 0 0 1-.079.175l-.176.16c-.485.445-1.194.668-2.127.668-.989 0-1.748-.365-2.277-1.094-.53-.728-.794-1.775-.794-3.14V8.524c.019-1.395.258-2.411.718-3.047.46-.636 1.184-.954 2.174-.954.825 0 1.44.238 1.847.712.371.434.602 1.02.692 1.762a.243.243 0 0 0 .24.215h1.248c.142 0 .257-.12.244-.259-.111-1.208-.513-2.146-1.204-2.816-.741-.716-1.766-1.074-3.077-1.074-1.537 0-2.691.473-3.463 1.418-.772.947-1.158 2.368-1.158 4.267v2.66c.019 1.774.452 3.146 1.3 4.117.847.97 2.014 1.456 3.5 1.456 1.677 0 2.95-.499 3.819-1.498l.25-.306a.237.237 0 0 0 .052-.15V10.29a.241.241 0 0 0-.243-.24z"/></svg>