<svg viewBox="0 0 47 27" xmlns="http://www.w3.org/2000/svg"><path fill-rule="evenodd" clip-rule="evenodd" d="M17.889 23.31c0 1.281-.015 2.562.01 3.842.01.523-.193.715-.702.686-.572-.034-1.144-.02-1.72-.014-.274 0-.423-.106-.423-.394-.005-.259-.039-.518-.039-.777-.004-3.832-.019-7.659-.004-11.49.004-1.469-.01-1.253 1.235-1.248 1.052.005 2.109.053 3.156.158 1.845.187 2.869 1.19 3.11 3.041.12.93.071 1.86-.299 2.753-.269.652-.696 1.165-1.307 1.487-.355.187-.37.388-.24.695.673 1.588 1.331 3.185 2.013 4.768.4.93.375.992-.653 1.011-.485.01-.976-.01-1.456.01-.442.02-.692-.149-.86-.57-.529-1.339-1.096-2.658-1.648-3.986l-.173.029zm.029-5.246h.01v1.141c0 .067.014.14.014.206-.01.326.144.413.456.37.692-.096 1.153-.504 1.283-1.161.192-.964-.077-1.818-.668-2.134a.902.902 0 0 0-.24-.087c-.682-.139-.836-.019-.85.677-.015.33-.005.662-.005.988zm24.467 4.22c0 1.473.005 2.94 0 4.413-.005 1.117-.01 1.122-1.134 1.127-.418 0-.831-.02-1.25-.02-.345 0-.504-.168-.5-.508.006-.623-.004-1.247-.004-1.87 0-3.396-.01-6.796.005-10.192.01-1.621-.043-1.28 1.302-1.329.312-.01.625.02.937 0 .442-.024.63.173.63.61.01 1.266.038 2.532.057 3.793.005.168.015.34.115.542.366-.758.736-1.51 1.091-2.273.341-.734.64-1.497 1.019-2.211.115-.211.432-.422.673-.441.672-.058 1.355-.015 2.027-.01.332.005.505.106.337.475-.572 1.295-1.134 2.595-1.701 3.89-.255.585-.534 1.16-.77 1.755a.78.78 0 0 0 .01.532c.765 1.995 1.538 3.99 2.326 5.98.471 1.185.437 1.248-.812 1.272-.086 0-.173.005-.26 0-1.98-.024-1.474.22-2.267-1.52-.601-1.33-1.115-2.696-1.668-4.044-.048.01-.105.02-.163.03zm-4.844 5.54c-1.696 0-1.383.12-1.72-1.43-.192-.877-.22-.94-1.105-.944-.312-.005-.625.014-.937 0-.49-.024-.73.206-.798.685-.057.427-.124.859-.269 1.262-.062.177-.312.393-.49.403-.692.043-1.388.019-2.08.014-.351-.005-.462-.216-.39-.523.274-1.15.572-2.302.846-3.453.308-1.295.586-2.59.899-3.885a320.7 320.7 0 0 1 1.393-5.616c.043-.173.308-.393.48-.403a15.804 15.804 0 0 1 2.187 0c.183.015.461.26.505.446.557 2.345 1.071 4.7 1.604 7.055.423 1.866.846 3.727 1.279 5.588.158.671.086.781-.62.805-.26.005-.524-.004-.784-.004zm-3.09-8.955c-.042.01-.08.02-.124.024-.163.97-.308 1.938-.5 2.897-.23 1.16-.096 1.334 1.062 1.214.029-.005.058-.03.192-.101l-.63-4.034z" fill="#EC008C"/><path fill-rule="evenodd" clip-rule="evenodd" d="M16.126 4.587c0 .968.01 1.942 0 2.91-.02 2.183-1.418 3.598-3.32 3.977-1.6.316-3.11.187-4.47-.772-.941-.667-1.494-1.621-1.523-2.758-.062-2.302-.014-4.61-.024-6.911 0-.417.154-.59.582-.58a50.004 50.004 0 0 0 2.397 0c.467-.01.65.172.644.647-.014 1.678-.004 3.362 0 5.04 0 .399 0 .797.024 1.195.039.6.418.935 1.024.935.62 0 .985-.321 1.019-.935.028-.571.024-1.142.024-1.717.004-1.506.019-3.017.01-4.523-.006-.47.192-.657.653-.647A42.6 42.6 0 0 0 15.51.443c.462-.02.606.168.601.609-.014 1.18-.005 2.355-.005 3.535h.02zM14.415 7.45c.264-.322.514-.504.567-.73.072-.297-.183-.565-.47-.503-.241.053-.515.283-.616.509-.048.11.264.383.519.724zm-2.869 1.899c-.072 0-.149-.005-.22-.005-.13.24-.323.465-.366.725-.072.397.356.489.562.455.178-.029.423-.364.428-.57.005-.197-.26-.404-.404-.605zm3.076-6.46c-.082-.01-.164-.015-.245-.024-.173.196-.49.398-.48.585.009.192.311.47.532.523.231.057.592-.087.553-.432-.024-.225-.23-.432-.36-.652zM9.408 9.124c-.043.542-.125.959.356 1.088.144.039.451-.1.504-.23.077-.197.087-.566-.033-.662-.202-.144-.524-.13-.827-.196zm5.036-3.367c.245-.283.548-.485.524-.638-.034-.216-.308-.398-.48-.595-.212.197-.467.37-.597.61-.038.071.293.34.553.623zm-.73 3.885c-.265-.274-.438-.456-.616-.638-.197.201-.394.403-.59.6.192.177.365.44.59.503.125.038.346-.25.616-.465zm.744-7.3c.341.077.514-.158.529-.441.014-.322-.173-.499-.553-.509-.36-.004-.538.226-.548.456-.004.269.178.542.572.494zm-5.295 2.84a61.45 61.45 0 0 0-.658-.648c-.192.201-.466.379-.538.619-.034.115.293.45.495.484.163.029.384-.235.701-.456zm4.31 2.949l-.014.23c.182.144.375.412.538.393.211-.024.51-.25.557-.446.058-.22-.09-.58-.427-.542-.226.034-.433.24-.654.365zm-4.42-4.724c-.178-.149-.39-.441-.524-.408-.226.058-.514.288-.567.499a.426.426 0 0 0 .476.499c.278-.024.557-.106.615-.59zm-.937 2.796l-.164.148c.068.283.092.595.236.83.043.072.475.015.624-.11.11-.091.15-.494.068-.566-.202-.158-.5-.206-.764-.302zM7.947 2.28l.183.153c.27-.125.567-.216.798-.388.057-.043-.024-.437-.15-.523-.153-.106-.552-.149-.6-.067-.14.24-.159.547-.23.825zm.61 5.472c-.067.067-.134.13-.206.197.087.278.149.566.288.815.03.048.414-.029.553-.149.115-.096.197-.455.144-.494-.23-.163-.514-.254-.778-.37z" fill="#00AEEF"/><path fill-rule="evenodd" clip-rule="evenodd" d="M23.463 20.889c0-2.044-.004-4.091 0-6.135.005-.786.058-.844.817-.849 1.495-.01 2.99.015 4.479-.01.528-.009.71.178.677.696a13.079 13.079 0 0 0 0 1.559c.024.465-.178.6-.615.58-.605-.024-1.215.01-1.82.01-.414-.005-.606.197-.611.6v1.3c0 .373.149.565.562.55.553-.019 1.11.03 1.667.02.428-.005.596.187.587.595-.01.518-.015 1.04.004 1.558.02.49-.23.638-.672.633-.538-.004-1.077.03-1.615.015-.36-.01-.514.168-.519.489a60.742 60.742 0 0 0-.01 1.87c.006.336.198.494.534.5.644.009 1.283.038 1.927.042.394.005.605.135.59.58-.018.59.015 1.176.025 1.766.01.398-.144.59-.586.585-1.562-.02-3.124.005-4.69-.01-.697-.005-.745-.057-.745-.748-.005-2.062-.005-4.125-.005-6.187l.02-.01z" fill="#EC008C"/><path fill-rule="evenodd" clip-rule="evenodd" d="M37.061 11.622h-1.797c-.105 0-.211-.014-.312 0-1.288.226-2.225-.139-2.561-1.515-.01-.039-.067-.063-.135-.12-.024.412-.053.786-.067 1.16-.015.317-.149.47-.48.466a127.515 127.515 0 0 0-2.71 0c-.347.005-.448-.168-.448-.48.005-3.381.005-6.757-.004-10.139 0-.393.187-.518.538-.518.831 0 1.667.01 2.498-.01.447-.009.635.188.625.62-.005.196.029.397.048.613.072-.038.12-.048.125-.067C32.68.587 33.414.342 34.41.452c.653.072 1.316.015 1.98.039.5.019.576.12.331.56a163.143 163.143 0 0 1-2.316 4.097c-.25.427-.23.791-.005 1.213a435.002 435.002 0 0 1 2.446 4.681c.077.13.115.293.216.58zm-3.205-9.908c.024.489.284.609.582.618a.432.432 0 0 0 .451-.532c-.048-.22-.312-.561-.466-.556-.254.014-.605.167-.567.47zm.798 8.863c.091-.135.375-.38.331-.513-.076-.221-.345-.475-.562-.504-.158-.02-.495.283-.519.47-.043.345.245.523.75.547zm-1.22-5.938c-.274-.278-.428-.56-.63-.604-.317-.067-.615.177-.567.508.034.221.279.513.49.571.15.043.39-.25.706-.475zm.648-1.5c.043-.346-.226-.442-.504-.476-.4-.048-.486.288-.49.552-.01.288.182.489.518.48.351-.005.486-.197.476-.557zm-3.594-.207l-.312-.014c-.12.259-.308.513-.337.786-.014.12.289.37.461.379.15.01.452-.235.447-.36 0-.268-.163-.527-.259-.791zm-.634-1.237c-.116.585.144.705.456.748a.43.43 0 0 0 .5-.485c-.029-.201-.288-.465-.495-.518-.154-.043-.385.207-.461.255zm.437 5.937c-.221.331-.413.508-.466.72-.101.383.197.508.504.537.351.033.51-.264.486-.504-.024-.21-.27-.398-.524-.753zm2.302-1.74c-.313-.193-.5-.39-.702-.409-.264-.024-.605.11-.495.461.067.22.332.49.538.518.159.024.36-.297.658-.57zm-2.787 4.119c-.039.388.25.551.523.518.188-.024.452-.297.48-.49.034-.24-.12-.546-.475-.512-.274.028-.552.1-.528.484zm.946-5.31c-.408.111-.917-.196-.941.48-.015.384.21.523.557.49.677-.068.327-.557.384-.97zm3.436 3.718c-.058-.077-.12-.154-.178-.23-.27.062-.581.062-.783.21-.101.073-.048.447.038.638.053.11.423.207.471.154.188-.23.308-.509.452-.772zM30.623 7.33c.072-.058.144-.12.22-.178-.072-.273-.09-.575-.235-.796-.062-.09-.447-.052-.605.048-.125.082-.221.47-.164.518.221.178.514.278.784.408zm1.744-.48c-.053.077-.106.154-.159.226.135.259.24.542.428.753.048.052.442-.072.528-.206.096-.15.092-.533 0-.59-.226-.13-.528-.13-.797-.183zm-9.39 4.806c-2.546-.149-4.44-1.074-5.434-3.372-1.355-3.117-.029-7.055 3.551-8 2.033-.532 4.036-.402 5.694 1.128 1.014.94.985 1.108-.024 2.043-.404.374-.831.729-1.225 1.112-.274.269-.452.226-.654-.081-.475-.739-1.139-1.122-2.042-1.094-1.11.034-2.008.792-2.196 1.904-.331 1.933 1.043 3.276 2.955 2.897.62-.124 1.067-.494 1.394-1.002.211-.326.427-.374.725-.163.63.45 1.254.916 1.889 1.367.22.158.264.302.115.56-.76 1.348-1.898 2.169-3.402 2.48-.495.106-.995.168-1.345.221zM19.98 2.553c-.355-.024-.6.106-.581.47.014.288.106.561.5.576.442.014.514-.274.523-.6.01-.292-.105-.508-.442-.446zm4.94 7.18c-.014-.389-.298-.547-.572-.494-.183.033-.413.297-.461.494-.087.355.144.527.51.523.36-.015.499-.212.523-.523zM23.63 2.02c.327.25.5.489.697.508.269.029.553-.081.586-.475.043-.475-.322-.513-.59-.513-.174-.005-.357.235-.693.48zm-3.109 7.62l.711.605c.15-.202.356-.389.433-.614.125-.374-.255-.542-.48-.561-.169-.01-.361.293-.664.57zm2.95.356c-.317-.269-.494-.542-.677-.547-.264-.005-.51.168-.5.551.01.38.25.547.52.533.182-.01.35-.278.658-.537zM19.6 4.759c-.034-.465.144-.925-.466-.959-.418-.024-.515.173-.433.96h.899zm5.53 4.135c.168.138.365.417.5.388.23-.048.423-.288.63-.446-.188-.187-.342-.475-.563-.537-.317-.096-.48.158-.567.595zm.534-5.511c.35.029.6-.1.586-.451-.01-.278-.144-.513-.52-.49-.33.025-.523.15-.508.495.014.283.1.503.442.446zM18.908 6.4c.158-.183.432-.36.442-.557.01-.149-.279-.408-.476-.465-.307-.091-.528.096-.528.45 0 .289.081.514.562.572zm1.595 2.474c.005-.081.014-.163.02-.244-.198-.149-.404-.427-.597-.418-.187.01-.36.307-.538.48.183.173.341.432.553.49.149.038.37-.193.562-.308zM23.242 1.8c.024-.374-.091-.614-.48-.6-.327.015-.447.211-.462.528-.02.374.226.504.505.49.206-.015.557-.049.437-.418zm-3.705 6.125c.048-.058.096-.11.144-.168-.12-.269-.201-.571-.374-.796-.058-.072-.462-.024-.524.081-.106.182-.168.59-.082.648.23.153.553.163.836.235zM21.2 2.548c.312.043.504-.048.48-.412-.019-.293-.043-.547-.447-.528-.345.02-.485.178-.5.513-.014.35.145.47.467.427z" fill="#00AEEF"/><path fill-rule="evenodd" clip-rule="evenodd" d="M6.318 17.037a112.603 112.603 0 0 1-1.33-.427c-.64-.206-1.289-.038-1.591.417-.293.447-.245 1.19.168 1.646.85.93 1.73 1.832 2.59 2.757.5.542.744 1.19.75 1.933 0 .883.047 1.76-.404 2.58-.577 1.041-1.399 1.684-2.59 1.948-.976.215-1.884.096-2.797-.216-.485-.168-.778-.48-.74-1.046.039-.604.03-1.208.044-1.813.01-.34.139-.417.46-.259.477.23.967.537 1.471.58.404.034.913-.182 1.245-.45.38-.312.423-.878.12-1.271-.447-.585-.98-1.103-1.509-1.621-.73-.72-1.437-1.434-1.783-2.437-.71-2.072.063-4.565 2.023-5.323 1.264-.49 2.494-.336 3.657.345.1.062.207.216.207.331.019.729.01 1.468.01 2.326zm2.816 5.28c0-1.592.005-3.189 0-4.781 0-.724-.072-.787-.812-.806-.053 0-.106 0-.159-.005-1.177-.028-1.192-.028-1.182-1.237.01-1.799-.043-1.583 1.571-1.592 1.649-.01 3.297.014 4.945-.01.51-.005.745.197.75.681.004.552.004 1.108-.015 1.66-.01.32-.163.517-.529.48-.12-.015-.24 0-.365.004-1.225.043-1.163-.13-1.167 1.218-.01 2.892-.005 5.784-.005 8.681 0 .192-.02.384-.01.57.024.47-.206.653-.663.639a30.944 30.944 0 0 0-1.768-.005c-.462.014-.596-.187-.591-.624.02-1.626.005-3.256.005-4.882.004.01 0 .01-.005.01z" fill="#EC008C"/><path fill-rule="evenodd" clip-rule="evenodd" d="M42.746 3.105c.346-.686.658-1.233.903-1.808.25-.586.586-.912 1.288-.854.865.067 1.734.014 2.604.038.514.015.562.1.312.537-1.009 1.765-2.042 3.52-3.036 5.3-.168.297-.26.676-.274 1.022a97.193 97.193 0 0 0-.02 3.745c.005.408-.134.547-.542.537a48.403 48.403 0 0 0-2.499 0c-.428.01-.586-.167-.586-.585.005-1.266.014-2.532-.034-3.793a2.598 2.598 0 0 0-.312-1.118c-.947-1.702-1.941-3.381-2.917-5.07-.269-.464-.216-.565.332-.58a48.81 48.81 0 0 1 3.022.01c.216.01.5.216.615.412.39.672.716 1.372 1.144 2.207zm1.206 1.323c-.26.13-.567.216-.769.413-.077.072.024.513.144.566.207.09.543.096.726-.02.35-.215.187-.542-.101-.959zm-.625 2.25c0-.082.005-.168.005-.25-.216-.148-.423-.383-.654-.407-.139-.015-.403.283-.446.48-.063.301.173.536.48.508.216-.03.413-.216.615-.331zm-.005 3.515a3.716 3.716 0 0 1 .02-.23c-.207-.149-.395-.379-.62-.417-.303-.053-.553.196-.486.494.044.196.293.465.476.489.187.024.404-.216.61-.336zm-.759-1.434c.077.01.15.02.226.024.154-.192.456-.417.428-.575-.044-.216-.342-.374-.534-.562-.158.183-.403.346-.437.552-.029.163.202.37.317.561zm-1.259-3.357c.067.048.135.096.202.149.269-.106.562-.173.783-.34.058-.044-.062-.461-.206-.581-.125-.106-.534-.11-.582-.024-.134.225-.14.527-.197.796zm-.846-1.573l.217.173c.264-.13.552-.23.778-.408.053-.043-.067-.432-.202-.523-.144-.1-.523-.115-.581-.029-.14.22-.149.518-.212.787zm.077-2.408c-.754-.028-.96.096-.927.499.034.403.322.48.63.413.595-.125.25-.566.297-.912zm4.878-.014c-.265-.02-.52-.01-.49.379.019.268-.01.56.403.556.327-.005.533-.12.529-.47 0-.273-.072-.503-.442-.465zM44.09 3.42c-.062.384.183.533.471.456.183-.048.394-.283.442-.475.063-.269-.091-.46-.437-.45-.346.014-.538.095-.476.47zM.005 6.035c0-1.63.01-3.261-.005-4.887-.005-.49.183-.7.673-.686.783.02 1.561.024 2.345 0 .48-.014.648.192.648.647 0 1.924.01 3.847.015 5.775.005 1.587 0 1.587 1.576 1.63 1.014.03 1.019.03 1.019 1.046 0 .518-.015 1.04-.01 1.559 0 .35-.159.499-.51.499a475.87 475.87 0 0 0-5.208.004c-.466.005-.538-.268-.538-.637 0-1.655 0-3.3-.005-4.95.005 0 .005 0 0 0zm1.259-2.604c.062.455.178.695.572.676.326-.014.528-.23.437-.523-.072-.23-.312-.412-.476-.618a46.843 46.843 0 0 1-.533.465zm3.95 6.033l-.217-.029c-.173.211-.442.403-.495.643-.081.365.293.499.553.456.178-.03.408-.293.437-.48.029-.177-.177-.393-.278-.59zm-3.936.389c.058.44.135.695.534.705.346.01.47-.178.49-.509.019-.398-.24-.522-.538-.508-.169.01-.327.201-.486.312zm1.105-8.034c-.187-.139-.355-.364-.557-.393-.365-.053-.457.225-.476.556-.019.35.159.456.457.466.346.01.49-.183.576-.629zm1.47 8.154c.063-.312-.129-.466-.427-.442-.279.02-.533.115-.514.494.014.312.14.513.456.533.385.024.51-.211.486-.585zM1.342 8.51c-.068.22.105.388.418.374.269-.014.543-.086.543-.47 0-.317-.14-.523-.438-.552-.35-.033-.5.197-.523.648zm-.034-3.837c.13.45-.192.95.48.993.342.024.505-.154.505-.494.005-.734-.553-.322-.985-.5zm.495 2.556c.303.034.51-.024.495-.398-.01-.355-.144-.527-.514-.542-.351-.014-.438.144-.438.46 0 .336.082.543.457.48z" fill="#00AEEF"/></svg>