<svg viewBox="0 0 252 67" xmlns="http://www.w3.org/2000/svg"><path d="M13.854 15.591h232.694a8.257 8.257 0 0 1 3.931 2.359c2.786 3.13 1.931 7.839.786 14.15-.629 3.454-1.375 7.38-3.931 11.792-2.74 4.73-5.595 6.63-6.289 7.075a16.75 16.75 0 0 1-3.144 1.572H6.779a9.269 9.269 0 0 1-4.716-3.144c-.895-1.2-2.185-3.675.786-15.723C5.893 21.33 8.557 18.616 10.71 17.164a13.768 13.768 0 0 1 3.144-1.573z" fill="#1884CB" stroke="#0B77C0" stroke-miterlimit="10"/><path d="M35.08 22.666a6.011 6.011 0 0 0-1.572-1.572H20.143l-7.075 23.584h6.29l1.572-6.289h7.86a9.629 9.629 0 0 0 1.573-.786c4.874-3.025 7.496-10.826 4.717-14.936zm-6.29 10.22h-6.288l2.358-6.289h6.29l-2.36 6.29zm11.793-11.792l-7.075 23.584h16.508l3.931-11.792H49.23l-2.358 6.29h-6.289l5.503-18.082h-5.503zm35.375 2.358c-1.65-3.694-13.033-4.158-16.508.786a6.023 6.023 0 0 0-.787 1.573l-5.502 18.867h5.502l1.573-6.29h6.289l-1.572 6.29h6.289l4.716-18.867c.29-.76.29-1.6 0-2.359zm-7.86 10.22h-6.29l2.358-6.289h6.29l-2.359 6.289zm17.294 11.006h-6.29l1.868-6.485a4.116 4.116 0 0 1-2.817-.918 4.009 4.009 0 0 1-1.24-1.865 872.716 872.716 0 0 0 3.762-14.316h5.7l-3.341 11.792h5.502l3.931-11.792h5.503l-3.98 13.168a6.952 6.952 0 0 1-7.026 4.127l-1.572 6.29zm15.771-22.846h7.911l-2.457 7.123h-7.91l2.456-7.124zm6.879 22.846h-5.256l3.831-12.725c.077-.308.192-.606.345-.884 2.392-4.374 14.244-4.108 15.677-.528.162.436.195.909.095 1.362-.911 5.094-2.234 10.509-2.801 12.775h-5.502a540.227 540.227 0 0 0 2.407-10.907h-5.502l-3.294 10.907z" fill="#fff"/><path d="M204.752 68h-64.986a16.57 16.57 0 0 1-9.041-4.585c-5.764-5.827-4.605-13.87-4.455-14.806l10.875-33.541a30.547 30.547 0 0 1 7.882-9.477A30.547 30.547 0 0 1 156.012 0h68.393c.874.256 8.805 2.715 11.422 10.435.916 2.95.998 6.095.235 9.088-2.683 12.916-7.888 27.278-10.35 33.803a32.118 32.118 0 0 1-6.944 7.993A32.526 32.526 0 0 1 204.752 68z"/><path d="M183.003 19.39l4.454-14.018h-29.61a22.447 22.447 0 0 0-9.958 4.716 22.174 22.174 0 0 0-4.978 5.896l-10.876 34.197a11.216 11.216 0 0 0 1.966 8.254 11.046 11.046 0 0 0 6.027 4.062h20.308a21.705 21.705 0 0 0 9.559-5.912 21.427 21.427 0 0 0 4.329-6.928l7.207-22.93h-20.702l-4.061 14.02h7.337l-2.752 7.6H146.71l9.302-28.956h26.991zm46.938-9.695a10.463 10.463 0 0 0-5.994-5.011h-20.931a24.489 24.489 0 0 0-14.249 11.3l-10.71 34.492a11.985 11.985 0 0 0 1.649 7.166 11.985 11.985 0 0 0 5.524 4.855h19.948a26.589 26.589 0 0 0 15.035-11.726l10.416-33.214a10.473 10.473 0 0 0-.688-7.862zM206.75 48.314h-13.954l9.336-28.989h13.953l-9.335 28.989z" fill="#F31719"/></svg>