<svg viewBox="0 0 116 45" xmlns="http://www.w3.org/2000/svg"><path d="M6.124 45.65c2.225 0 3.041-1.236 3.041-2.423 0-3.077-4.883-2.015-4.883-3.869 0-.778.717-1.31 1.694-1.31a3.111 3.111 0 0 1 2.385.989l.618-.754a3.873 3.873 0 0 0-2.917-1.162c-1.631 0-2.843.94-2.843 2.3 0 2.942 4.883 1.755 4.883 3.881 0 .643-.47 1.434-1.941 1.434a3.4 3.4 0 0 1-2.583-1.186l-.619.791a4.1 4.1 0 0 0 3.165 1.31v-.001zm17.452-.148v-7.33h2.62v-.915h-6.254v.915h2.608v7.329h1.026v.001zm17.23.148a3.062 3.062 0 0 0 3.374-3.362v-5.031h-1.038v5.018a2.332 2.332 0 0 1-.639 1.726 2.333 2.333 0 0 1-4.021-1.726v-5.018h-1.038V42.3a3.061 3.061 0 0 0 .885 2.474 3.06 3.06 0 0 0 2.477.876zm18.008-1.063h-1.792v-6.415h1.792a3.208 3.208 0 0 1 3.151 3.208 3.208 3.208 0 0 1-3.151 3.207zm0 .914a4.123 4.123 0 0 0 4.214-4.122 4.123 4.123 0 0 0-4.214-4.122h-2.818v8.244h2.818zm15.722 0h1.026v-8.244h-1.026v8.244zm16.6-.766a3.365 3.365 0 0 1-3.658-3.806 3.365 3.365 0 0 1 4.547-2.682 3.365 3.365 0 0 1 2.152 3.139 3.051 3.051 0 0 1-.778 2.35 3.053 3.053 0 0 1-2.264.999h.001zm0 .915a4.268 4.268 0 0 0 3.257-7.22 4.268 4.268 0 0 0-4.673-1.004 4.268 4.268 0 0 0-2.675 3.96 4.036 4.036 0 0 0 4.09 4.264h.001zm18.256 0c2.225 0 3.04-1.236 3.04-2.423 0-3.077-4.882-2.015-4.882-3.869 0-.778.717-1.31 1.693-1.31a3.11 3.11 0 0 1 2.386.989l.618-.754a3.87 3.87 0 0 0-1.336-.89 3.875 3.875 0 0 0-1.581-.272c-1.632 0-2.843.94-2.843 2.3 0 2.942 4.882 1.755 4.882 3.881 0 .643-.469 1.434-1.94 1.434a3.397 3.397 0 0 1-1.421-.31 3.397 3.397 0 0 1-1.162-.876l-.618.791a4.11 4.11 0 0 0 1.439 1.001 4.098 4.098 0 0 0 1.725.309v-.001zM84.314 20.022l-.018 9.132h-9.652l-35.677.091h-28.9a6.843 6.843 0 0 1-.311.007 8.007 8.007 0 0 1-5.73-2.272 8.194 8.194 0 0 1-2.2-5.453V9.884a8.487 8.487 0 0 1 2.171-5.9 7.755 7.755 0 0 1 5.488-2.126l39.7-.038v17.3H72.54V1.964h11.774l-.039 8.1 11.3-8.1h15.559L94.899 15.386l16.406 13.768H95.22l-10.906-9.132zm13.442-4.625L116.217.134H94.984L86.12 6.48l.031-6.351H70.714V17.3H51.022V0L9.493.037a9.611 9.611 0 0 0-6.834 2.717A10.247 10.247 0 0 0 .004 9.927v11.594a10.049 10.049 0 0 0 2.7 6.722 9.842 9.842 0 0 0 7.05 2.837h31.043l35.677-.1h9.652l.013-7.048 8.416 7.048h21.778L97.756 15.397z" fill="#259BFF"/><path d="M37.137 3.704v6.409H13.514a1.55 1.55 0 0 0-1.138.432 1.622 1.622 0 0 0-.372 1.069v.879H37.09v6.272h-25.1l.007.859c.015.36.157.703.4.969a1.425 1.425 0 0 0 1 .415h23.739v6.409H10.014a6.375 6.375 0 0 1-4.658-1.694 6.432 6.432 0 0 1-1.7-4.181V9.837a6.733 6.733 0 0 1 1.687-4.606c1.5-1.625 4.218-1.536 4.218-1.536l27.568.009h.008zm1.93-.048h8.286v17.305h25.46v6.454H39.077V3.656h-.008zm57.093.138h9.888L92.04 15.38l14.237 11.948H95.885l-13.391-11.22-.021 11.216h-8.1V3.794h8.1l-.048 9.842L96.16 3.794z" fill="#259BFF"/></svg>