<svg xmlns="http://www.w3.org/2000/svg" viewBox="0 0 92 27"><path d="M11.575 12.827H5.32l-.939 2.972c-.313.626-.47 1.251-.47 1.564 0 .313.157.626.314.782.312.157.782.313 1.564.47v.469H.782v-.47c.626-.156 1.095-.312 1.252-.625.469-.47.938-1.252 1.407-2.66L8.916 0h.47l5.474 15.486c.313 1.251.783 2.034 1.095 2.503.47.313.939.47 1.565.626v.469h-6.257v-.47c.625-.156 1.095-.156 1.251-.469.313-.156.313-.469.313-.782 0-.313-.156-.938-.47-1.877l-.781-2.66zm-.469-.939L8.447 4.38l-2.66 7.508h5.32zm13.922-6.883l3.754 10.324L32.38 5.005h3.91v.47c-.47 0-.782.156-.938.156-.313.156-.47.313-.626.626-.156.156-.156.47-.156.782v9.855c0 .313 0 .625.156.782.156.313.313.47.47.626.312.156.625.156 1.094.156v.626h-5.475v-.626c.47 0 .783 0 .939-.156.156-.157.313-.47.47-.626.156-.313.156-.626.156-.939V7.04l-4.067 12.045h-.47l-3.91-11.42h-.157v8.448c0 .625 0 .938.157 1.25 0 .314.156.627.313.783.156.156.312.156.625.313h.939v.626h-4.537v-.626c.47 0 .783 0 1.095-.156l.47-.47c.156-.313.156-.47.156-.782V7.352c0-.47 0-.782-.156-1.095-.157-.157-.313-.47-.47-.626-.312 0-.625-.156-1.095-.156v-.47h3.755zm15.486 14.079v-.626h.469c.156 0 .313-.156.47-.313.156-.156.312-.47.468-.782.157-.313.47-.782.626-1.408l3.91-11.419h.314l4.38 12.201c.156.47.312.782.469.939.156.313.313.47.47.626.155 0 .312.156.468.156h.47v.626h-4.85v-.626h.626l.313-.313s.156-.156.156-.313 0-.47-.156-.625c0-.157-.156-.47-.156-.626l-.782-1.877h-4.224l-.626 1.877c0 .156-.156.313-.156.47v.468c0 .157 0 .313.156.47 0 .156.157.313.313.313 0 0 .157.156.313.156h.313v.626h-3.754zm3.754-5.319h3.598l-1.877-5.162-1.721 5.162zm21.117-8.76l.157 3.285h-.47c0-.469-.156-.938-.156-1.251-.157-.313-.313-.47-.47-.782-.312-.157-.469-.157-.625-.313h-2.66v10.168c0 .312 0 .625.157.938 0 .313 0 .626.157.782.156.157.312.313.625.47.157.156.47.156.939.156v.626H57.25v-.626c.47 0 .782 0 1.095-.156l.47-.47c.156-.156.156-.47.156-.782.156-.313.156-.626.156-.938V5.944h-1.72c-.47 0-.783 0-1.096.156-.312 0-.469.157-.625.47a1.19 1.19 0 0 0-.313.782c-.156.313-.156.625-.156.938h-.47l.157-3.285h10.48zm10.48 14.079h-5.63v-.626c.469 0 .782 0 .938-.156.313 0 .47-.157.47-.47.156-.156.312-.313.312-.626V7.04c0-.313 0-.626-.156-.782a2.154 2.154 0 0 0-.47-.626c-.313 0-.625-.156-1.095-.156v-.47h5.632v.47c-.47 0-.783.156-1.095.156a2.16 2.16 0 0 0-.47.626c-.156.156-.156.47-.156.782v10.168c0 .312.156.469.156.625.157.313.313.47.626.47.156.156.47.156.939.156v.626zM92.29 9.542h-.47c0-.157-.155-.313-.155-.626 0-.156-.157-.313-.313-.626 0-.156-.157-.312-.313-.625 0-.157-.157-.313-.313-.626-.313-.156-.47-.47-.782-.626-.313-.156-.47-.469-.782-.469l-.939-.47h-.938a3.02 3.02 0 0 0-1.565.47c-.469.313-.938.626-1.251 1.251-.47.626-.782 1.252-.939 2.034-.156.782-.312 1.72-.312 2.66 0 .938.156 1.72.312 2.502 0 .626.313 1.251.47 1.72.313.47.469.783.782 1.095.313.313.626.626.938.783.313.156.626.312.939.312.313.157.626.157.938.157.47 0 .939 0 1.408-.313.47-.156 1.095-.47 1.564-.939.157-.156.313-.469.47-.625.156-.157.156-.313.313-.47.156-.312.312-.469.312-.625.157-.313.157-.47.313-.782l.47.313c-.157.156-.157.469-.313.625l-.47.939c-.156.313-.312.626-.625.938-.313.47-.626.626-.939.939-.469.313-.938.47-1.408.626-.469.313-.938.313-1.564.313-.938 0-1.564-.157-2.346-.47-.782-.47-1.408-.938-2.034-1.564-.469-.626-.938-1.408-1.408-2.19a9.106 9.106 0 0 1-.469-2.972 9.1 9.1 0 0 1 .47-2.972c.312-.939.782-1.72 1.407-2.503.47-.626 1.252-1.095 1.877-1.564.782-.313 1.565-.626 2.503-.626.626 0 1.095.157 1.564.313l.939.47c.156 0 .313.156.47.156a.484.484 0 0 0 .312.156h.156l.157.156s0-.156.156-.156c0 0 .157 0 .157-.156.156 0 .156-.157.156-.313.157-.157.157-.313.157-.626h.469l.47 5.006zM.156 23.307h.782v4.537H.156v-4.537zm9.23 0h.469l1.095 3.129v-3.129h.625v4.537h-.625l-1.095-2.816v.47c.156.156.156.312.156.469v1.877h-.626v-4.537zm10.636 0h.626c.156 0 .313 0 .47.157h.312s.156 0 .313.156c0 0 .156.157.156.313.157 0 .157.157.313.313v2.66c-.156.312-.156.468-.313.468 0 .157-.156.313-.156.313-.157 0-.313.157-.313.157h-1.408v-4.537zm.782 4.067h.313c.157 0 .157-.156.313-.156V24.09c-.156 0-.156-.157-.313-.157h-.47v3.441h.157zm9.699-4.067h.625v3.755c0 .156.157.156.157.156 0 .156 0 .156.156.156h.313l.156-.156v-3.911h.783v3.285c0 .157-.157.313-.157.47 0 .156 0 .312-.156.469 0 0 0 .156-.157.156 0 .157-.156.157-.156.157-.157 0-.157.156-.313.156h-.47l-.156-.156c-.156 0-.156 0-.313-.157l-.156-.156c0-.157-.156-.313-.156-.47v-3.754zm10.324 3.755v-.313c0-.157.156-.157.156-.313h.47v.626l.156.156c0 .156 0 .156.156.156h.47c0-.156.156-.156.156-.312 0-.157 0-.157-.157-.313v-.313c-.156 0-.156-.157-.156-.157l-.782-.938c-.157-.156-.157-.313-.313-.47 0-.156-.156-.312-.156-.469 0-.156.156-.313.156-.469 0-.156.156-.156.156-.313.157-.156.157-.156.313-.156.157-.157.313-.157.47-.157.156 0 .312 0 .469.157.156 0 .313.156.313.156.156.157.156.157.156.313a.484.484 0 0 1 .157.313v.313c-.157.156-.157.156-.157.313h-.47v-.313c0-.157 0-.313-.156-.47 0-.156-.156-.156-.312-.156h-.313v.782c.156 0 .156.157.156.157l.782.938c.157.157.313.313.313.47.157.312.157.469.157.625 0 .157 0 .313-.157.47 0 .156 0 .156-.156.312-.157 0-.157.157-.313.157-.157.156-.313.156-.47.156-.156 0-.312 0-.469-.156-.156 0-.313-.157-.313-.157-.156-.156-.156-.156-.156-.313-.156-.156-.156-.312-.156-.312zm10.793-3.129h-.626v-.626h2.034v.626h-.626v3.91h-.782v-3.91zm9.542-.626h.782c.156 0 .156 0 .313.157h.313s.156 0 .313.156c0 0 .156 0 .156.157.156.156.156.156.156.313.157.156.157.312.157.625 0 .47 0 .626-.157.939l-.469.469.782 1.72h-.782L62.1 26.28h-.156v1.565h-.782v-4.537zm.782 2.347h.313c.156 0 .156 0 .313-.157V24.09c-.157-.156-.157-.156-.313-.156h-.313v1.72zm9.698-2.347h.626v4.537h-.626v-4.537zm9.073 0h1.72v.626h-.938v1.408h.782v.47h-.782v1.563h.939v.47h-1.721v-4.537zm9.698 3.755c0-.157 0-.313.157-.313v-.313h.469v.626l.156.156c0 .156 0 .156.157.156h.469c0-.156.157-.156.157-.312v-.313s-.157 0-.157-.157v-.156c-.156 0-.156-.157-.156-.157l-.783-.938c-.156-.156-.156-.313-.312-.47v-.938c0-.156.156-.156.156-.313.156-.156.313-.156.313-.156.156-.157.313-.157.47-.157.156 0 .468 0 .468.157.157 0 .313.156.313.156l.313.313v.626c0 .156-.156.156-.156.313h-.47v-.313c0-.157 0-.313-.156-.47 0-.156-.156-.156-.313-.156h-.313v.782c.157 0 .157.157.157.157l.782.938c.156.157.313.313.313.47.156.312.156.469.156.625v.47l-.313.312s-.156.157-.313.157c-.156.156-.312.156-.469.156-.156 0-.313 0-.47-.156-.155 0-.312-.157-.312-.157-.156-.156-.156-.156-.156-.313s-.157-.312-.157-.312z" fill="#0000A3"/><path fill-rule="evenodd" clip-rule="evenodd" d="M0 20.804h92.603v.626H0v-.626z" fill="#0000A3"/></svg>