<svg viewBox="0 0 112 14" xmlns="http://www.w3.org/2000/svg"><path d="M55.824.462l-3.235 3.243a.376.376 0 0 0-.114.278.409.409 0 0 0 .114.29l3.218 3.244a.407.407 0 0 0 .277.114.456.456 0 0 0 .29-.114l3.234-3.244a.409.409 0 0 0 .114-.29.377.377 0 0 0-.114-.278L56.374.462a.407.407 0 0 0-.29-.115.373.373 0 0 0-.277.115h.017zm.814-.254l1.292 1.308A20.492 20.492 0 0 1 59.66.29l.07-.045.057.045c.025 0 6.925 4.355 6.925 8.501a3.731 3.731 0 0 1-1.039 2.595 3.478 3.478 0 0 1-1.148.798 3.47 3.47 0 0 1-1.369.28 3.785 3.785 0 0 1-2.037-.592 3.523 3.523 0 0 1-1.108-1.079c.314 2.361 2.827 2.5 3.117 2.5h.024v.233H56.28v-.233h.024c.29 0 2.795-.139 3.117-2.5a3.784 3.784 0 0 1-1.108 1.079 3.813 3.813 0 0 1-2.037.592 3.47 3.47 0 0 1-1.363-.285 3.478 3.478 0 0 1-1.142-.798 3.682 3.682 0 0 1-1.04-2.594 4.657 4.657 0 0 1 .29-1.552 7.176 7.176 0 0 1 .68-1.365l-1.36-1.356a.773.773 0 0 1-.208-.53.745.745 0 0 1 .208-.524L55.6.192A.74.74 0 0 1 56.097 0a.769.769 0 0 1 .525.208h.016zM0 12.705v-7.9h4.456a3.584 3.584 0 0 1 1.524.244c.373.197.662.522.815.915.137.286.208.599.207.915a2.264 2.264 0 0 1-.321 1.148 1.672 1.672 0 0 1-.815.732 1.888 1.888 0 0 1 1.145 1.863 2.203 2.203 0 0 1-.359 1.295 1.63 1.63 0 0 1-.815.625 5.28 5.28 0 0 1-1.49.163H0zm1.674-4.657H3.96c.175.006.35-.005.522-.033a.655.655 0 0 0 .314-.151.91.91 0 0 0 .285-.347.913.913 0 0 0 .085-.441.795.795 0 0 0-.08-.4.792.792 0 0 0-.266-.307 1.589 1.589 0 0 0-.815-.164h-2.33v1.843zm0 3.268H3.96c.175 0 .35-.016.522-.049a.675.675 0 0 0 .314-.163.89.89 0 0 0 .285-.34.893.893 0 0 0 .085-.437.778.778 0 0 0-.077-.4.775.775 0 0 0-.269-.306 1.589 1.589 0 0 0-.815-.164h-2.33v1.859zm12.22-6.495v1.4h-2.207a4.533 4.533 0 0 0-1.246.127 1.275 1.275 0 0 0-.665.438 1.546 1.546 0 0 0-.244.474 5.431 5.431 0 0 0-.106.817h4.452v1.4H9.446a1.954 1.954 0 0 0 .591 1.426 2.845 2.845 0 0 0 1.731.409h2.115v1.393h-2.196a10.322 10.322 0 0 1-1.56-.106 2.678 2.678 0 0 1-1.699-.94 4.523 4.523 0 0 1-.888-2.953c0-1.377.407-2.451 1.259-3.207a2.626 2.626 0 0 1 .924-.544 4.57 4.57 0 0 1 1.316-.15l2.856.016zm.938 0h1.674v4.42c.006.376.034.75.081 1.123a.892.892 0 0 0 .155.439.888.888 0 0 0 .355.3 4.245 4.245 0 0 0 1.535.197h1.605v1.405h-1.796a7.309 7.309 0 0 1-1.837-.139 2.255 2.255 0 0 1-1.058-.602 2.265 2.265 0 0 1-.592-1.065 6.848 6.848 0 0 1-.139-1.654l.017-4.424zm5.56 7.884l3.259-7.897h1.939l3.259 7.897h-1.964l-.762-1.83h-3.006l-.762 1.83h-1.963zm4.224-6.001l-1.12 2.766h2.24l-1.12-2.766zm5.59-.499H27.7v-1.4h6.79v1.4h-2.61v6.5h-1.675v-6.5zm6.517 3.497v3.003h-1.666v-7.9h3.845c1.108 0 1.882.138 2.322.408.292.18.531.436.693.74.163.317.247.67.244 1.029a2.456 2.456 0 0 1-.578 1.736 2.21 2.21 0 0 1-.937.568 2.678 2.678 0 0 1 .704.335c.17.152.309.337.408.543a2.902 2.902 0 0 1 .207.543 6.491 6.491 0 0 1 .094.777 5.157 5.157 0 0 0 .196 1.192h-1.862a6.956 6.956 0 0 1-.175-1.123 2.98 2.98 0 0 0-.253-1.054 1.277 1.277 0 0 0-.554-.58 2.844 2.844 0 0 0-1.328-.245l-1.36.028zm0-1.413h2.383a1.528 1.528 0 0 0 .815-.172 1.02 1.02 0 0 0 .37-.915.856.856 0 0 0-.12-.558.852.852 0 0 0-.446-.357 1.743 1.743 0 0 0-.648-.082h-2.346l-.008 2.084zM42.45 12.7l3.26-7.897h1.95l3.26 7.897h-1.964l-.762-1.83h-3.002l-.79 1.834-1.952-.004zm4.233-5.997l-1.12 2.766h2.24l-1.12-2.766zm24.282 6.16a.679.679 0 0 0 .29.531c.253.165.552.247.855.233a1.305 1.305 0 0 0 .289-.036 1.362 1.362 0 0 0 .322-.115 1.565 1.565 0 0 0 .566-.461 2.424 2.424 0 0 0 .383-.997l.093-.409a2.037 2.037 0 0 1-.52.303 4.128 4.128 0 0 1-.649.183 3.917 3.917 0 0 1-.383.058c-.13.012-.252.024-.37.024h-.127a2.72 2.72 0 0 1-1.906-.695c-.51-.461-.762-1.192-.762-2.165a4.576 4.576 0 0 1 .97-2.884 3.187 3.187 0 0 1 1.185-.94 3.178 3.178 0 0 1 1.483-.285h.407a2.188 2.188 0 0 1 .29.036c.324.037.643.12.945.246.295.122.548.328.729.592l.138-.67h2.078l-1.34 6.27c-.037.152-.082.373-.163.65a3.623 3.623 0 0 1-.359.879 3.474 3.474 0 0 1-1.153 1.225 4.036 4.036 0 0 1-2.297.556h-.126l-.591-.037a3.034 3.034 0 0 1-.774-.106 2.635 2.635 0 0 1-1.128-.552 1.638 1.638 0 0 1-.522-1.344v-.114h.126l2.021.024zm2.794-2.606a3.128 3.128 0 0 0 .591-1.017 3.494 3.494 0 0 0 .15-.65 3.215 3.215 0 0 0 .046-.53 1.404 1.404 0 0 0-.371-1.08 1.322 1.322 0 0 0-.913-.359 1.692 1.692 0 0 0-.802.23 1.697 1.697 0 0 0-.595.587 3.213 3.213 0 0 0-.542 1.887v.254c.024.156.066.308.127.453a1.372 1.372 0 0 0 .407.474c.217.168.488.25.762.233a1.48 1.48 0 0 0 1.144-.482h-.004zm4.33-2.639c.025-.082.045-.176.07-.266a2.837 2.837 0 0 1 .114-.277 3.22 3.22 0 0 1 1.16-1.3c.555-.384 1.422-.58 2.587-.58h.127c1.026 0 1.743.152 2.114.462.333.251.56.619.635 1.03v.138a.516.516 0 0 1 0 .127c0 .137-.012.274-.036.409a7.35 7.35 0 0 1-.07.36l-.692 3.173-.037.14a.56.56 0 0 1-.045.126c0 .057-.024.126-.036.196a1.782 1.782 0 0 0 0 .265v.254a.171.171 0 0 0 0 .081.361.361 0 0 0 .07.152.644.644 0 0 0 .15.163v.045h-2.298l-.044-.6a2.246 2.246 0 0 1-.322.253 2.75 2.75 0 0 1-.347.208 3.222 3.222 0 0 1-.993.302 5.674 5.674 0 0 1-.624.045h-.126a2.207 2.207 0 0 0-.277 0c-.094 0-.196 0-.29-.024a2.553 2.553 0 0 1-1.107-.409 1.442 1.442 0 0 1-.403-.563 1.446 1.446 0 0 1-.094-.687 1.868 1.868 0 0 1 .2-1.045 1.86 1.86 0 0 1 .737-.765 6.618 6.618 0 0 1 2.036-.661 5.696 5.696 0 0 1 .453-.058c.15-.012.289-.045.44-.057a.902.902 0 0 1 .163-.024.776.776 0 0 0 .162-.025 2.581 2.581 0 0 0 .946-.245c.195-.114.301-.384.301-.817a.513.513 0 0 0-.04-.224.51.51 0 0 0-.135-.184.972.972 0 0 0-.383-.184l-.163-.037h-.163a1.512 1.512 0 0 0-.925.278 1.43 1.43 0 0 0-.444.56c0 .036-.036.081-.045.126l-.036.139h-2.29zm4.25 1.458c-.082.037-.152.057-.22.082a1.133 1.133 0 0 1-.184.057.37.37 0 0 1-.163.037 1.437 1.437 0 0 0-.183.045.813.813 0 0 0-.151.024c-.057 0-.114 0-.183.025-.07.024-.196.037-.302.057a3.75 3.75 0 0 0-.346.082 2.202 2.202 0 0 0-.693.36.9.9 0 0 0-.313.751.535.535 0 0 0 .244.486 1.139 1.139 0 0 0 .579.184 3.406 3.406 0 0 0 .383-.07 1.572 1.572 0 0 0 .472-.22 2.231 2.231 0 0 0 .554-.543 2.505 2.505 0 0 0 .408-.985l.097-.372zm6.28-3.705l-.195.858a3.375 3.375 0 0 1 1.401-.92 4.75 4.75 0 0 1 .9-.163h.115a1.834 1.834 0 0 1 1.222.348c.234.192.406.45.497.739v.024a4.714 4.714 0 0 1 1.19-.817 3.031 3.031 0 0 1 1.372-.314h.126c.705 0 1.177.176 1.422.51.25.32.403.707.44 1.112v.278c0 .15 0 .302-.025.44-.024.14-.044.279-.069.41 0 .036 0 .069-.024.105-.025.037 0 .07 0 .107l-.856 4.232h-2.204l.876-4.085c.025-.082.037-.176.057-.29a3.263 3.263 0 0 0 .025-.335 1.228 1.228 0 0 0-.139-.593.673.673 0 0 0-.263-.217.67.67 0 0 0-.336-.06.865.865 0 0 0-.277.045 1.756 1.756 0 0 0-.289.106 1.74 1.74 0 0 0-.574.461 2.541 2.541 0 0 0-.408.973l-.855 3.983h-2.196l.868-4.085a3.403 3.403 0 0 0 .057-.348 1.587 1.587 0 0 0 .025-.335 1.118 1.118 0 0 0-.139-.568.672.672 0 0 0-.566-.245h-.15a1.587 1.587 0 0 0-.856.454 2.11 2.11 0 0 0-.566 1.135l-.844 3.984h-2.195l1.454-6.945h1.976l.004.016zm16.372 4.943a4.203 4.203 0 0 1-.208.409 2.512 2.512 0 0 1-.44.637 4.029 4.029 0 0 1-1.152.817 4.551 4.551 0 0 1-1.988.36h-.127c-1.152 0-1.963-.254-2.444-.752a3.002 3.002 0 0 1-.814-1.667 1.148 1.148 0 0 1-.037-.278 2.506 2.506 0 0 1 0-.29 4.311 4.311 0 0 1 .037-.543c.024-.184.057-.372.093-.568a4.742 4.742 0 0 1 1.316-2.26c.682-.694 1.663-1.04 2.945-1.04h.127a3.904 3.904 0 0 1 2.321.649c.611.408.913 1.156.913 2.177.002.214-.013.427-.045.638-.026.226-.069.45-.126.67h-5.296a2.15 2.15 0 0 1-.024.253c-.02.095-.028.193-.025.29v.139a.462.462 0 0 1 0 .139 1.5 1.5 0 0 0 .322.763 1.224 1.224 0 0 0 .97.372 1.99 1.99 0 0 0 .888-.265c.261-.146.462-.38.566-.662h2.228v.012zm-1.674-2.12a.138.138 0 0 1 0-.057.378.378 0 0 1 0-.106.438.438 0 0 1 0-.115v-.114a.316.316 0 0 0 0-.106v-.098a.935.935 0 0 0-.071-.48.93.93 0 0 0-.3-.378 1.593 1.593 0 0 0-.9-.266 1.652 1.652 0 0 0-.75.196 2.04 2.04 0 0 0-.598.523 3.157 3.157 0 0 0-.461 1.01l3.08-.01zm4.701 1.932v.045a.111.111 0 0 0 0 .057v.115a.84.84 0 0 0 .244.592c.263.221.603.33.945.302.291-.014.572-.105.815-.265a.726.726 0 0 0 .358-.637.579.579 0 0 0-.313-.58 3.875 3.875 0 0 0-.705-.233.042.042 0 0 1-.037 0h-.024a3.85 3.85 0 0 0-.277-.058c-.082-.012-.183-.069-.261-.069a6.004 6.004 0 0 1-1.548-.543 1.224 1.224 0 0 1-.492-.52 1.231 1.231 0 0 1-.119-.706c.002-.129.014-.257.037-.384.02-.14.055-.277.106-.408.206-.482.552-.889.994-1.169a4.015 4.015 0 0 1 2.285-.53h.126a3.852 3.852 0 0 1 2.037.408c.347.204.612.524.75.903.031.074.05.152.057.232.005.082.005.164 0 .245.005.066.005.131 0 .196a.946.946 0 0 1-.025.176h-2.008a.378.378 0 0 0 0-.106v-.106a.525.525 0 0 0-.039-.271.525.525 0 0 0-.169-.215 1.016 1.016 0 0 0-.452-.176h-.277a1.473 1.473 0 0 0-.957.278.785.785 0 0 0-.215.253.809.809 0 0 0-.091.319.555.555 0 0 0 .196.474c.125.088.262.158.407.208.057 0 .106 0 .151.024a.573.573 0 0 0 .138.025l.334.057c.114 0 .22.037.322.045a7.557 7.557 0 0 1 1.63.441 1.185 1.185 0 0 1 .68 1.226c0 .151-.025.335-.045.555-.044.248-.13.487-.253.707a2.82 2.82 0 0 1-1.05 1.042 4.45 4.45 0 0 1-2.286.462h-.126c-1.063 0-1.825-.176-2.273-.487a1.92 1.92 0 0 1-.815-1.041c-.024-.094-.045-.176-.057-.245-.012-.07 0-.164 0-.233v-.22c0-.083.025-.14.037-.197h2.24l.025.012z"/></svg>