<svg width="111" height="20" fill="none" xmlns="http://www.w3.org/2000/svg"><path fill-rule="evenodd" clip-rule="evenodd" d="M.805 0h9.13a5.492 5.492 0 0 1 1.527.208l.008.003c3.472 1.01 5.958 3.194 7.55 6.433.082.167.261.386.077.546-.184.16-.363-.059-.526-.153-1.013-.585-2.078-1.018-3.254-1.112-2.963-.237-5.932-.05-8.898-.107-.355-.006-.479.168-.501.515-.039.59.31.64.758.64 3.028-.008 6.056-.009 9.084-.004a5.947 5.947 0 0 1 1.129.085 2.807 2.807 0 0 1 2.307 2.802c.002 3.104.002 6.209 0 9.314 0 .823-.007.828-.842.829h-8.128c-4.115-.002-8.454-2.933-10.007-6.76-.065-.16-.228-.353-.08-.498.188-.183.365.038.522.132 1.166.701 2.413 1.16 3.78 1.172 2.769.024 5.539.016 8.308.022.363.001.613-.089.62-.533.006-.477-.264-.556-.65-.571-2.51-.099-5.02-.03-7.529-.04-.856-.004-1.71.08-2.567-.013C1.215 12.76.021 11.568.01 10.152-.014 7.032.01 3.91.02.788A.788.788 0 0 1 .805 0z" fill="url(#a)"/><path fill-rule="evenodd" clip-rule="evenodd" d="M36.272 18.08V9.924c0-.09-.002-.182.001-.273.007-.203.004-.419.295-.409.26.01.262.207.264.394.004.24 0 .48 0 .697a.115.115 0 0 0 .184-.046c.96-1.157 2.296-1.525 3.804-1.049 1.174.371 1.984 1.496 2.076 2.933.07 1.073-.103 2.08-.811 2.953-1.04 1.281-3.912 1.372-4.954-.056a.608.608 0 0 0-.315-.229v3.243h-.544zm3.374-8.482c-1.48-.007-2.492.86-2.734 2.322a4.79 4.79 0 0 0-.01 1.267c.221 2.235 2.313 2.742 3.701 2.252 1.328-.468 1.954-1.84 1.666-3.585-.235-1.422-1.197-2.25-2.623-2.256zM29.24 6.57c.864-.04 1.717.049 2.501.472a2.344 2.344 0 0 1 1.261 1.888c.022.183.084.426-.203.476-.311.055-.328-.184-.363-.4-.165-1.027-.784-1.598-1.78-1.807a6.423 6.423 0 0 0-2.879.033c-.493.12-.955.324-1.239.776-.561.894-.2 1.93.828 2.342.67.239 1.363.411 2.067.514a10.946 10.946 0 0 1 2.65.77c.797.371 1.124 1.044 1.162 1.866.038.807-.3 1.492-1.016 1.857-1.88.956-3.794.95-5.646-.069-.858-.472-1.146-1.329-1.143-2.288 0-.174.042-.298.243-.309.213-.012.3.101.319.297.01.213.034.424.074.632a2.083 2.083 0 0 0 .512.98c.256.274.58.474.941.58 1.346.44 2.704.494 4.038-.054.88-.362 1.235-1.066 1.063-1.977a1.397 1.397 0 0 0-.938-1.08c-.792-.315-1.63-.453-2.456-.64a13.809 13.809 0 0 1-2.096-.586c-1.213-.486-1.711-1.611-1.267-2.817.217-.59.67-.923 1.218-1.148a5.012 5.012 0 0 1 2.148-.309v.001zm40.04 3.592c.749-.856 1.655-1.116 2.69-.97a2.028 2.028 0 0 1 1.527.957c.113.186.2.21.315.01.655-1.131 2.633-1.244 3.614-.683.672.384.954 1.016.967 1.75.028 1.46.012 2.92.01 4.379 0 .197.01.428-.277.43-.287.001-.279-.228-.28-.426-.003-1.08-.001-2.16-.002-3.239 0-.228.003-.456 0-.684-.023-1.241-.546-1.91-1.55-1.984-1.349-.099-2.294.55-2.438 1.757-.159 1.33-.033 2.672-.063 4.009-.001.076 0 .152.003.228.008.177.004.347-.236.356-.237.01-.324-.134-.326-.344-.006-.486-.006-.973-.006-1.46-.001-.866.004-1.732-.003-2.599-.008-1.096-.378-1.658-1.222-1.877-1.015-.263-1.965.128-2.448 1.005a2.732 2.732 0 0 0-.325 1.358 327.707 327.707 0 0 1-.003 3.42c-.001.199.065.474-.255.49-.353.015-.302-.273-.302-.491a1444.416 1444.416 0 0 1 .001-5.7c0-.212-.074-.512.279-.513.353-.001.255.302.283.511.011.084.026.167.047.31zm15.877 2.723c-.892 0-1.784.006-2.675-.003-.29-.004-.394.079-.37.396.111 1.447 1.002 2.292 2.445 2.35 1.23.051 2.24-.277 2.843-1.445a.339.339 0 0 1 .463-.169c.244.105.084.286.025.422-.475 1.085-1.365 1.589-2.486 1.72a4.757 4.757 0 0 1-1.489-.053c-1.071-.214-1.826-.818-2.152-1.862-.47-1.504-.416-2.953.744-4.163.931-.972 2.61-1.207 3.974-.611 1.146.5 1.774 1.6 1.76 3.03-.003.315-.133.391-.407.389-.891-.007-1.783-.002-2.675-.002v.001zm-.38-.554h2.131c.675-.002.772-.131.587-.78-.359-1.263-1.45-1.953-2.92-1.85a2.63 2.63 0 0 0-2.44 2.253c-.04.286.046.384.33.38.77-.011 1.541-.004 2.312-.003zm21.671-1.822c0-.348-.005-.63.001-.911.004-.193-.03-.43.267-.43.279-.002.291.216.291.42.003.805.002 1.61.002 2.414 0 1.184.003 2.37-.003 3.554-.001.196.071.476-.255.483-.343.007-.295-.277-.302-.499-.007-.221-.001-.447-.001-.681-.202.022-.252.168-.339.26a3.441 3.441 0 0 1-4.035.73 2.82 2.82 0 0 1-.916-.699 2.825 2.825 0 0 1-.56-1.006c-.399-1.192-.381-2.386.262-3.479 1.068-1.817 3.763-2.066 5.206-.524.101.107.212.204.382.368zm-2.823-.813a2.27 2.27 0 0 0-1.174.213 2.261 2.261 0 0 0-.904.778c-.8 1.144-.837 2.378-.252 3.625a2.231 2.231 0 0 0 1.752 1.296c1.82.298 3.293-.851 3.385-2.707.095-1.89-.961-3.233-2.807-3.205zm-41.564 6.48c-2.078.002-3.428-1.37-3.447-3.5-.019-2.084 1.415-3.533 3.496-3.533 2.036 0 3.404 1.428 3.406 3.555.002 2.119-1.348 3.478-3.455 3.479zm.037-6.481c-1.723-.005-2.916 1.187-2.918 2.915-.002 1.814 1.147 3.059 2.831 3.069 1.75.01 2.938-1.177 2.943-2.943.006-1.879-1.082-3.037-2.856-3.041zm29.926.542c.892-1.06 2.035-1.25 3.296-.982 1.214.258 1.872 1.086 1.88 2.333.005 1.292 0 2.584 0 3.877a2.346 2.346 0 0 1-.024.363.25.25 0 0 1-.195.215.25.25 0 0 1-.102 0 .228.228 0 0 1-.164-.07.227.227 0 0 1-.063-.166 5.54 5.54 0 0 1-.01-.364 3426.542 3426.542 0 0 1 0-3.513c-.003-1.714-1.301-2.658-2.946-2.141-1.132.355-1.728 1.228-1.743 2.585-.011.988-.002 1.976-.003 2.964l-.002.366c-.002.184-.05.335-.271.344-.221.008-.282-.136-.287-.324a14.79 14.79 0 0 1-.004-.365v-5.337c0-.107 0-.213.002-.32.004-.198.042-.374.294-.368.226.006.255.166.268.347.013.178-.024.363.074.556zm-41.588-.087c.986-1.373 3.717-1.301 4.606-.283.345.395.578.82.582 1.344.012 1.458.011 2.917.016 4.375 0 .184.026.381-.249.393-.28.012-.32-.172-.32-.388-.001-1.306-.041-2.614.009-3.92.052-1.36-.987-2.138-2.268-2.034-1.548.125-2.364 1.044-2.37 2.606-.004 1.079.002 2.158-.004 3.236-.002.2.058.473-.26.487-.357.015-.297-.279-.297-.494-.006-1.944-.005-3.889-.008-5.833 0-.186-.03-.388.248-.386.233.001.314.148.316.358l-.001.54zm59.825 1.232V7.46c0-.137.002-.274.009-.41a.24.24 0 0 1 .013-.113.258.258 0 0 1 .061-.096.254.254 0 0 1 .21-.07.241.241 0 0 1 .186.072.246.246 0 0 1 .055.086.249.249 0 0 1 .015.101c.01.121.011.243.011.365v7.981c0 .046.003.092-.001.137-.021.215.061.512-.278.524-.363.013-.276-.297-.277-.505-.007-1.383-.003-2.767-.003-4.15h-.001zM46.72 12.547c0 .957.002 1.915-.002 2.872-.001.205.038.468-.287.46-.325-.008-.27-.276-.27-.476a1329.997 1329.997 0 0 1 0-5.79c0-.205-.038-.468.286-.46.325.008.269.276.27.477.006.972.003 1.944.003 2.917z" fill="#000"/><defs><linearGradient id="a" x1="19.199" y1="12.573" x2="-.002" y2="7.428" gradientUnits="userSpaceOnUse"><stop stop-color="#34BCD5"/><stop offset="1" stop-color="#A1509E"/></linearGradient></defs></svg>