<svg viewBox="0 0 201 53" xmlns="http://www.w3.org/2000/svg"><path d="M6.164 15.17H0V31.7h6.164V15.17zm0-8.686h7.844a6.24 6.24 0 0 1 5.043 6.724v.28h6.164v-3.081a12.924 12.924 0 0 0-2.241-5.043C19.704.948 14.607.184 13.448.04H0v13.45h6.164V6.484zM19.05 31.7h6.164V15.17H19.05V31.7zm37.844-14.717a8.554 8.554 0 0 1-8.554 8.554h-2.053a8.554 8.554 0 0 1-8.554-8.554V15.17h-6.109v2.521a14.009 14.009 0 0 0 4.103 9.906 14.009 14.009 0 0 0 9.906 4.102h3.362a14.009 14.009 0 0 0 9.905-4.102 14.009 14.009 0 0 0 4.103-9.906V15.17h-6.11v1.812zM46.288 6.204h2.053a8.555 8.555 0 0 1 8.46 7.285h6.189A14.007 14.007 0 0 0 48.996.04h-3.362A14.007 14.007 0 0 0 31.64 13.49h6.189a8.555 8.555 0 0 1 8.46-7.285zM70.042 31.7h19.331v-6.163H76.207V15.17h-6.164V31.7zM76.206.04h-6.164v13.45h6.164V.04zm27.456 15.13h-6.164V31.7h6.164V15.17zm0-15.13h-6.164v13.45h6.164V.04zm29.417 31.66h6.444V15.17h-6.444V31.7zm26.896-16.53h-5.884V31.7h5.884V15.17zm-41.465-2.242c.455-4.072 4.035-7.01 7.845-6.724 3.433.258 6.339 3.078 6.724 6.724v.56h6.444v-.56a7.304 7.304 0 0 1 2.326-4.789 7.307 7.307 0 0 1 9.916 0 7.304 7.304 0 0 1 2.326 4.79v.56h5.884v-1.121c-.038-.784-.415-6.604-5.323-10.086-3.45-2.447-7.105-2.297-8.125-2.241-.644.036-4.931.336-8.405 3.642a12.802 12.802 0 0 0-1.681 1.961 12.863 12.863 0 0 0-4.203-3.922c-4.489-2.57-10.573-2.242-14.568.84-2.322 1.791-3.504 4.176-3.922 5.043a15.262 15.262 0 0 0-1.401 4.763v1.12h6.163v-.56zM112.347 31.7h6.163V15.17h-6.163V31.7zm61.917-16.53h-6.444V31.7h6.444V15.17zm0-15.129h-6.444V13.49h6.444V.04zm20.732 6.164H202V.041h-20.732v6.163h7.284v7.285h6.444V6.204zm0 8.966h-6.444V31.7h6.444V15.17z" fill="#F5F000"/><path d="M82.649 42.626h-2.522v10.927h2.522V42.626zm31.659 10.927v-8.966h-3.082v-1.96h8.405v1.96h-3.082v8.966h-2.241zm38.663 0h-2.521V49.35l-3.642-6.724h2.521l2.241 4.483 2.522-4.483h2.521l-3.642 6.724v4.203zm-104.594.283c-1.497-.086-2.41-.139-3.27-.704-2.083-1.366-1.983-4.49-1.961-5.183.032-.994.112-3.091 1.68-4.482 1.622-1.437 4.326-1.55 6.725-.28l-.84 1.96a4.463 4.463 0 0 0-1.588-.56c-.361-.054-1.311-.196-2.125.21-1.533.764-1.957 3.156-1.47 4.857.13.63.456 1.202.933 1.634 1.043.855 2.804.786 4.46-.187v2.054a3.013 3.013 0 0 1-.444.304 3.664 3.664 0 0 1-2.1.377z" fill="#fff"/></svg>