<svg viewBox="0 0 29 27" xmlns="http://www.w3.org/2000/svg"><path fill-rule="evenodd" clip-rule="evenodd" d="M28.426 14.674l.979.717L0 19.405l28.426-4.73z" fill="#4B4B4D"/><path fill-rule="evenodd" clip-rule="evenodd" d="M29.405 15.391L0 19.406l28.56-3.05.845-.965z" fill="#373435"/><path fill-rule="evenodd" clip-rule="evenodd" d="M8.124 12.077L6.001.46 14.612 0l8.943.481-2.039 11.53.308-.065 2.804 1.531c-3.082 2.382-6.384 4.577-9.82 6.665a96.288 96.288 0 0 1-9.795-6.665l2.673-1.554.438.154z" fill="#373435"/><path fill-rule="evenodd" clip-rule="evenodd" d="M18.447 15.034l2.388-1.38-6.026 3.857v-1.03l2.038-.812v-3.942l1.6 3.307zm1.38-12.855L23.05.965l-.526 3.167c-.013-1.678-1.018-2.205-2.696-1.953zm-.634 8.2C20.678 9.747 21.6 9.056 21.8 7.99l-.966 5.664-1.642-3.275zm.415-4.176c.2-1.36-1.276-.739-2.683-.144v2.575c1.224-.343 2.438-.755 2.683-2.43z" fill="#376CB3"/><path fill-rule="evenodd" clip-rule="evenodd" d="M9.053 14.099l-1.315-1.656c-.566.357-1.129.717-1.695 1.073 2.69 2.268 5.559 4.23 8.523 6.037l-5.513-5.454z" fill="#4B4B4D"/><path fill-rule="evenodd" clip-rule="evenodd" d="M14.743 4.1L6.613.965 8.88 13.88l1.437.629 4.492 2.663L14.744 4.1z" fill="#4B4B4D"/><path fill-rule="evenodd" clip-rule="evenodd" d="M14.743 4.1l-1.855-.717-1.842 2.873L9.662 2.14 6.612.965 14.57.481l8.48.484L14.744 4.1zm-4.427 10.408l-.985-.393c1.62 1.161 3.45 2.294 5.478 3.396v-1.03l-1.973-.766-.02-5.788-1.512 2.411-1.557-3.68.57 5.85z" fill="#00AFEF"/><path fill-rule="evenodd" clip-rule="evenodd" d="M20.894 13.303l-.059.35 2.929-.127-2.065-.965-.805.743z" fill="#4B4B4D"/><path fill-rule="evenodd" clip-rule="evenodd" d="M28.426 14.674l.978.717-5.199.71-.759-.599 4.98-.828z" fill="#00AFEF"/><path fill-rule="evenodd" clip-rule="evenodd" d="M29.405 15.391l-5.2.71-.307.753 4.662-.498.845-.965z" fill="#376CB3"/><path fill-rule="evenodd" clip-rule="evenodd" d="M25.15 23.152h1.287l.654 1.888.605-1.888h1.201l-1.26 3.674c-.143.419-.29.7-.438.844-.327.321-1.067.367-1.505.308v-1.08c.239.082.596.154.766-.373l-1.31-3.373zm-8.27 1.76c0 .314.062.543.183.694a.573.573 0 0 0 .461.222.569.569 0 0 0 .458-.219c.118-.147.18-.383.18-.71 0-.304-.062-.527-.183-.677a.558.558 0 0 0-.448-.223.584.584 0 0 0-.468.226c-.121.15-.183.38-.183.687zm-1.302.003c0-.533.173-.975.523-1.318.35-.347.821-.52 1.414-.52.677 0 1.19.202 1.537.608.278.33.42.733.42 1.21 0 .537-.174.976-.521 1.323-.344.343-.825.513-1.433.513-.543 0-.985-.144-1.322-.428-.412-.354-.618-.815-.618-1.388zm-1.744-3.023h1.22v4.85h-1.22v-4.85z" fill="#111"/><path fill-rule="evenodd" clip-rule="evenodd" d="M6.23 23.11h1.181v.585c.115-.255.232-.432.353-.527.445-.35 1.172-.085 1.407.308l-.926.91c-.065-.046-.562-.37-.706.081-.072.223-.04.455-.04 1.03v1.208H6.23V23.11zm-5.114-1.165H2.43l.893 1.766 1.037-1.766h1.22v4.76H4.34v-2.303l-.982 1.77-.949-1.715-.013 3.482h-1.28v-5.994z" fill="#376CB3"/><path fill-rule="evenodd" clip-rule="evenodd" d="M21.53 22.226v1.024h.667v.985h-.668v1.237c0 .15.013.248.04.297.039.072.11.112.209.112.088 0 .213-.03.37-.085v.948c-.262.06-.51.085-.743.085-.304 0-.53-.042-.674-.127a.774.774 0 0 1-.318-.39c-.068-.173-.104-.458-.104-.847v-1.23h-.445v-.985h.445v-1.027l1.22.003zm2.774 0v1.024h.67v.985h-.67v1.237c0 .15.013.248.039.297.04.072.111.112.213.112.088 0 .209-.03.366-.085v.948c-.262.06-.51.085-.743.085-.304 0-.526-.042-.67-.127a.763.763 0 0 1-.321-.39c-.069-.173-.102-.458-.102-.847v-1.23h-.448v-.985h.448v-1.027l1.218.003zm-13.949 3.073c.023.104.835.546 1.496.36.255-.073.17-.465.01-.622-.135-.134-1.463-.085-1.803-.576-.802-1.155-.15-2.225.73-2.454.745-.196 2.106-.052 2.42.5l-.804.822c-.354-.305-.786-.318-.92-.318-.157 0-.275.036-.356.108a.345.345 0 0 0-.118.265c0 .076.033.141.098.203.062.062.213.121.451.177.652.15 1.185-.043 1.594.697.114.21.173.445.173.703 0 .308-.078.59-.232.848a1.517 1.517 0 0 1-.654.585 2.53 2.53 0 0 1-1.087.269c-.458 0-1.606-.34-1.842-.74l.844-.828z" fill="#111"/></svg>