<svg viewBox="0 0 60 19" xmlns="http://www.w3.org/2000/svg"><path d="M13.906 15.323h3.145v3.733c-.454.33-.935.574-1.448.721A5.622 5.622 0 0 1 14 20a5.55 5.55 0 0 1-1.987-.343 4.558 4.558 0 0 1-1.532-.944 4.168 4.168 0 0 1-.985-1.43 4.61 4.61 0 0 1-.347-1.8c0-.659.111-1.265.33-1.817.218-.552.53-1.03.935-1.43.405-.4.9-.713 1.474-.935.575-.223 1.22-.334 1.933-.334.37 0 .713.03 1.038.089.325.062.624.142.896.25.271.106.52.23.748.373.227.147.428.303.606.472l-.593.905a.585.585 0 0 1-.36.262c-.147.032-.308-.004-.477-.11a6.193 6.193 0 0 0-.459-.255 2.664 2.664 0 0 0-.44-.173 3.151 3.151 0 0 0-.473-.098 4.223 4.223 0 0 0-.557-.032c-.383 0-.73.067-1.038.205a2.15 2.15 0 0 0-.784.575 2.518 2.518 0 0 0-.499.89 3.654 3.654 0 0 0-.173 1.154c0 .468.067.887.196 1.252s.312.673.548.922c.236.25.52.441.85.575.33.129.695.196 1.096.196.245 0 .472-.023.673-.072.2-.049.396-.111.583-.196v-1.34h-.873c-.129 0-.231-.036-.303-.103s-.11-.156-.11-.263v-1.122h-.01zm12.317 4.579h-1.59a.691.691 0 0 1-.433-.125.775.775 0 0 1-.25-.32l-.52-1.542h-3.363l-.517 1.546a.766.766 0 0 1-.24.307.683.683 0 0 1-.428.138h-1.604l3.421-8.841h2.103l3.42 8.837zm-3.256-3.376l-.82-2.42a9.82 9.82 0 0 1-.196-.543 15.967 15.967 0 0 1-.205-.677 9.229 9.229 0 0 1-.196.686 8.1 8.1 0 0 1-.196.548l-.806 2.406h2.418zm13.892-5.461v8.841h-1.808V14.82a7.24 7.24 0 0 1 .04-.802l-2.348 4.544a.736.736 0 0 1-.294.32.832.832 0 0 1-.423.112h-.28a.802.802 0 0 1-.424-.111.737.737 0 0 1-.294-.32l-2.347-4.558c.013.147.022.29.031.428.009.138.013.267.013.383v5.082h-1.808v-8.832h1.563c.09 0 .165 0 .232.004a.705.705 0 0 1 .178.036.418.418 0 0 1 .143.093.731.731 0 0 1 .125.178l2.285 4.486c.08.156.16.312.231.48a8.683 8.683 0 0 1 .214.509c.067-.179.143-.352.214-.521a6.988 6.988 0 0 1 .24-.486l2.268-4.468a.654.654 0 0 1 .124-.178.361.361 0 0 1 .143-.093.553.553 0 0 1 .178-.036c.067-.004.143-.004.232-.004h1.572zm3.773 1.576v2.063h2.78v1.519h-2.78v2.107h3.63v1.576H38.57v-8.841h5.692v1.576h-3.63zm9.777.219a.788.788 0 0 1-.191.218.422.422 0 0 1-.259.071.633.633 0 0 1-.298-.09c-.107-.057-.227-.124-.365-.195a3.01 3.01 0 0 0-.464-.196 1.89 1.89 0 0 0-.596-.09c-.383 0-.673.081-.86.246-.187.165-.28.383-.28.664 0 .178.057.325.169.44.11.116.262.219.445.303.183.085.396.165.633.232.236.071.476.152.726.236.245.09.49.187.726.307.236.116.445.268.632.45.183.183.334.406.446.664a2.4 2.4 0 0 1 .169.944c0 .41-.071.793-.214 1.145a2.698 2.698 0 0 1-.615.931 2.883 2.883 0 0 1-.993.624 3.738 3.738 0 0 1-1.345.227 4.218 4.218 0 0 1-.842-.085 5.21 5.21 0 0 1-.829-.24 5.12 5.12 0 0 1-.752-.366 3.2 3.2 0 0 1-.615-.472l.606-.957a.658.658 0 0 1 .191-.174.523.523 0 0 1 .259-.071c.12 0 .245.04.365.115l.419.254c.156.094.334.178.539.254.2.076.44.116.717.116.374 0 .659-.08.868-.245.205-.165.308-.423.308-.78a.747.747 0 0 0-.17-.503 1.303 1.303 0 0 0-.445-.32 3.806 3.806 0 0 0-.628-.223 30.801 30.801 0 0 1-.722-.214 5.53 5.53 0 0 1-.721-.29 2.266 2.266 0 0 1-.628-.454 2.115 2.115 0 0 1-.446-.704c-.111-.28-.17-.628-.17-1.042a2.497 2.497 0 0 1 .789-1.813c.259-.245.575-.445.954-.592a3.52 3.52 0 0 1 1.291-.223c.272 0 .535.022.793.062a4.08 4.08 0 0 1 1.376.486c.201.116.38.245.54.392l-.513.958z"/><path d="M3.252.093c.61 0 1.131.059 1.559.17.427.111.78.272 1.05.48.273.21.469.46.593.754a2.5 2.5 0 0 1 .187.988c0 .2-.026.388-.084.575a1.731 1.731 0 0 1-.268.517 2.03 2.03 0 0 1-.467.44 2.99 2.99 0 0 1-.686.348c.583.143 1.011.37 1.292.686.28.316.418.726.418 1.225a2.415 2.415 0 0 1-.86 1.897 3.07 3.07 0 0 1-1.042.566 4.573 4.573 0 0 1-1.412.205H0V.094h3.252zM2.049 1.63v2.183h1.069c.227 0 .432-.018.615-.05.182-.03.338-.088.463-.168a.757.757 0 0 0 .29-.334 1.26 1.26 0 0 0 .098-.535c0-.21-.027-.383-.08-.526a.785.785 0 0 0-.241-.338 1.04 1.04 0 0 0-.414-.183 2.91 2.91 0 0 0-.597-.053H2.049v.004zm1.443 5.76c.272 0 .495-.036.664-.103a1.01 1.01 0 0 0 .405-.267.886.886 0 0 0 .2-.37 1.66 1.66 0 0 0 .054-.418c0-.16-.022-.308-.062-.437a.754.754 0 0 0-.219-.33 1.073 1.073 0 0 0-.41-.205 2.36 2.36 0 0 0-.64-.07H2.048v2.2h1.443zM37.826.094v8.841h-1.808V3.853c0-.116.004-.245.009-.383.004-.138.018-.276.031-.419L33.71 7.595a.736.736 0 0 1-.294.32.832.832 0 0 1-.423.112h-.28a.802.802 0 0 1-.423-.112.737.737 0 0 1-.294-.32l-2.348-4.557c.014.147.022.29.031.427.01.138.014.268.014.383v5.083h-1.809V.094h1.564c.089 0 .165 0 .231.004a.7.7 0 0 1 .179.036.494.494 0 0 1 .142.093.735.735 0 0 1 .125.178L32.4 4.891c.08.156.16.312.232.48.075.166.147.335.213.509.067-.178.143-.352.214-.521a7.037 7.037 0 0 1 .24-.486l2.27-4.468a.657.657 0 0 1 .125-.178.361.361 0 0 1 .142-.093.549.549 0 0 1 .178-.036c.067-.005.143-.005.232-.005h1.581zm3.777 8.841h-2.062V.094h2.062v8.841zM51.028.094v8.841H49.96c-.156 0-.29-.026-.396-.075s-.214-.138-.32-.263l-4.17-5.274a5.522 5.522 0 0 1 .031.459c.005.147.01.285.01.414v4.74h-1.81V.093h1.079c.089 0 .164.004.222.013a.594.594 0 0 1 .165.044.54.54 0 0 1 .138.094c.045.04.094.094.152.165l4.205 5.31a6.55 6.55 0 0 1-.045-.495 8.187 8.187 0 0 1-.013-.45V.098h1.821V.093zm5.96 4.262h3.145V8.09c-.454.33-.935.575-1.447.722a5.626 5.626 0 0 1-1.604.222c-.726 0-1.39-.115-1.986-.343s-1.11-.543-1.533-.944a4.168 4.168 0 0 1-.984-1.43 4.612 4.612 0 0 1-.348-1.8c0-.659.112-1.264.33-1.817.218-.552.53-1.029.936-1.43.405-.4.9-.712 1.474-.935C55.546.111 56.19 0 56.904 0c.37 0 .713.031 1.038.089.325.062.624.143.895.25.272.106.521.231.748.374.228.147.428.303.606.472l-.592.908a.584.584 0 0 1-.36.263c-.148.032-.308-.004-.477-.111a6.219 6.219 0 0 0-.46-.254 2.665 2.665 0 0 0-.44-.174 3.147 3.147 0 0 0-.472-.098 4.224 4.224 0 0 0-.557-.03c-.383 0-.73.066-1.038.204a2.15 2.15 0 0 0-.784.575 2.517 2.517 0 0 0-.499.89 3.625 3.625 0 0 0-.174 1.154c0 .468.067.887.196 1.252.13.365.312.672.548.922.236.25.521.44.851.575.33.129.695.196 1.096.196.245 0 .472-.023.672-.072.2-.049.397-.111.584-.196V5.85h-.873a.43.43 0 0 1-.303-.103.35.35 0 0 1-.111-.263V4.356h-.01zm-32.101.597a2.842 2.842 0 0 1-2.798 2.325h-.062c-.2-.004-.414 0-.949-.227-.53-.227-.646-.36-1.033-.664-.223-.173-.544-.507-.86-.788-.312.338-1.02 1.122-1.082 1.185.271.294.935.873 1.202 1.078l-.04-.036a4.376 4.376 0 0 0 3.359.989 4.413 4.413 0 0 0 3.715-3.18l-1.452-.682z" fill="#EC1C24"/><path d="M19.942 2.566a2.84 2.84 0 0 1 3.938-.343l-.677.485 3.122 1.434-.32-3.42-.807.57a4.379 4.379 0 0 0-3.11-1.279 4.398 4.398 0 0 0-3.398 1.604v.004c-.03.04-2.476 3.03-3.483 4.018a2.705 2.705 0 0 1-.17.151c-.008.01-.022.018-.03.027-.072.062-.143.125-.214.183a.318.318 0 0 1-.045.035l-.196.156a.458.458 0 0 0-.049.04c-.044.036-.089.067-.129.098a.48.48 0 0 0-.049.04.366.366 0 0 1-.054.036 5.51 5.51 0 0 0-.169.12.3.3 0 0 1-.049.032l-.16.106a.387.387 0 0 1-.045.027 5.558 5.558 0 0 1-.138.085c-.018.009-.035.022-.053.031a4.089 4.089 0 0 1-.125.071 4.02 4.02 0 0 1-.744.325 2.064 2.064 0 0 1-.69.094A2.85 2.85 0 0 1 9.394 4.24a2.86 2.86 0 0 1 2.646-2.623c.895-.058 1.684.325 2.272.9.098.093.895.953 1.064 1.162a50.76 50.76 0 0 0 1.056-1.212c-.143-.187-.744-.82-.784-.864C14.793.646 13.558.022 12.174.04 9.87.07 7.946 1.91 7.822 4.21a4.428 4.428 0 0 0 4.116 4.658c.084.005.463.018.663-.004.205-.022.388-.067.544-.103.25-.057.503-.191.508-.191.013-.004.026-.013.04-.018.049-.022.102-.044.156-.071a.524.524 0 0 0 .07-.036c.054-.026.112-.053.17-.084.022-.01.04-.023.062-.032a8.65 8.65 0 0 0 .495-.285L14.717 8c.062-.04.125-.08.192-.125.026-.018.058-.04.089-.058.062-.044.129-.089.196-.138.026-.022.053-.04.084-.062l.2-.152a.48.48 0 0 0 .05-.04c.013-.009.022-.018.035-.026.098-.076.196-.16.299-.245a.893.893 0 0 0 .071-.063c.076-.067.156-.133.236-.205.036-.031.067-.062.103-.089l.044-.04.178-.165a23.65 23.65 0 0 0 1.528-1.634c.602-.731 1.252-1.604 1.92-2.392z" fill="#EC1C24"/></svg>