<svg width="48" height="20" fill="none" xmlns="http://www.w3.org/2000/svg"><path fill-rule="evenodd" clip-rule="evenodd" d="M17.12 3.84S14.48 0 8.56 0C3.68 0 0 2.72 0 4.32 0 6.16 3.68 7.12 3.68 10H10c0-1.68-5.52-2.56-5.52-6.16 0-3.28 8.56-3.04 12.64 0z" fill="url(#a)"/><path fill-rule="evenodd" clip-rule="evenodd" d="M17.12 16.16S14.48 20 8.56 20C3.68 20 0 17.28 0 15.68 0 13.84 3.68 12.8 3.68 10H10c0 1.68-5.52 2.56-5.52 6.16 0 3.28 8.56 3.04 12.64 0z" fill="url(#b)"/><path fill-rule="evenodd" clip-rule="evenodd" d="M.08 3.76C0 4 0 4.16 0 4.32 0 6.16 3.68 7.12 3.68 10c0 2.8-3.68 3.84-3.68 5.68 0 .16 0 .32.08.48C-.4 14.4 6 12.88 8.96 11.28c.64-.4 1.04-.8 1.04-1.28s-.4-.88-1.04-1.28C6 7.12-.4 5.6.08 3.76z" fill="url(#c)"/><path d="M14.4 10.72h.64c-.08.32-.24.56-.56.72-.24.16-.56.32-1.04.32s-.88-.16-1.12-.48c-.32-.24-.48-.64-.48-1.2 0-.48.16-.88.48-1.2.24-.24.64-.4 1.12-.4.56 0 .96.16 1.28.4.24.32.4.72.4 1.2v.24H12.8c0 .24.08.4.24.56.08.08.24.16.48.16.16 0 .24 0 .4-.08H14c0-.08 0-.08.08-.08 0-.08 0-.08.08-.08.08-.08.16-.08.24-.08zm-1.6-.96h1.36c0-.16-.08-.32-.16-.4-.16-.16-.32-.16-.48-.16-.24 0-.4 0-.48.16a.44.44 0 0 0-.24.4zm6.24 1.92h-.48c-.08 0-.24-.08-.32-.16-.08 0-.08-.16-.08-.24v-1.6a.44.44 0 0 0-.24-.4.611.611 0 0 0-.4-.16c-.16 0-.32.08-.4.16-.16.08-.16.24-.16.4v2H16V9.84c0-.56.16-.88.48-1.04.32-.24.64-.32 1.04-.32s.72.08 1.04.24c.32.24.48.56.48 1.12v1.84zm3.2-4.08h.48c.16 0 .24.08.32.16.08.08.16.16.16.24v2.32c0 .56-.24.96-.56 1.12-.4.16-.72.32-1.2.32-.24 0-.4-.08-.64-.16-.24 0-.4-.16-.56-.32-.24-.24-.32-.64-.32-1.12 0-.56.08-.96.32-1.2.32-.32.64-.48 1.04-.48.24 0 .4.08.56.16.16.08.32.16.4.32V7.6zm-1.44 2.48c0 .32.08.56.16.72.16.16.32.24.56.24.24 0 .48-.08.56-.24.16-.16.16-.4.16-.72 0-.24 0-.48-.16-.64a.726.726 0 0 0-.56-.24c-.24 0-.4.08-.56.24-.08.16-.16.4-.16.64zm3.76 1.28c-.24-.08-.32-.32-.4-.56-.08-.24-.16-.48-.16-.72s.08-.4.08-.64c.08-.24.16-.4.32-.56.24-.16.56-.32.88-.4.4 0 .72 0 .96.08.4.16.64.32.8.64.16.24.16.56.16.88 0 .24 0 .48-.08.64 0 .16-.08.32-.24.48-.16.24-.48.4-.8.48-.24.08-.56.08-.88 0-.24-.08-.48-.16-.64-.32zm.56-2c-.16.16-.24.4-.24.8.08.32.08.56.24.72.08.08.16.08.32.16h.4c.08 0 .24-.08.32-.24.08-.16.16-.4.16-.72 0-.24 0-.48-.16-.64-.08-.08-.16-.24-.32-.24-.16-.08-.24-.08-.4 0-.16 0-.24.08-.32.16zm3.04 2.32v-1.52c0-.32 0-.56.16-.8.08-.16.24-.32.4-.48.16-.08.32-.16.56-.24.24-.08.48-.08.72-.08h.08v.8h-.24c-.32 0-.48.08-.56.16-.16.16-.24.32-.24.56v1.6h-.88zm3.68.72c0 .16 0 .24-.08.32-.16.08-.24.08-.32.08h-.48V9.92c0-.56.16-.96.56-1.12.32-.24.72-.32 1.12-.32.24 0 .48.08.72.08.24.08.4.24.48.32.32.32.4.72.4 1.2s-.08.88-.4 1.2c-.24.32-.56.48-.96.48-.24 0-.4-.08-.64-.16-.16-.08-.24-.16-.4-.32v1.12zm1.52-2.24c0-.32-.08-.56-.16-.72-.16-.16-.32-.24-.64-.24-.24 0-.4.08-.48.24-.16.16-.24.4-.24.72 0 .24.08.48.24.64.08.16.32.24.56.24.24 0 .4-.08.56-.24.08-.16.16-.4.16-.64zm4-.72c-.08-.16-.32-.24-.48-.24-.32 0-.48.08-.64.24-.08.16-.16.32-.16.64v1.6h-.88v-4h.4c.16 0 .24 0 .32.08.08.08.16.16.16.24v.96c.16-.24.4-.4.64-.4.32-.08.56-.08.88 0 .24.08.4.24.56.48.24.16.32.48.32.8v1.84h-.88v-1.6c0-.16-.08-.24-.08-.32 0-.16-.08-.24-.16-.32zm2.08-.88h.48c.08 0 .24 0 .32.08.08.08.16.24.16.32v2.72h-.96V8.56zm0-.88h.48c.08 0 .24 0 .32.08.08.08.16.16.16.24v.32h-.96v-.64zm4.8 4h-.48c-.16 0-.24-.08-.32-.16-.08 0-.16-.16-.16-.24v-1.6c0-.16 0-.32-.16-.4-.16-.08-.24-.16-.4-.16-.16 0-.32.08-.48.16-.08.08-.16.24-.16.4v2h-.88V9.84c0-.56.08-.88.4-1.04.32-.24.72-.32 1.04-.32.4 0 .8.08 1.12.24.32.24.48.56.48 1.12v1.84zm2.88-1.6c-.08.08-.24.16-.48.16-.24.08-.32.08-.32.08-.16 0-.24.08-.32.16-.08.08-.08.16-.08.24 0 .08 0 .24.08.32.08 0 .24.08.32.08.32 0 .48-.08.64-.24.08-.08.16-.24.16-.48v-.32zm.24 1.44c-.16.08-.4.16-.56.16-.24 0-.4.08-.56.08-.32 0-.64-.08-.88-.24-.24-.16-.32-.4-.32-.8 0-.32.08-.56.32-.64.24-.16.48-.24.8-.32h.16c.08 0 .16 0 .24-.08.4 0 .56-.08.56-.24 0-.16-.08-.24-.16-.24-.16-.08-.32-.08-.4-.08-.16 0-.24 0-.32.08-.08 0-.16.08-.24.16h-.88c.08-.24.16-.48.4-.64.24-.16.56-.24.96-.24.56 0 .88.08 1.12.24.24.16.4.4.4.64v1.04c0 .32-.08.56-.16.8-.16.16-.32.24-.48.32z" fill="#012145"/><defs><linearGradient id="a" x1="7.934" y1="10.324" x2="9.187" y2="-.333" gradientUnits="userSpaceOnUse"><stop stop-color="#0B0A54"/><stop offset=".231" stop-color="#03246D"/><stop offset="1" stop-color="#01ACEE"/></linearGradient><linearGradient id="b" x1="7.934" y1="9.658" x2="9.187" y2="20.314" gradientUnits="userSpaceOnUse"><stop stop-color="#550804"/><stop offset=".231" stop-color="#792307"/><stop offset="1" stop-color="#FEA702"/></linearGradient><linearGradient id="c" x1="-.09" y1="9.731" x2="10.081" y2="10.25" gradientUnits="userSpaceOnUse"><stop stop-color="#6A0804"/><stop offset=".231" stop-color="#A5080F"/><stop offset="1" stop-color="#FD121B"/></linearGradient></defs></svg>