<svg viewBox="0 0 70 19" xmlns="http://www.w3.org/2000/svg"><path d="M7.186.025h3.266l-7.16 14.322H0C2.387 9.547 4.774 4.774 7.186.025zM66.38 11.131h2.89v3.015h-2.89v-3.015z" fill="#37B34A"/><path d="M11.181 0h3.292c-2.387 4.774-4.749 9.548-7.186 14.322H4.02L11.18 0zm.905 7.06c2.236-1.155 4.447-2.336 6.658-3.492v3.316c-1.608.679-3.266 1.282-4.875 2.01 1.458 1.005 3.267 1.332 4.875 2.036v3.467c-2.236-1.13-4.447-2.287-6.684-3.442-.653-.327-1.331-.603-1.91-1.056.554-.98.805-2.361 1.936-2.839zm7.361-3.417h3.518v3.216h-3.518V3.643zm4.573 10.704c0-3.543-.025-7.086 0-10.628 3.065.025 6.13-.026 9.221.025 1.03.075 2.412.125 2.814 1.281.352 1.156.352 2.412.126 3.568-.151.754-.93 1.03-1.608 1.13.703.252 1.482.629 1.683 1.408.226 1.055.075 2.135.1 3.19h-3.19c-.1-.93.402-2.437-.754-2.839-1.734-.351-3.518-.1-5.276-.176v3.015c-1.005.026-2.06.026-3.116.026zm2.914-8.116v2.764c1.86-.025 3.719.075 5.578-.05.126-.05.352-.126.453-.151.502-.804.628-2.638-.73-2.538-1.758-.075-3.542 0-5.3-.025zM39.398 3.97c1.86-.377 3.769-.1 5.678-.176 1.583.075 3.342-.302 4.749.603 1.105.779 1.03 2.286 1.055 3.492-.05 1.558.126 3.116-.15 4.649-.227 1.03-1.282 1.583-2.237 1.708-2.462.377-4.95.176-7.437.126-1.105-.05-2.387-.176-3.166-1.055-.778-.855-.703-2.111-.703-3.191.025-1.257-.05-2.513.05-3.77.076-1.155 1.03-2.135 2.161-2.386zm2.01 2.512c-.729.151-.955 1.005-.955 1.633-.025 1.006-.1 2.01.076 3.016.075.075.25.2.326.276 1.558.352 3.166.1 4.749.176.678-.025 1.734.1 1.96-.754.276-.955.176-1.96.125-2.94 0-.653-.427-1.407-1.13-1.382-1.734-.025-3.443-.025-5.151-.025zm10.578-2.764h4.924c1.81 2.488 3.568 5 5.377 7.488V3.719h3.216V14.32h-5.175c-1.784-2.487-3.619-4.974-5.428-7.437v7.463h-2.89c-.025-3.543-.025-7.086-.025-10.628zM19.447 7.614h3.518v6.734h-3.518V7.613z"/><path d="M19.924 15.854h.88v.603h-.88v-.603zm.05 4.07V17.11h.754v2.814h-.754zm6.583-1.758v1.759h-.753v-1.709c0-.251-.05-.402-.176-.527-.126-.126-.327-.176-.578-.176-.302 0-.553.075-.729.226a.751.751 0 0 0-.276.578v1.608h-.754V17.11h.754v.452a1.07 1.07 0 0 1 .502-.377c.201-.075.453-.125.729-.125.83-.026 1.281.351 1.281 1.105zm4.573 1.331l-.05.453c-.126.025-.252.025-.403.025-.477 0-.829-.1-1.08-.277-.251-.175-.352-.427-.352-.778v-1.357h-.728v-.452h.728v-.855H30v.855h1.005v.452H30v1.332c0 .402.251.628.754.628.15 0 .276-.025.377-.025zm5.175-.879h-2.613c.05.603.452.905 1.156.905.427 0 .804-.1 1.156-.327l.226.402c-.176.1-.377.2-.628.276a2.65 2.65 0 0 1-.78.1c-.577 0-1.054-.125-1.381-.376-.352-.251-.503-.603-.503-1.08 0-.277.076-.553.227-.78.15-.226.351-.401.628-.527.276-.126.578-.176.904-.176.503 0 .88.126 1.181.377.277.251.427.578.427 1.03v.176zm-2.286-.93a.876.876 0 0 0-.302.603h1.935c-.025-.25-.1-.452-.251-.603-.151-.15-.377-.2-.679-.2a.942.942 0 0 0-.703.2zm6.835-.15l-.452.025c-.352.025-.628.1-.779.25a.739.739 0 0 0-.226.554v1.557h-.754V17.11h.729v.503c.2-.327.603-.503 1.206-.553h.251l.025.477zm4.572-.227c.252.201.352.478.352.854v1.76h-.728v-.478a.789.789 0 0 1-.428.377 1.779 1.779 0 0 1-.653.125c-.251 0-.452-.025-.653-.1a1.082 1.082 0 0 1-.478-.327.606.606 0 0 1-.175-.452c0-.201.075-.377.2-.477.151-.126.377-.201.679-.252.327-.05.754-.075 1.306-.075h.176v-.176c0-.226-.05-.377-.176-.477-.125-.1-.301-.151-.577-.151-.427 0-.83.1-1.257.301l-.226-.402c.201-.1.427-.175.704-.25.276-.076.553-.101.804-.101.527.025.88.125 1.13.301zm-.653 2.01c.176-.15.276-.326.276-.553v-.15h-.125c-.402 0-.704.025-.905.05a1.418 1.418 0 0 0-.452.126c-.1.075-.125.15-.125.276 0 .126.075.251.2.327.126.1.302.125.503.125.226 0 .452-.05.628-.2zm4.146.453c-.277-.126-.478-.277-.628-.503a1.329 1.329 0 0 1-.226-.753c0-.277.075-.553.226-.78.15-.225.377-.401.653-.527s.603-.176.98-.176a2.6 2.6 0 0 1 .753.1c.252.076.428.151.578.277l-.226.427a1.957 1.957 0 0 0-1.03-.301c-.352 0-.628.075-.829.25-.201.177-.301.428-.301.755 0 .326.1.552.301.728.201.176.477.252.83.252.35 0 .703-.1 1.03-.302l.225.427a1.677 1.677 0 0 1-.603.251c-.25.076-.502.1-.753.1a2.811 2.811 0 0 1-.98-.225zm6.558-.277l-.05.453c-.126.025-.252.025-.403.025-.477 0-.829-.1-1.055-.277-.226-.175-.352-.427-.352-.778v-1.357h-.728v-.452h.728v-.855h.754v.855h1.005v.452h-1.005v1.332c0 .402.251.628.754.628.126 0 .226-.025.352-.025zm1.96-3.643h.879v.604h-.88v-.603zm.05 4.07v-2.813h.754v2.814h-.754zm5.904-2.813h.754l-1.608 2.814h-.679l-1.583-2.814h.804l1.156 2.16 1.156-2.16zm5.854 1.507h-2.613c.05.603.452.905 1.155.905.428 0 .804-.1 1.156-.327l.226.402c-.176.1-.377.2-.628.276a2.65 2.65 0 0 1-.779.1c-.578 0-1.055-.125-1.382-.376-.351-.251-.502-.603-.502-1.08 0-.277.075-.553.226-.78a1.45 1.45 0 0 1 .628-.527 2.15 2.15 0 0 1 .905-.176c.502 0 .88.126 1.18.377.277.251.428.578.428 1.03v.176zm-2.287-.93a.876.876 0 0 0-.301.603h1.934c-.025-.25-.1-.452-.25-.603-.151-.15-.378-.2-.68-.2-.3-.026-.527.05-.703.2z" fill="#37B34A"/></svg>