<svg viewBox="0 0 73 27" xmlns="http://www.w3.org/2000/svg"><path fill-rule="evenodd" clip-rule="evenodd" d="M8.508 19.636l.54.064c-.077.12-.13.21-.188.295-1.07 1.549-2.147 3.093-3.209 4.648-.17.25-.268.323-.531.088C2.35 22.266.552 19.25.109 15.549c-.483-4.035.646-7.634 3.297-10.726C5.431 2.462 7.996.973 11.025.307c2.443-.538 4.861-.345 7.243.394 1.15.357 2.249.817 3.263 1.48.259.168.26.275.085.511a760.76 760.76 0 0 0-3.875 5.238c-.136.186-.267.323-.516.274-.324-.062-.519.087-.707.352-.843 1.187-1.71 2.357-2.595 3.571-.856-1.207-1.694-2.373-2.509-3.554-.182-.265-.365-.386-.697-.374-.774.028-1.549.009-2.331.009-.01.204.14.31.23.438 1.209 1.73 2.416 3.462 3.643 5.18.184.257.172.411-.01.66-1.242 1.686-2.464 3.387-3.74 5.15z" fill="#009344"/><path fill-rule="evenodd" clip-rule="evenodd" d="M14.28 15.86c.87 1.228 1.712 2.397 2.53 3.583.178.259.366.352.672.345.772-.02 1.546-.007 2.414-.007-.444-.637-.845-1.216-1.25-1.792-.9-1.28-1.796-2.561-2.706-3.833-.165-.232-.176-.39.004-.633 1.146-1.551 2.271-3.117 3.403-4.678.105-.146.205-.296.314-.454-.14-.138-.312-.031-.438-.11-.05-.084.02-.138.06-.194 1.096-1.586 2.199-3.168 3.285-4.76.178-.261.298-.268.525-.065 2.386 2.133 4.084 4.704 4.775 7.843.789 3.588.242 7.005-1.683 10.155-2.087 3.414-5.114 5.588-9.017 6.41-3.575.754-7 .22-10.178-1.66-.326-.192-.36-.334-.136-.654a459.196 459.196 0 0 0 3.599-5.264c.14-.207.28-.358.546-.307.337.065.52-.118.701-.371.839-1.173 1.692-2.335 2.58-3.554z" fill="#929497"/><path fill-rule="evenodd" clip-rule="evenodd" d="M37.653 10.651c.01.813.018 1.626.033 2.438.002.162-.043.333.058.485.104-1.105.79-1.724 1.765-2.09a5.595 5.595 0 0 1 2.006-.35c.355.002.335-.164.23-.383-.134-.283-.382-.416-.687-.46-.746-.105-1.45.034-2.116.366-.226.113-.358.144-.392-.163-.013-.118-.065-.232-.098-.349-.277-.953-.278-.96.658-1.251a6.128 6.128 0 0 1 2.654-.224c1.391.185 2.236 1.116 2.35 2.585.05.634.022 1.274.032 1.912.012.804-.047 1.61.089 2.409.048.284-.04.38-.33.357-.317-.025-.638-.005-.957-.006-.436 0-.966.145-.879-.643-1.586 1.387-3.985.858-4.322-1.054-.166.38.044.807-.155 1.183-.098 1.757-.776 2.778-2.213 3.25-.895.294-1.824.29-2.751.172a5.257 5.257 0 0 1-1.314-.349c-.212-.085-.275-.192-.21-.412.12-.407.242-.815.32-1.23.053-.28.156-.26.357-.154.45.234.935.344 1.437.401 1.397.16 2.131-.505 2.097-1.95-.3.188-.547.424-.867.542-1.323.488-2.873-.058-3.513-1.33-.744-1.478-.66-2.953.223-4.37.838-1.346 3.102-1.962 4.399-.554.195-.658.195-.661.935-.656.377.002.88-.125 1.098.067.257.225.053.74.07 1.128.01.227-.004.456-.007.683zm13.084-.867c.612-.804 1.382-1.198 2.345-1.161 1.255.047 2.11.876 2.274 2.285.184 1.589.049 3.189.083 4.783.004.178-.07.24-.243.238-.593-.005-1.186-.013-1.778.003-.313.008-.242-.2-.242-.367-.003-1.11 0-2.219-.003-3.328a3.571 3.571 0 0 0-.144-1.077c-.138-.437-.418-.661-.868-.655-.413.007-.823.352-.906.77-.05.25-.073.511-.075.768-.007 1.17-.013 2.34.004 3.51.004.297-.072.397-.377.381a14.06 14.06 0 0 0-1.504 0c-.335.02-.401-.109-.396-.415.016-1.124.01-2.249.003-3.373a3.901 3.901 0 0 0-.065-.814c-.123-.555-.445-.84-.877-.828-.473.013-.905.4-.993.913a3.848 3.848 0 0 0-.04.636c-.003 1.155-.01 2.31.005 3.465.004.303-.056.436-.395.417a18.595 18.595 0 0 0-1.55-.003c-.228.006-.32-.047-.32-.299-.002-2.188.047-4.376-.066-6.563-.013-.251.08-.312.31-.303.41.015.823.024 1.232-.002.334-.022.52.053.479.431-.012.114.035.234.065.416.577-.666 1.261-1.013 2.094-.996.847.017 1.527.355 1.948 1.168zm19.867 5.32c-.954.865-2 .965-3.074.477-1.163-.527-1.661-1.545-1.761-2.77-.109-1.331.2-2.525 1.234-3.458.92-.83 2.818-1.113 3.813.08.02-.013.056-.024.059-.04.093-.622.093-.626.73-.62.437.003 1.028-.15 1.272.072.286.26.062.854.058 1.303-.014 1.791-.015 3.583-.065 5.373-.047 1.654-.876 2.761-2.309 3.172-.875.252-1.767.256-2.662.14a4.677 4.677 0 0 1-1.352-.375c-.164-.075-.228-.136-.168-.335.151-.506.27-1.022.408-1.563a4.386 4.386 0 0 0 2.027.558c1.202.029 1.803-.632 1.79-2.013zM60.86 9.658c.616-.707 1.337-1.056 2.228-1.021 1.203.046 2.012.682 2.339 1.85.107.383.16.772.16 1.169-.001 1.306-.007 2.611.007 3.917.003.269-.052.376-.347.362a19.931 19.931 0 0 0-1.64 0c-.268.01-.332-.087-.329-.34.012-1.016.01-2.034.003-3.05a10.042 10.042 0 0 0-.055-.953c-.075-.738-.436-1.105-1.033-1.07-.602.035-1.066.533-1.073 1.195-.012 1.23-.029 2.46.007 3.689.013.455-.12.568-.55.531-.468-.04-.942-.022-1.412-.003-.268.01-.37-.057-.369-.348.01-2.156.03-4.312-.057-6.467-.012-.282.066-.372.35-.353.378.025.763.04 1.138-.003.432-.05.614.103.597.528-.004.1.019.201.036.367zm-4.928 2.659c0-1.063.008-2.125-.006-3.187-.004-.273.061-.376.352-.365.56.023 1.124.018 1.685.002.245-.007.308.082.307.315a894.269 894.269 0 0 0 .001 6.51c0 .253-.062.35-.329.342a26.52 26.52 0 0 0-1.685 0c-.265.008-.333-.085-.33-.34.012-1.092.005-2.185.005-3.277zm14.679-.112c-.013-.257.003-.52-.044-.77-.086-.455-.308-.82-.786-.968-.468-.144-.869-.022-1.2.327-.634.668-.684 2.173-.09 2.879.306.362.7.528 1.176.413.49-.118.78-.427.876-.929.06-.316.056-.633.068-.952zm-35.331.044h.012c0-.258.027-.519-.005-.772-.06-.464-.285-.832-.746-.996-.477-.17-.898-.05-1.244.313-.631.66-.678 2.186-.084 2.879.32.375.725.536 1.219.401.514-.14.785-.496.842-1.008.03-.27.006-.545.006-.817zm6.22.413c-.37-.012-.71.057-1.022.224a.863.863 0 0 0-.418 1.085c.14.355.603.525 1.05.386.56-.176.774-.556.792-1.319.007-.322-.036-.517-.402-.376z"/><path fill-rule="evenodd" clip-rule="evenodd" d="M57.093 8.04c-.71.001-1.198-.466-1.198-1.144.001-.66.525-1.163 1.202-1.151.743.012 1.227.48 1.22 1.178-.008.67-.497 1.116-1.224 1.117z" fill="#009444"/><path fill-rule="evenodd" clip-rule="evenodd" d="M7.515 14.333c0 1.396-.009 2.793.007 4.19.003.286-.086.367-.358.362a40.452 40.452 0 0 0-2.187.006c-.344.013-.436-.093-.435-.433.014-2.565.008-5.13.008-7.696 0-1.12-.2-1.336-1.308-1.354-.246-.004-.352-.054-.347-.325.019-.974-.082-.787.749-.786.742 0 1.487-.062 2.228.063.982.166 1.587.796 1.606 1.784.027 1.396.007 2.793.007 4.19h.03zm12.73-1.53c0-.809-.017-1.508.004-2.205.029-.93.567-1.648 1.445-1.95 1.174-.403 2.36-.357 3.527.005.924.287 1.26.79 1.3 1.797.016.41.012.82.001 1.23-.021.858-.553 1.41-1.167 1.91-.693.565-1.461 1.035-2.097 1.672-.523.524-.75 1.151-.73 1.89.007.28.093.362.368.358 1.049-.012 2.097.014 3.145-.01.39-.01.488.126.484.494-.009.875.008.875-.845.875-1.671 0-3.343-.01-5.014.008-.342.004-.449-.09-.43-.432.028-.546.057-1.099-.003-1.639-.134-1.199.483-1.984 1.35-2.66.61-.474 1.205-.971 1.829-1.427.932-.68.95-1.635.802-2.621-.073-.486-.497-.548-.92-.547-.412 0-.657.187-.735.59-.012.06-.036.124-.024.18.163.726-.283 1.09-.814 1.432-.48.309-.931.66-1.476 1.05z" fill="#FEFEFE"/></svg>