<svg viewBox="0 0 56 20" xmlns="http://www.w3.org/2000/svg"><path fill-rule="evenodd" clip-rule="evenodd" d="M1.996 2.4h51.907L56.698 0v18a1.998 1.998 0 0 1-1.996 2H1.996A1.998 1.998 0 0 1 0 18V4.4a1.998 1.998 0 0 1 1.996-2z" fill="#002E5B"/><path fill-rule="evenodd" clip-rule="evenodd" d="M9.331 13.234a1.446 1.446 0 0 0 .481-.463 1.91 1.91 0 0 0 .26-.667 3.95 3.95 0 0 0 .076-.774 3.666 3.666 0 0 0-.082-.775 2.068 2.068 0 0 0-.273-.679 1.523 1.523 0 0 0-.488-.482 1.362 1.362 0 0 0-.728-.184 1.387 1.387 0 0 0-.742.184 1.48 1.48 0 0 0-.48.476 1.976 1.976 0 0 0-.26.673 4.01 4.01 0 0 0-.077.787c0 .26.028.52.083.774a2 2 0 0 0 .266.667 1.534 1.534 0 0 0 1.964.463zM6.993 8.03v.838h.025a1.98 1.98 0 0 1 .837-.774A2.563 2.563 0 0 1 8.97 7.85a2.835 2.835 0 0 1 1.33.293c.362.186.678.45.925.774.252.336.437.718.545 1.124.12.436.18.887.178 1.34a4.521 4.521 0 0 1-.178 1.269 3.239 3.239 0 0 1-.538 1.079 2.668 2.668 0 0 1-.9.749 2.704 2.704 0 0 1-1.261.28 2.548 2.548 0 0 1-1.122-.248 2.123 2.123 0 0 1-.842-.73h-.025v3.11h-1.8V8.03h1.711zm7.755-2.5v9.064h-1.8V5.528h1.8zm3.017 4.519c.033-.356.151-.61.354-.762.203-.152.482-.229.837-.228.15-.001.3.01.45.031a.999.999 0 0 1 .368.127.7.7 0 0 1 .253.267c.07.144.102.303.095.463a.488.488 0 0 1-.165.426 1.213 1.213 0 0 1-.481.222 4.791 4.791 0 0 1-.697.114c-.262.025-.528.059-.798.102a7.62 7.62 0 0 0-.805.17 2.272 2.272 0 0 0-.71.325 1.643 1.643 0 0 0-.507.577 1.915 1.915 0 0 0-.196.92c-.008.302.05.6.171.877.108.238.27.446.475.609.21.165.452.286.71.356a3.216 3.216 0 0 0 .874.114 4.065 4.065 0 0 0 1.191-.178 2.344 2.344 0 0 0 1.014-.622 2.653 2.653 0 0 0 .127.635h1.825a1.533 1.533 0 0 1-.178-.61 6.851 6.851 0 0 1-.05-.85V9.718c0-.398-.089-.717-.266-.959a1.824 1.824 0 0 0-.685-.564 3.067 3.067 0 0 0-.925-.273 7.353 7.353 0 0 0-1-.07 5.51 5.51 0 0 0-1.084.108 3.09 3.09 0 0 0-.97.36 2.158 2.158 0 0 0-.71.674 2.096 2.096 0 0 0-.317 1.053h1.8zm2.357 2.006a3.517 3.517 0 0 1-.032.406 1.363 1.363 0 0 1-.171.501 1.187 1.187 0 0 1-.431.426c-.195.118-.47.177-.824.177a2.256 2.256 0 0 1-.418-.037 1.012 1.012 0 0 1-.355-.134.679.679 0 0 1-.24-.26.848.848 0 0 1-.09-.406.878.878 0 0 1 .09-.42.813.813 0 0 1 .234-.272 1.184 1.184 0 0 1 .342-.172 3.265 3.265 0 0 1 .4-.101 7.888 7.888 0 0 1 .43-.064 5.815 5.815 0 0 0 .412-.063 2.89 2.89 0 0 0 .367-.095.805.805 0 0 0 .286-.159v.673zm6.665-4.025v1.206H25.47v3.25c0 .305.05.508.152.61.102.1.304.152.609.152.1 0 .198-.004.291-.013a2.484 2.484 0 0 0 .266-.038v1.397a4.306 4.306 0 0 1-.507.05 12.539 12.539 0 0 1-.545.013 5.253 5.253 0 0 1-.792-.057 1.865 1.865 0 0 1-.66-.222 1.174 1.174 0 0 1-.449-.47 1.68 1.68 0 0 1-.165-.8V9.235h-1.09V8.03h1.09V6.061h1.8V8.03h1.318zm.786-1.015V5.528h1.8v1.485h-1.8zm1.8 1.015v6.564h-1.8V8.029h1.8zm5.34 5.205a1.445 1.445 0 0 0 .482-.463 1.916 1.916 0 0 0 .26-.667 3.958 3.958 0 0 0 .076-.774 3.653 3.653 0 0 0-.082-.774 2.067 2.067 0 0 0-.273-.68 1.522 1.522 0 0 0-.488-.482 1.363 1.363 0 0 0-.728-.184 1.387 1.387 0 0 0-.742.184 1.481 1.481 0 0 0-.48.476 1.98 1.98 0 0 0-.26.673 4.016 4.016 0 0 0-.077.787c0 .26.028.52.083.774a2 2 0 0 0 .266.667 1.533 1.533 0 0 0 1.963.463zM32.375 8.03v.838h.026a1.98 1.98 0 0 1 .836-.774 2.564 2.564 0 0 1 1.115-.242 2.835 2.835 0 0 1 1.33.293c.362.186.678.45.926.774.252.336.437.718.545 1.124.119.436.179.887.177 1.34a4.525 4.525 0 0 1-.177 1.269 3.235 3.235 0 0 1-.539 1.079 2.666 2.666 0 0 1-.9.749 2.704 2.704 0 0 1-1.26.28 2.547 2.547 0 0 1-1.122-.248 2.123 2.123 0 0 1-.843-.73h-.025v3.11h-1.8V8.03h1.711zm10.341 6.564v-.914h-.038a2.027 2.027 0 0 1-.886.825 2.618 2.618 0 0 1-1.116.254 3.143 3.143 0 0 1-1.184-.19 1.707 1.707 0 0 1-.73-.54 2.112 2.112 0 0 1-.373-.851 5.293 5.293 0 0 1-.108-1.11v-4.04h1.8v3.707c0 .542.084.946.253 1.212.17.267.47.4.9.4.49 0 .845-.146 1.064-.438.22-.292.33-.772.33-1.44V8.03h1.8v6.563h-1.712zm4.467-1.632a1.054 1.054 0 0 0 .31.343c.133.092.281.158.438.197.167.043.34.064.513.063a1.914 1.914 0 0 0 .4-.044 1.353 1.353 0 0 0 .38-.14.862.862 0 0 0 .284-.254.667.667 0 0 0 .115-.4c0-.27-.18-.473-.539-.609a10.77 10.77 0 0 0-1.502-.406 8.727 8.727 0 0 1-.766-.21 2.613 2.613 0 0 1-.666-.317 1.54 1.54 0 0 1-.469-.495 1.403 1.403 0 0 1-.177-.73 1.978 1.978 0 0 1 .247-1.041 1.824 1.824 0 0 1 .653-.642 2.858 2.858 0 0 1 .912-.33 5.616 5.616 0 0 1 1.04-.095 5.189 5.189 0 0 1 1.032.102c.316.06.618.177.893.343.263.162.487.38.653.641.186.306.292.652.31 1.01h-1.71c-.025-.348-.156-.582-.393-.705a1.796 1.796 0 0 0-.836-.184 3.097 3.097 0 0 0-.33.019 1.099 1.099 0 0 0-.323.082.665.665 0 0 0-.247.184.486.486 0 0 0-.102.324.494.494 0 0 0 .178.394c.137.111.293.195.462.247.214.07.432.127.653.171.245.051.494.106.747.166.26.058.515.13.767.215a2.526 2.526 0 0 1 .665.337 1.628 1.628 0 0 1 .47.52c.124.236.186.501.177.768a1.994 1.994 0 0 1-.938 1.79 2.774 2.774 0 0 1-.957.375 5.572 5.572 0 0 1-1.096.108 5.42 5.42 0 0 1-1.115-.114 2.94 2.94 0 0 1-.97-.381 2.176 2.176 0 0 1-.697-.705 2.207 2.207 0 0 1-.297-1.098h1.71a.988.988 0 0 0 .121.501z" fill="#FDE428"/></svg>