<svg width="76" height="28" xmlns="http://www.w3.org/2000/svg" viewBox="0 0 75 27"><style/><path d="M64.829 5.928h10.847v3.153h-3.784v13.37h-3.28V9.08H64.83V5.928zm-14 0h2.9l6.433 10.09V5.928h3.28v16.523H60.54l-6.433-10.09v10.09h-3.28V5.928zm-10.342 0h8.576v3.153h-7.567v3.532h6.432v3.153h-6.432v3.531h7.567v3.153h-8.576V28h-.631V0h.63v5.928z" fill="url(#grad-netent-two)" fill-rule="evenodd"/><path d="M14.378 5.928h10.847v3.153h-7.441v3.532h6.432v3.153h-6.432v3.531h7.441v3.153H14.378V5.928zM0 5.928h3.027l6.306 10.09V5.928h3.28v16.523H9.712L3.279 12.36v10.09H0V5.927zm26.739 0h10.847v3.153h-3.784v13.37h-3.28V9.08H26.74V5.928z" fill="url(#grad-netent-one)" fill-rule="evenodd"/><defs><linearGradient id="grad-netent-two" x1="57.795" y1="27.997" x2="57.795" gradientUnits="userSpaceOnUse"><stop stop-color="#557D2B"/><stop offset=".31" stop-color="#557D2B"/><stop offset=".6" stop-color="#9AC13A"/><stop offset=".71" stop-color="#76AD1C"/><stop offset="1" stop-color="#76AD1C"/></linearGradient><linearGradient id="grad-netent-one" x1="18.798" y1="22.462" x2="18.798" y2="5.95" gradientUnits="userSpaceOnUse"><stop stop-color="#353536"/><stop offset=".631" stop-color="#B0B2B3"/><stop offset="1" stop-color="#8A8B8D"/></linearGradient></defs></svg>