<svg viewBox="0 0 60 19" xmlns="http://www.w3.org/2000/svg"><path d="M15.452.223h6.615l.163 2.236h-.391c-.155-.92-.175-1.118-.51-1.474-.336-.355-1.002-.333-1.54-.333h-1.691a.405.405 0 0 0-.309.112.476.476 0 0 0-.105.338V3.95h.74c.37.013.724-.144.964-.425.246-.283.378-.719.398-1.308h.402v3.996h-.402c-.02-.662-.154-1.135-.405-1.42a1.286 1.286 0 0 0-1.022-.429h-.67v3.207a.342.342 0 0 0 .125.286.67.67 0 0 0 .415.098h1.342c1.45 0 2.286-.474 2.507-2.325h.42l-.158 2.76h-6.888v-.447h.365a.754.754 0 0 0 .483-.118.432.432 0 0 0 .138-.347V1.101a.432.432 0 0 0-.114-.337.56.56 0 0 0-.384-.112h-.488v-.43z" fill="#fff"/><path d="M21.928 2.924h2.985v.398a1.766 1.766 0 0 0-.684.097.264.264 0 0 0-.15.241.615.615 0 0 0 .059.257l1.449 3.238 1.319-3.13a.491.491 0 0 0 .03-.164c0-.283-.28-.46-.84-.53v-.407h2.263v.398a1.087 1.087 0 0 0-.547.186.975.975 0 0 0-.307.41l-2.012 4.64h-.313L23.033 3.79a.787.787 0 0 0-.284-.358 2.8 2.8 0 0 0-.816-.107l-.005-.4zm8.54-.163a2.442 2.442 0 0 1 1.852.796 2.936 2.936 0 0 1 .749 2.097 3.234 3.234 0 0 1-.336 1.532 2.5 2.5 0 0 1-.957 1 2.581 2.581 0 0 1-1.342.369 2.35 2.35 0 0 1-1.789-.805 2.972 2.972 0 0 1-.738-2.089 2.972 2.972 0 0 1 .736-2.084 2.384 2.384 0 0 1 1.825-.816zm0 .413a1.268 1.268 0 0 0-1.073.593c-.28.395-.42 1.018-.42 1.87 0 .85.138 1.485.417 1.903.23.374.637.601 1.076.601a1.295 1.295 0 0 0 1.105-.602c.281-.4.422-1.056.422-1.965 0-.844-.14-1.454-.418-1.832a1.315 1.315 0 0 0-1.11-.565v-.003z" fill="#fff"/><path d="M34.885.116v7.47a.315.315 0 0 0 .098.251.55.55 0 0 0 .356.116h.351v.448h-2.639v-.448h.325a.55.55 0 0 0 .391-.127.483.483 0 0 0 .132-.362V1.265a.53.53 0 0 0-.157-.425.783.783 0 0 0-.53-.188h-.49v-.43l2.163-.107zm2.777 2.71v3.625c-.024.372.096.74.335 1.026a1.118 1.118 0 0 0 .866.362 1.415 1.415 0 0 0 1.118-.527 1.947 1.947 0 0 0 .447-1.322V3.942a.519.519 0 0 0-.201-.436 1.431 1.431 0 0 0-.774-.172v-.41l1.919-.098v4.488a.626.626 0 0 0 .176.476.682.682 0 0 0 .49.166h.344v.391l-1.838.04-.116-1.073a3.977 3.977 0 0 1-.986.87 1.952 1.952 0 0 1-1.002.29 1.695 1.695 0 0 1-1.241-.496c-.339-.326-.508-.88-.508-1.664V3.942a.537.537 0 0 0-.241-.481 1.514 1.514 0 0 0-.718-.127v-.41l1.93-.098zm5.827-2.13h.391v2.237h3.328v.537H43.88v3.5a1.013 1.013 0 0 0 .224.697.702.702 0 0 0 .548.241.83.83 0 0 0 .67-.366c.187-.245.296-.65.327-1.214h.392c-.024.727-.19 1.267-.497 1.619a1.514 1.514 0 0 1-1.196.527 1.458 1.458 0 0 1-1.06-.37 1.292 1.292 0 0 1-.382-.971V3.46h-.95v-.407a1.53 1.53 0 0 0 .979-.544c.342-.432.527-1.036.554-1.813z" fill="#fff"/><path d="M46.034 2.924l2.176-.065v4.696a.349.349 0 0 0 .094.275.496.496 0 0 0 .338.117h.393v.447h-2.659v-.447h.36a.499.499 0 0 0 .376-.126.51.51 0 0 0 .12-.364v-3.33a.624.624 0 0 0-.185-.492.812.812 0 0 0-.554-.165h-.448l-.01-.546zM47.55.34a.633.633 0 0 1 .461.2c.128.12.2.29.199.466a.624.624 0 0 1-.192.448.628.628 0 0 1-.461.192.635.635 0 0 1-.465-.195.626.626 0 0 1-.195-.447.635.635 0 0 1 .2-.46.626.626 0 0 1 .453-.202V.34zm4.231 2.422a2.442 2.442 0 0 1 1.852.796 2.936 2.936 0 0 1 .751 2.097 3.233 3.233 0 0 1-.335 1.532 2.502 2.502 0 0 1-.957 1 2.583 2.583 0 0 1-1.342.369 2.348 2.348 0 0 1-1.79-.805 2.97 2.97 0 0 1-.737-2.089 2.972 2.972 0 0 1 .731-2.084 2.384 2.384 0 0 1 1.827-.816zm0 .413a1.268 1.268 0 0 0-1.073.593c-.28.395-.42 1.018-.42 1.87 0 .85.139 1.485.418 1.903.23.374.636.601 1.075.601.448.005.867-.223 1.107-.602.282-.4.423-1.056.423-1.965 0-.844-.14-1.454-.418-1.832a1.315 1.315 0 0 0-1.112-.565v-.003z" fill="#fff"/><path d="M54.27 2.924l1.816-.112c.081.396.136.798.163 1.201.213-.364.51-.67.868-.894a2.16 2.16 0 0 1 1.118-.298 1.789 1.789 0 0 1 .91.224 1.5 1.5 0 0 1 .59.67 2.353 2.353 0 0 1 .224 1.034v2.66a.559.559 0 0 0 .134.423.648.648 0 0 0 .447.126h.16v.447h-2.423v-.447h.047a.879.879 0 0 0 .537-.123.447.447 0 0 0 .152-.37v-2.34a2.156 2.156 0 0 0-.224-1.132 1.09 1.09 0 0 0-.99-.523 1.37 1.37 0 0 0-1.1.53 2.098 2.098 0 0 0-.448 1.384v2.024a.552.552 0 0 0 .137.422.67.67 0 0 0 .447.126h.154v.447h-2.44v-.447h.153a.69.69 0 0 0 .433-.117.355.355 0 0 0 .15-.29V4.024a.7.7 0 0 0-.19-.53.76.76 0 0 0-.545-.18h-.28v-.39zm-29.449 7.268l.479-.863h.391l.224 3.443h-.38c-.299-.99-.642-1.706-1.031-2.149a2.28 2.28 0 0 0-1.738-.845 2.252 2.252 0 0 0-1.342.427 2.656 2.656 0 0 0-.912 1.277c-.21.568-.317 1.14-.317 2.171a5.533 5.533 0 0 0 .317 2.118 2.6 2.6 0 0 0 .877 1.246 2.199 2.199 0 0 0 1.312.398 2.098 2.098 0 0 0 1.577-.573 2.029 2.029 0 0 0 .557-1.476v-.811a.342.342 0 0 0-.148-.298.865.865 0 0 0-.487-.105h-.73v-.41h3.364v.41h-.264a.747.747 0 0 0-.467.114.403.403 0 0 0-.14.329v3.294h-.382a27.01 27.01 0 0 0-.447-1.476 3.082 3.082 0 0 1-1.042 1.076 2.626 2.626 0 0 1-1.368.36 3.853 3.853 0 0 1-2.013-.56 3.955 3.955 0 0 1-1.48-1.576 3.969 3.969 0 0 1-.53-2.073 3.983 3.983 0 0 1 .54-2.084 4.261 4.261 0 0 1 1.486-1.621 3.51 3.51 0 0 1 1.905-.602 3.007 3.007 0 0 1 1.049.184c.412.166.796.394 1.14.675zm7.828 7.061l.091.161c0 .309-.37.275-.717.275-.264 0-.794-.013-.978-.152-.183-.138-.257-.297-.393-.66a3.507 3.507 0 0 1-.986.788 2.384 2.384 0 0 1-1.009.194 1.964 1.964 0 0 1-1.279-.362 1.152 1.152 0 0 1-.447-.928c0-.568.334-1.04 1.002-1.415a7.082 7.082 0 0 1 2.663-.75v-.836a.975.975 0 0 0-.356-.758 1.313 1.313 0 0 0-.894-.315 1.73 1.73 0 0 0-.874.21c-.175.106-.262.209-.262.309a.564.564 0 0 0 .14.272.741.741 0 0 1 .17.416.572.572 0 0 1-.17.43.604.604 0 0 1-.447.165.657.657 0 0 1-.487-.197.693.693 0 0 1-.195-.507c0-.386.217-.738.651-1.056a2.813 2.813 0 0 1 1.706-.478c.649 0 1.145.14 1.487.42.324.245.515.627.515 1.033v2.986a.895.895 0 0 0 .13.514.477.477 0 0 0 .306.224 4.341 4.341 0 0 0 .633.017zm-2.033-2.47c-.988.137-1.688.36-2.1.67a1.172 1.172 0 0 0-.46.993.979.979 0 0 0 .239.702.816.816 0 0 0 .624.253 1.605 1.605 0 0 0 1.194-.521 1.809 1.809 0 0 0 .505-1.31l-.002-.788z" fill="#fff"/><path d="M32.447 12.22l1.566-.098c.08.382.137.77.167 1.16a3.013 3.013 0 0 1 .895-.894 1.887 1.887 0 0 1 .977-.262 1.449 1.449 0 0 1 .935.295c.281.258.478.595.566.966a2.96 2.96 0 0 1 .867-.948 1.863 1.863 0 0 1 1.042-.313 1.38 1.38 0 0 1 1.118.447c.332.43.502.963.479 1.505v2.706a.385.385 0 0 0 .123.333.751.751 0 0 0 .485.134h.273v.448h-2.75v-.448h.274a.782.782 0 0 0 .49-.116.431.431 0 0 0 .141-.351v-2.717a1.364 1.364 0 0 0-.29-.941.996.996 0 0 0-.781-.334 1.184 1.184 0 0 0-.671.195 1.306 1.306 0 0 0-.465.559 2.124 2.124 0 0 0-.25.883v2.355a.448.448 0 0 0 .127.353.586.586 0 0 0 .398.114h.373v.448h-2.79v-.448h.315a.707.707 0 0 0 .447-.116.367.367 0 0 0 .148-.297V14.31c0-.534-.095-.92-.284-1.16a.919.919 0 0 0-.763-.363 1.14 1.14 0 0 0-.948.425 2.17 2.17 0 0 0-.472 1.389v2.182a.432.432 0 0 0 .112.344.794.794 0 0 0 .49.123h.28v.448h-2.762v-.448h.413a.507.507 0 0 0 .36-.116.389.389 0 0 0 .126-.297V13.26a.588.588 0 0 0-.152-.447 1.045 1.045 0 0 0-.609-.188v-.405z" fill="#fff"/><path d="M42.056 12.22l1.95-.065v4.696a.349.349 0 0 0 .094.275.5.5 0 0 0 .34.117h.619v.447H41.72v-.447h.803a.496.496 0 0 0 .376-.126.505.505 0 0 0 .118-.364v-3.435a.626.626 0 0 0-.185-.494.81.81 0 0 0-.555-.166h-.224l.003-.438zm1.29-2.585a.63.63 0 0 1 .46.2c.129.12.2.29.2.467a.624.624 0 0 1-.193.447.653.653 0 1 1-.467-1.118v.004z" fill="#fff"/><path d="M44.898 12.22l1.816-.112a9.008 9.008 0 0 1 .163 1.201 2.6 2.6 0 0 1 .868-.894 2.163 2.163 0 0 1 1.13-.298c.317-.008.631.07.91.224a1.495 1.495 0 0 1 .59.67c.151.324.228.677.223 1.034v2.66a.559.559 0 0 0 .135.423.649.649 0 0 0 .447.126h.159v.447h-2.433v-.447h.047a.878.878 0 0 0 .536-.123.447.447 0 0 0 .154-.36v-2.35a2.165 2.165 0 0 0-.223-1.134 1.091 1.091 0 0 0-.993-.526 1.373 1.373 0 0 0-1.1.53 2.1 2.1 0 0 0-.447 1.384V16.7a.552.552 0 0 0 .136.423.67.67 0 0 0 .447.125h.154v.447h-2.67v-.447h.38a.693.693 0 0 0 .434-.116.355.355 0 0 0 .15-.293V13.31a.698.698 0 0 0-.19-.53.759.759 0 0 0-.545-.18h-.28l.002-.381zm10.58.302c.388-.394 1.475-.968 1.822-.982a.731.731 0 0 1 .557.155c.127.125-.103.404-.103.583a.508.508 0 0 1-.13.358.403.403 0 0 1-.306.143c-.222 0-.372-.136-.448-.409-.03-.116-.084-.174-.158-.174a2.947 2.947 0 0 0-.96.559c.141.182.257.383.345.597.063.175.095.36.094.545a1.645 1.645 0 0 1-.246.895 2.064 2.064 0 0 1-.814.684 2.349 2.349 0 0 1-1.09.297h-.634a1.913 1.913 0 0 0-.895.141.48.48 0 0 0-.223.428.398.398 0 0 0 .18.35c.213.1.448.143.683.124l1.44-.03c.727 0 1.249.122 1.565.365.316.233.496.607.48 1a1.503 1.503 0 0 1-.547 1.178c-.51.447-1.27.67-2.283.67-.836 0-1.457-.153-1.86-.46a1.02 1.02 0 0 1-.48-.811.85.85 0 0 1 .314-.615 2.094 2.094 0 0 1 1.03-.425 1.938 1.938 0 0 1-.87-.412.895.895 0 0 1-.29-.67.974.974 0 0 1 .228-.656 1.845 1.845 0 0 1 .82-.476 2.035 2.035 0 0 1-.746-.671 1.605 1.605 0 0 1-.25-.894 1.684 1.684 0 0 1 .624-1.318 2.4 2.4 0 0 1 1.62-.536c.267-.001.533.038.788.116.263.08.514.198.742.351zm-1.19 5.163c-.716 0-1.227.1-1.532.298a.854.854 0 0 0-.459.718.711.711 0 0 0 .345.624 2.323 2.323 0 0 0 1.295.304c.669 0 1.173-.111 1.511-.334.339-.222.509-.467.51-.735a.725.725 0 0 0-.159-.447.978.978 0 0 0-.503-.316 3.58 3.58 0 0 0-1.008-.105v-.007zm-.345-5.263a1.096 1.096 0 0 0-.859.382 1.566 1.566 0 0 0-.337 1.071c-.025.408.094.812.337 1.14a1.13 1.13 0 0 0 1.725.012 1.693 1.693 0 0 0 .335-1.118 1.601 1.601 0 0 0-.342-1.08 1.089 1.089 0 0 0-.859-.4v-.007z" fill="#fff"/><path d="M57.508 11.58a.67.67 0 0 1 .66.671.622.622 0 0 1-.192.448.653.653 0 1 1-.466-1.118h-.002z" fill="#fff"/><path d="M11.92 16.807h-.218v-.356h.099a.527.527 0 0 1 .223.025.163.163 0 0 1 .092.154.179.179 0 0 1-.203.179l.006-.002zm.415-.173a.349.349 0 0 0-.13-.286.512.512 0 0 0-.357-.083h-.36v1.154h.223v-.425h.193l.223.43h.246l-.257-.47a.317.317 0 0 0 .224-.317l-.005-.003zm-.443 1.12a.894.894 0 1 1 0-1.788.894.894 0 0 1 0 1.789zm0-2.012a1.118 1.118 0 1 0 0 2.236 1.118 1.118 0 0 0 0-2.236z" fill="#A3A3A3"/><path d="M.02 1.073c5.367-2.872 12.322.156 12.845 7.466C2.892 9.322 1.691 4.832.02 1.073z" fill="#79DDFF"/><path d="M.02 16.746c5.367 2.871 12.322-.156 12.845-7.466C2.892 8.496 1.691 12.984.02 16.745z" fill="#79DDFF"/><path d="M11.002 3.353C8.472-.012 3.837-.969 0 1.08 1.496 4.447 2.616 8.4 9.998 8.624a8.575 8.575 0 0 0 1.076-4.17 8.685 8.685 0 0 0-.072-1.1zm-9.193 9.69c.224.016.43.027.649.027a8.607 8.607 0 0 0 7.176-3.85c-4.437.217-6.523 1.83-7.825 3.822z" fill="#6CBADA"/></svg>