<svg viewBox="0 0 83 19" xmlns="http://www.w3.org/2000/svg"><path d="M.014 4.295A4.142 4.142 0 0 1 4.442.21h.072a4.142 4.142 0 0 1 4.442 4.085 1.264 1.264 0 1 1-2.528 0c0-1.072-.957-1.571-1.914-1.571h-.072c-.914 0-1.914.457-1.914 1.57a1.271 1.271 0 0 1-1.257 1.258A1.243 1.243 0 0 1 .014 4.295zm8.942 9.098a1.264 1.264 0 1 0-2.528 0c0 1.072-.957 1.572-1.914 1.572h-.072c-.914 0-1.914-.457-1.914-1.572a1.264 1.264 0 0 0-.78-1.167A1.265 1.265 0 0 0 .37 12.5a1.264 1.264 0 0 0-.37.893 4.142 4.142 0 0 0 4.428 4.086h.071a8.707 8.707 0 0 0 1-.072l1.114 2.186a1.114 1.114 0 0 0 1.529.185c.614-.3.957-.914.728-1.342L7.756 16.25a3.942 3.942 0 0 0 1.2-2.828v-.029zm-6.428-1.228V5.58a1.728 1.728 0 0 1-1.257.529A1.671 1.671 0 0 1 .014 5.58v6.657a1.728 1.728 0 0 1 1.257-.529 1.642 1.642 0 0 1 1.272.486l-.015-.029zM6.385 5.51v6.656a1.756 1.756 0 0 1 1.264-.537 1.756 1.756 0 0 1 1.264.537V5.58a1.728 1.728 0 0 1-1.257.529 1.771 1.771 0 0 1-1.257-.557l-.014-.043zm22.168 0a1.271 1.271 0 0 0 1.257-1.257c0-1.071.957-1.571 1.914-1.571h.071c.914 0 1.914.457 1.914 1.57a1.265 1.265 0 0 0 .355.901 1.264 1.264 0 0 0 2.07-.375 1.264 1.264 0 0 0 .104-.482 4.141 4.141 0 0 0-2.769-3.86A4.142 4.142 0 0 0 31.81.21h-.07a4.142 4.142 0 0 0-4.429 4.085 1.242 1.242 0 0 0 .354.911 1.243 1.243 0 0 0 .903.374l-.014-.071zm6.385 6.57a1.271 1.271 0 0 0-1.257 1.257c0 1.072-.957 1.571-1.914 1.571h-.072c-.914 0-1.914-.457-1.914-1.57a1.264 1.264 0 0 0-1.264-1.265 1.264 1.264 0 0 0-1.264 1.264 4.142 4.142 0 0 0 2.768 3.86 4.14 4.14 0 0 0 1.66.225h.071a4.141 4.141 0 0 0 1.658-.199 4.14 4.14 0 0 0 2.44-2.176 4.142 4.142 0 0 0 .388-1.624 1.243 1.243 0 0 0-1.286-1.257l-.014-.086zm-5.128 0v-6.5a1.73 1.73 0 0 1-1.257.529 1.671 1.671 0 0 1-1.257-.529v6.657a1.728 1.728 0 0 1 1.257-.529 1.7 1.7 0 0 1 1.285.486l-.028-.115zm19.711-6.5a1.271 1.271 0 0 0 1.257-1.257c0-1.07.957-1.57 1.914-1.57h.072c.914 0 1.914.456 1.914 1.57a1.264 1.264 0 0 0 2.158.894 1.264 1.264 0 0 0 .37-.894A4.143 4.143 0 0 0 52.778.238h-.114a4.142 4.142 0 0 0-4.442 4.057 1.257 1.257 0 0 0 1.3 1.285zm.957.5a1.657 1.657 0 0 1-1.428.157l5.014 6.842a1.758 1.758 0 0 1 .77-1.228 1.6 1.6 0 0 1 1.43-.157l-5.014-6.77a1.642 1.642 0 0 1-.729 1.156h-.043zm5.428 6.085a1.271 1.271 0 0 0-1.257 1.257c0 1.071-.957 1.571-1.914 1.571h-.071c-.914 0-1.914-.457-1.914-1.571a1.264 1.264 0 0 0-1.264-1.264 1.264 1.264 0 0 0-1.264 1.264 4.143 4.143 0 0 0 1.333 2.997 4.143 4.143 0 0 0 3.095 1.088h.07a4.143 4.143 0 0 0 4.072-2.449 4.143 4.143 0 0 0 .357-1.636 1.271 1.271 0 0 0-1.243-1.257zm-37.137 0a1.271 1.271 0 0 0-1.257 1.257c0 1.071-.957 1.571-1.914 1.571h-.072c-.914 0-1.914-.457-1.914-1.571a1.264 1.264 0 0 0-2.528 0 4.142 4.142 0 0 0 4.428 4.085h.071a4.142 4.142 0 0 0 4.428-4.085 1.271 1.271 0 0 0-1.185-1.257h-.057zm0-11.927a1.271 1.271 0 0 0-1.257 1.257v10.627a1.757 1.757 0 0 1 1.95-.397c.218.092.414.227.578.397V1.538a1.286 1.286 0 0 0-1.214-1.3h-.057zM13.64 12.122V1.538a1.264 1.264 0 0 0-2.528 0v10.627a1.728 1.728 0 0 1 1.257-.528 1.786 1.786 0 0 1 1.328.485h-.057zM24.925 6.28V1.538a1.264 1.264 0 0 0-2.158-.894 1.264 1.264 0 0 0-.37.894V16.25a1.272 1.272 0 0 0 1.257 1.257 1.272 1.272 0 0 0 1.257-1.257v-4.742l.014-5.228zm47.064 0V1.538a1.264 1.264 0 0 0-2.157-.894 1.264 1.264 0 0 0-.37.894V16.25a1.271 1.271 0 0 0 1.256 1.257 1.271 1.271 0 0 0 1.257-1.257v-4.742l.015-5.228zm4.586 1.871l-.443-1-.614-1.257-1.429-2.856v13.155a1.272 1.272 0 0 0 1.257 1.257 1.271 1.271 0 0 0 1.257-1.257V8.151h-.028zm4.742 2.757l-2.514-5.185-.614-1.228-1.714-3.443A1.278 1.278 0 0 0 74.768.46a1.278 1.278 0 0 0-.593 1.707l1.685 3.442.615 1.257 2.613 5.328 2.257 4.542a1.428 1.428 0 0 0 1.757.685 1.343 1.343 0 0 0 .529-1.8l-2.314-4.713zm2.528.614V1.524A1.264 1.264 0 0 0 81.687.63a1.264 1.264 0 0 0-.37.894v8.213l.457.957 2.071 4.17v-3.356.014zM40.108 7.237l-2.142 3.128a1.143 1.143 0 0 0 .457 1.571 1.214 1.214 0 0 0 1.643-.114l2.27-3.242 2.472-3.528.614-.843 1.643-2.371a1.142 1.142 0 0 0 .102-.882 1.143 1.143 0 0 0-.56-.69 1.214 1.214 0 0 0-1.642.115l-1.671 2.371-.615.886-2.528 3.6h-.043zm5.714 6l-1.657-3.229-.386-.771-.571-1.114-.457.685-1.143 1.686.343.643 1.685 3.328 1.429 2.856a1.114 1.114 0 0 0 1.528.186c.614-.3.957-.914.729-1.343l-1.5-2.928zm-5.47-7.143V1.439a1.264 1.264 0 0 0-2.529 0v8.256l1.914-2.757.614-.842zm-2.186 6.314l-.343-.271v4.127a1.271 1.271 0 0 0 1.257 1.257 1.271 1.271 0 0 0 1.257-1.257V12.28a1.428 1.428 0 0 1-1.114.457 2.271 2.271 0 0 1-1.057-.385v.057zM64.505.124h-4.428a1.171 1.171 0 0 0-1.07.825 1.17 1.17 0 0 0-.044.475 1.17 1.17 0 0 0 .275.892 1.171 1.171 0 0 0 .839.408h4.157c.885.071 1.3 1.3 1.3 2.37v.072c0 1.071-.386 2.443-1.3 2.528h-4.157a1.171 1.171 0 0 0-1.07.826 1.17 1.17 0 0 0-.044.474 1.17 1.17 0 0 0 .275.892 1.17 1.17 0 0 0 .839.408h4.47c1.872-.272 3.215-2.328 3.215-5.128v-.157c-.1-2.714-1.386-4.628-3.257-4.885zM61.49 10.822h-1.428a1.428 1.428 0 0 1-1.114-.457v5.842a1.271 1.271 0 0 0 1.257 1.257 1.27 1.27 0 0 0 .884-.372 1.27 1.27 0 0 0 .373-.885v-5.385h.028zm0-3.628V3.21h-1.428a1.428 1.428 0 0 1-1.114-.457v4.9a1.556 1.556 0 0 1 1.114-.458h1.428z" fill="#F26922"/></svg>