<svg width="81" height="20" fill="none" xmlns="http://www.w3.org/2000/svg"><path d="M10.067 0C15.57 0 20 4.43 20 10.067A9.912 9.912 0 0 1 10.067 20c-3.624 0-6.577-1.745-8.456-4.564a65.427 65.427 0 0 0 4.832-7.92s-.403 8.86 2.685 8.994c2.416.537 5.503-6.98 5.503-6.98-.269 0 2.282 4.43 2.953 4.027.268-.134-.403-1.074-.94-2.282-.537-1.208-.805-2.819-.94-3.49-.134-1.074 0-1.476-.805-1.61-.67-.135-.94.402-1.342 1.342-1.208 2.684-3.49 7.382-4.295 7.248-1.208-.268-.94-10.335-.94-11.14.134-.806 0-1.209-.537-1.477-.94 0-1.342 1.073-1.61 1.745C4.16 7.383 2.281 10.604.402 13.02A11.18 11.18 0 0 1 0 10.067C0 4.43 4.43 0 10.067 0z" fill="url(#a)"/><path d="M76.778 10.604c0 .805.135 1.342.403 1.61.269.27.537.538 1.074.538.403 0 .671-.269.94-.537.402-.269.537-.806.537-1.477 0-.67-.135-1.208-.537-1.476-.269-.403-.537-.537-1.074-.537a1.219 1.219 0 0 0-.94.403 2.706 2.706 0 0 0-.403 1.476zm-.805 3.356h.94a.789.789 0 0 0 .268.67 1.78 1.78 0 0 0 1.88 0c.268-.133.402-.402.536-.67v-1.208a2.155 2.155 0 0 1-1.476.67c-.806 0-1.343-.268-1.745-.805-.403-.537-.537-1.208-.537-1.879 0-.537 0-.94.268-1.476.135-.403.403-.671.806-.94.268-.268.67-.403 1.208-.403a1.913 1.913 0 0 1 1.61.806v-.671h.806v4.698a5.258 5.258 0 0 1-.269 1.745 1.21 1.21 0 0 1-.805.805c-.403.268-.805.268-1.342.268-.671 0-1.208-.134-1.61-.402-.404-.269-.538-.671-.538-1.208zm-5.637-.537v-5.37h.805v.806c.403-.671.94-.94 1.745-.94.268 0 .671.135.94.135.24.105.43.297.536.537.168.183.264.422.269.67.134.135.134.403.134.94v3.222h-.94V10.2c0-.402 0-.67-.134-.805 0-.268-.134-.403-.402-.537-.135-.134-.403-.134-.537-.134a1.524 1.524 0 0 0-1.074.403c-.269.268-.403.67-.403 1.342v2.953h-.94zm-2.282 0v-5.37h.94v5.37h-.94zm0-6.443v-.94h.94v.94h-.94zm-8.725 6.443v-5.37h.94v.806c.134-.268.268-.537.67-.671a1.779 1.779 0 0 1 1.88 0c.268.134.402.403.537.671.402-.671.94-.94 1.61-.94.537 0 1.074.135 1.343.403.268.403.402.806.402 1.477v3.624h-.94v-3.356c0-.403 0-.671-.133-.805 0-.134-.135-.269-.269-.403s-.403-.134-.537-.134a1.219 1.219 0 0 0-.94.403c-.268.268-.402.67-.402 1.208v3.087h-.94v-3.49c0-.403 0-.671-.134-.94-.268-.134-.403-.268-.805-.268-.25.005-.488.1-.671.268-.24.106-.432.297-.537.537 0 .269-.134.671-.134 1.074v2.819h-.94zm-10.604-2.819c0 .805.134 1.342.402 1.61.269.27.672.538 1.074.538.403 0 .806-.269 1.074-.537.269-.269.403-.806.403-1.477 0-.67-.134-1.208-.403-1.476-.402-.403-.671-.537-1.074-.537a1.524 1.524 0 0 0-1.074.403 2.706 2.706 0 0 0-.402 1.476zm-.806 3.356h.94a.789.789 0 0 0 .268.67c.286.17.61.261.94.27.403 0 .806-.135.94-.27.268-.133.402-.402.537-.67v-1.208c-.403.402-.806.67-1.477.67s-1.342-.268-1.745-.805-.537-1.208-.537-1.879c0-.537.135-.94.269-1.476.134-.403.402-.671.805-.94a2.165 2.165 0 0 1 1.208-.403 1.913 1.913 0 0 1 1.61.806v-.671h.806v4.698c0 .805 0 1.342-.268 1.745a1.211 1.211 0 0 1-.806.805c-.268.268-.805.268-1.342.268-.671 0-1.208-.134-1.476-.402a1.41 1.41 0 0 1-.672-1.208zm-4.966-3.222c0 .671.134 1.208.403 1.611.268.268.67.403 1.208.403.397.01.782-.134 1.074-.403.337-.47.524-1.032.537-1.61a2.146 2.146 0 0 0-.537-1.477 1.222 1.222 0 0 0-1.074-.537c-.537 0-.94.134-1.208.537-.269.268-.403.805-.403 1.476zm-.94 0c0-.94.269-1.745.806-2.147.537-.403 1.074-.672 1.745-.672.67 0 1.342.269 1.745.806.537.403.805 1.074.805 2.013 0 .671-.134 1.208-.403 1.611-.134.403-.536.671-.94.94-.402.134-.804.268-1.207.268-.806 0-1.343-.268-1.88-.671-.402-.537-.67-1.208-.67-2.148zm-3.087 2.685v-5.37h.806v.806c.134-.403.402-.671.537-.671.147-.142.334-.235.536-.269.331.008.655.1.94.269l-.268.94c-.269-.135-.403-.269-.672-.269a1.018 1.018 0 0 0-.536.269c-.135 0-.269.268-.403.402 0 .403-.134.671-.134 1.074v2.819h-.806zm-1.745-2.014l.94.135c-.134.67-.403 1.208-.806 1.476-.402.403-.94.537-1.476.537a2.552 2.552 0 0 1-1.745-.671c-.403-.537-.671-1.208-.671-2.148a4.825 4.825 0 0 1 .268-1.476 1.622 1.622 0 0 1 .94-.94 2.165 2.165 0 0 1 1.208-.403c.671 0 1.074.135 1.477.403.402.403.536.806.67 1.342l-.805.135c-.134-.403-.268-.671-.537-.806-.134-.268-.402-.268-.805-.268a1.524 1.524 0 0 0-1.074.403c-.268.402-.403.94-.403 1.61 0 .671.135 1.208.403 1.611.292.269.677.413 1.074.403.403 0 .671 0 .94-.269.268-.268.402-.537.402-1.074zm-5.772 2.014v-5.37h.806v5.37h-.806zm0-6.443v-.94h.806v.94h-.806zm-8.59 6.443V6.04h1.476l1.745 5.235c.089.374.224.734.403 1.074 0-.268.134-.671.403-1.208l1.745-5.1h1.342v7.382h-.94V7.248l-2.281 6.175h-.806l-2.148-6.309v6.309h-.94zm31.543-2.819c0 .805.135 1.342.403 1.61.269.27.671.538 1.074.538s.671-.269 1.074-.537c.268-.269.402-.806.402-1.477 0-.67-.134-1.208-.536-1.476-.269-.403-.537-.537-.94-.537a1.524 1.524 0 0 0-1.074.403 2.706 2.706 0 0 0-.403 1.476zm2.953 2.148c-.348.31-.76.538-1.208.67h-.402c-.671 0-1.343-.268-1.745-.805-.403-.537-.537-1.208-.537-1.879 0-.537 0-.94.268-1.476.134-.403.403-.671.806-.94.268-.268.805-.403 1.208-.403a1.914 1.914 0 0 1 1.61.806v-.671h.806v4.698c.134.268.134.537.268.67h-.94c-.134-.133-.134-.402-.134-.67z" fill="url(#b)"/><defs><linearGradient id="a" x1="15.393" y1="1.634" x2="4.626" y2="18.382" gradientUnits="userSpaceOnUse"><stop stop-color="#31B7E6"/><stop offset="1" stop-color="#21E31B"/></linearGradient><linearGradient id="b" x1="9835" y1="668.389" x2="34654.1" y2="668.389" gradientUnits="userSpaceOnUse"><stop stop-color="#31B7E6"/><stop offset="1" stop-color="#21E31B"/></linearGradient></defs></svg>