<svg viewBox="0 0 40 42" xmlns="http://www.w3.org/2000/svg"><path d="M3.645 37.097a1.734 1.734 0 0 0-.426-.54c-.141-.107-.403-.248-.818-.248-.72 0-1.222.443-1.222 1.112 0 .28.076.442.272.626.218.216.491.335.763.453l.698.302c.426.184.819.377 1.124.68.37.366.523.787.523 1.305 0 1.327-.993 2.212-2.301 2.212-.48 0-1.08-.097-1.582-.583-.36-.345-.578-.841-.676-1.273l.785-.216c.055.378.23.701.436.917.317.313.676.4 1.048.4.993 0 1.462-.702 1.462-1.425 0-.324-.099-.604-.36-.842-.208-.194-.492-.324-.873-.496l-.655-.302c-.283-.13-.644-.28-.971-.593-.316-.303-.502-.637-.502-1.177 0-1.111.861-1.856 2.04-1.856.446 0 .807.087 1.166.324.295.195.546.486.71.8l-.641.42zm4.93-.67v6.443h-.807v-6.442H6.001v-.755h4.341v.755H8.576zm4.866 3.658c0 .605 0 1.263.578 1.749.295.248.797.41 1.2.41.404 0 .906-.162 1.2-.41.579-.486.579-1.144.579-1.749v-4.413h.807v4.63c0 .603-.065 1.186-.458 1.726-.436.593-1.2.971-2.127.971-.927 0-1.69-.377-2.127-.971-.392-.54-.458-1.123-.458-1.727v-4.63h.808v4.414h-.002zm7.44-4.412h1.483c.731 0 1.767.075 2.683.841.666.55 1.243 1.467 1.243 2.763 0 1.51-.753 2.32-1.276 2.762-.666.562-1.364.831-2.661.831H20.88v-7.197zm.807 6.442h.709c.578 0 1.375-.065 2.084-.648.545-.453.982-1.165.982-2.19 0-1.727-1.222-2.85-3.065-2.85h-.71v5.688zm8.094-6.442v7.197h-.807v-7.197h.807zm2.683 3.604c0-2.148 1.691-3.724 3.785-3.724 2.094 0 3.785 1.576 3.785 3.724 0 2.137-1.68 3.723-3.785 3.723-2.105 0-3.785-1.586-3.785-3.723zm.829 0a2.952 2.952 0 0 0 2.956 2.967 2.952 2.952 0 0 0 2.957-2.967 2.952 2.952 0 0 0-2.957-2.968 2.952 2.952 0 0 0-2.956 2.968zM8.205.327v14.928H4.723V.327h3.482zM3.67.301v14.954H.188V.301H3.67zm32.9-.007v9.022S30.791 2.893 30 2.17C28.448.754 26.508 0 24.156 0c-3.008 0-4.89 1.186-5.907 2.192-1.357 1.342-2.332 3.512-2.332 5.66 0 2.191.904 4.204 2.351 5.546 1.13 1.074 3.052 2.193 5.878 2.193 2.532 0 4.432-.85 5.833-2.193a7.572 7.572 0 0 0 2.126-3.697l4.903 5.553h2.958V.294H36.57zM27.446 11.14c-.724.717-1.809 1.275-3.347 1.275-1.175 0-2.26-.312-3.233-1.23-.927-.894-1.38-1.99-1.38-3.355 0-1.655.679-2.75 1.334-3.377.814-.805 1.99-1.275 3.301-1.275 1.38 0 2.579.559 3.324 1.275.679.67 1.312 1.812 1.312 3.355.001 1.722-.723 2.773-1.31 3.332z"/><path d="M12.437 9.139a4.758 4.758 0 0 0 2.102-1.136c.973-.94 1.176-2.1 1.176-3.04 0-1.655-.679-2.75-1.312-3.354-.724-.671-1.922-1.32-3.844-1.32H4.723v2.647h4.842c.453 0 1.357.009 1.922.434.294.223.7.73.7 1.58 0 .739-.315 1.174-.564 1.42-.588.581-1.447.614-2.08.614h-.806v2.413l4.084 5.838h4.25L12.436 9.14zm20.615 15.516v2.958h3.928c-.312 1.167-1.032 1.772-1.151 1.867-.36.308-1.2.85-2.783.85-1.223 0-2.28-.309-3.238-1.234-1.195-1.155-1.617-2.589-1.808-3.715.191-1.126.613-2.558 1.808-3.712.96-.927 2.016-1.233 3.238-1.233 1.584 0 2.423.55 2.783.858.108.085.698.596 1.043 1.545l3.113-1.494c-.362-.76-.825-1.476-1.407-2.075-1.775-1.827-3.805-2.16-5.7-2.16-1.919 0-3.981.309-5.852 2.208a7.954 7.954 0 0 0-.814.97l-.005-.006v.014l-.017.023c-.23-.34-.48-.648-.748-.906-1.607-1.542-3.694-2.302-6.188-2.302-3.19 0-5.18 1.26-6.261 2.326a4.81 4.81 0 0 0-.738.992l-.032-.056h-.002c0-.001 0-.002.002-.003a7.57 7.57 0 0 0-.665-.708c-1.968-1.875-4.199-2.17-6.31-2.17H.16v15.803h5.209c1.343 0 4.102-.166 6.308-2.373a7.382 7.382 0 0 0 .495-.543c.253.339.527.655.821.946 1.08 1.066 3.07 2.325 6.26 2.325 2.495 0 4.582-.759 6.189-2.302.269-.257.52-.566.749-.907l.016.023v.014l.005-.006c.282.395.564.717.814.97 1.871 1.899 3.934 2.207 5.853 2.207 1.895 0 3.905-.332 5.68-2.159C40.333 29.663 41 26.744 41 24.822v-.168h-7.948zm-22.997 1.79c-.151.415-.59 1.887-1.545 2.682-1.198.998-2.878 1.054-3.646 1.054H3.858V20.53h1.006c1.128 0 2.687.177 3.886 1.363.624.618 1.193 1.745 1.435 3.405.022.164.048.326.076.487-.08.275-.149.5-.206.66zm13.464 1.46c-.225.41-.49.753-.764 1.022-.791.76-2.063 1.353-3.526 1.353-1.391 0-2.638-.498-3.502-1.353a4.292 4.292 0 0 1-.506-.583h.007s-.742-1.055-1.222-2.963c.48-1.91 1.222-2.964 1.222-2.964l-.007-.001a4.304 4.304 0 0 1 .506-.583c.863-.854 2.11-1.353 3.502-1.353 1.463 0 2.735.593 3.526 1.353.273.27.54.611.764 1.02.208.34.605 1.046.838 2.016.04.17.078.34.115.511a20.963 20.963 0 0 1-.115.511 6.977 6.977 0 0 1-.838 2.015zM32.11 9.75l-4.337-4.952s2.075 2.725.178 5.735l1.682 3.15s1.908-1.408 2.477-3.933z"/><path d="M8.804 9.484s1.591.288 3.652-.289l4.615 6.117h-4.242L8.804 9.485zm19.114 15.348c.022.172.048.356.08.55.192-1.126.614-2.558 1.809-3.713.96-.926 2.015-1.232 3.238-1.232 1.583 0 2.423.55 2.783.858.107.085.698.596 1.043 1.545l3.113-1.495c-.362-.76-.825-1.476-1.407-2.074-1.775-1.827-3.805-2.16-5.7-2.16-1.919 0-3.981.309-5.853 2.207a7.974 7.974 0 0 0-.813.971l-.005-.006v.014l-.017.023c.962 1.422 1.57 3.396 1.729 4.512zm-3.116 2.178c-.117-.542-.215-1.085-.331-1.63a19.156 19.156 0 0 1-.115.512 7.015 7.015 0 0 1-.837 2.014 4.44 4.44 0 0 1-.764 1.022c-.792.759-2.063 1.353-3.526 1.353-1.391 0-2.639-.499-3.503-1.353a4.3 4.3 0 0 1-.505-.584h.007s-.743-1.054-1.223-2.964c-.154-.628-.22-1.685-.455-2.516l-3.119 3.59c.55 1.865 1.458 3.781 2.562 4.87 1.08 1.067 3.07 2.326 6.26 2.326 2.495 0 4.581-.76 6.188-2.302.27-.258.52-.567.75-.907-.577-.818-1.074-1.972-1.389-3.43z"/><path d="M33.051 24.654v2.959h3.929c-.312 1.167-1.032 1.772-1.152 1.867-.36.308-1.199.85-2.782.85-1.224 0-2.28-.309-3.238-1.234-1.4-1.353-1.74-3.088-1.89-4.264-.197-1.383-1.082-4.084-2.476-5.42-1.607-1.541-3.694-2.301-6.188-2.301-3.19 0-5.18 1.258-6.26 2.325-.27.266-.501.623-.745.976 0 0 .442.662.836 1.674.456 1.174.83 2.934.921 3.294.48-1.91 1.223-2.963 1.223-2.963l-.007-.001a4.305 4.305 0 0 1 .505-.583c.863-.854 2.11-1.353 3.502-1.353 1.463 0 2.735.593 3.527 1.353.273.27.539.612.764 1.021.207.34.605 1.045.837 2.015.172.715.292 1.43.446 2.141a8.244 8.244 0 0 0 1.403 3.455v.014l.006-.006c.281.395.564.717.813.97 1.872 1.899 3.934 2.207 5.853 2.207 1.895 0 3.905-.332 5.68-2.16C40.334 29.665 41 26.746 41 24.824v-.168h-7.949z"/><path d="M33.051 24.655v2.958h3.929c-.312 1.167-1.032 1.772-1.152 1.867-.36.308-1.199.851-2.782.851-1.224 0-2.28-.31-3.238-1.235-1.196-1.155-1.617-2.589-1.809-3.715a13.518 13.518 0 0 0-.08.549c-.16 1.116-.767 3.09-1.729 4.512l.016.022v.014l.006-.006a7.991 7.991 0 0 0 .813.97c1.872 1.9 3.934 2.208 5.853 2.208 1.895 0 3.905-.333 5.68-2.16C40.333 29.663 41 26.744 41 24.822v-.168h-7.95zM4.723 2.946h3.481v2.676h-3.48V2.946z"/></svg>