<svg viewBox="0 0 53 19" xmlns="http://www.w3.org/2000/svg"><path fill-rule="evenodd" clip-rule="evenodd" d="M5.84 0h47.257l-5.22 20H.618L3.275 9.735l-1.681 1.327L0 12.301l.443-1.681 1.239-4.602.442-1.77.885 1.239L4.07 6.903 5.84 0z"/><path fill-rule="evenodd" clip-rule="evenodd" d="M22.478.885h29.557l-3.893 14.867h-29.47l1.77-7.08h7.611L26.46 14.78h20.885l3.451-13.01H29.823L28.23 7.965h-7.522l1.77-7.08zm-7.965 0h7.61l-1.858 7.08h-7.61l1.858-7.08zm5.576 7.787l-1.859 7.08h-7.61l1.858-7.08h7.61zM6.46.885h7.61l-1.77 7.08H4.603L6.46.884zm5.575 7.787l-1.77 7.08H2.566l1.859-7.08h7.61z" fill="#fff"/><path d="M45.398 4.248h1.328l-2.567 9.646h1.24l2.566-9.646h1.327l.354-1.593h-3.805l-.443 1.593zm-2.3 0h2.035l.442-1.593h-3.363l-2.92 11.239h1.239l1.239-4.602h1.593l.442-1.593h-1.593l.885-3.451zm-7.7 6.991c-.442 1.77-.088 2.832 1.15 2.832 1.24 0 2.213-1.062 2.655-2.832l1.505-5.84c.53-1.77.088-2.833-1.15-2.833-1.24 0-2.124 1.062-2.655 2.832l-1.505 5.841zm2.832-5.93c.177-.884.531-1.15.974-1.15.353 0 .53.266.353 1.15l-1.592 6.018c-.266.797-.531 1.15-.974 1.15-.354 0-.53-.353-.354-1.15L38.23 5.31zm-5.575.09c-.885 3.185 1.504 3.628.885 5.928-.177.797-.531 1.062-.974 1.062-.354 0-.53-.265-.354-1.061l.266-.885h-1.15l-.266.796c-.443 1.77-.089 2.832 1.15 2.832 1.24 0 2.124-1.062 2.567-2.832.885-3.186-1.416-3.628-.885-5.93.265-.884.53-1.15.973-1.15.354 0 .531.266.266 1.15l-.089.532h1.15l.09-.443c.53-1.77.176-2.832-1.063-2.832-1.239 0-2.124 1.062-2.566 2.832z" fill="#FF0"/><path fill-rule="evenodd" clip-rule="evenodd" d="M23.451 4.07h1.416l-2.655 10.09h1.328l2.566-10.09h1.416l.443-1.68h-4.071l-.443 1.68zm1.062.178h-1.327l.088-.266.443-1.681v-.177h4.513l-.088.265-.443 1.682v.177h-1.416l-2.566 10v.177h-1.859l.089-.354 2.566-9.823z" fill="#fff"/><path d="M23.452 4.07h1.416l-2.655 10.09h1.327l2.567-10.09h1.416l.442-1.68h-4.07l-.443 1.68z" fill="#2B2A29"/><path fill-rule="evenodd" clip-rule="evenodd" d="M17.08 4.07h2.3l.443-1.68h-3.628l-3.009 11.77h3.54l.442-1.682h-2.3l.973-3.452h1.77l.442-1.681h-1.77l.797-3.274zm2.3.178h-2.123l-.708 2.831h1.77l-.089.266-.442 1.681v.177h-1.77l-.797 3.01h2.213l-.089.353-.442 1.682v.177h-4.071l.088-.354L16.018 2.3v-.177h4.07L20 2.389l-.442 1.682v.177h-.177z" fill="#fff"/><path d="M17.08 4.07h2.3l.443-1.68h-3.628l-3.009 11.77h3.54l.442-1.682h-2.3l.973-3.451h1.77l.442-1.682h-1.77l.797-3.274z" fill="#2B2A29"/><path fill-rule="evenodd" clip-rule="evenodd" d="M9.558 4.07c.442 0 .53.355.354 1.151l-.177.708c-.266.885-.62 1.24-1.15 1.24h-.532L8.85 4.07h.708zM8.23 8.85c.62 0 .708.353.443 1.415l-.266 1.062c-.177.885-.53 1.15-.973 1.15h-.708L7.61 8.85h.62zM10 2.39H8.053L4.956 14.16h2.035c1.328 0 2.213-.974 2.744-2.833l.265-.973c.266-1.24.266-2.124-.354-2.478.708-.443 1.15-1.15 1.505-2.39l.088-.442c.443-1.77.089-2.655-1.239-2.655zm-.265 2.035a.19.19 0 0 0-.177-.177h-.531l-.62 2.654h.177c.177 0 .354 0 .443-.177.177-.176.354-.442.442-.884l.177-.62c.089-.442.089-.708.089-.796zm-1.15 4.778c-.09-.088-.178-.177-.355-.177h-.442l-.797 3.186h.443c.177 0 .265 0 .442-.177.089-.088.177-.354.354-.796l.266-1.062c.088-.443.177-.797.088-.974zm-.532-7.08H10c.797 0 1.24.266 1.505.797.265.531.177 1.24-.089 2.213l-.088.442c-.177.62-.354 1.15-.62 1.504-.177.354-.442.62-.708.797.266.265.354.531.354.885.089.442 0 1.062-.177 1.681l-.265.974c-.266.973-.62 1.681-1.062 2.212-.531.531-1.15.797-1.859.797H4.602l.088-.354L7.788 2.3l.088-.177h.177z" fill="#fff"/><path d="M9.558 4.07c.442 0 .53.355.354 1.151l-.177.708c-.266.885-.62 1.24-1.15 1.24h-.532L8.85 4.07h.708zM8.23 8.85c.62 0 .708.354.443 1.416l-.266 1.062c-.177.884-.53 1.15-.973 1.15h-.708L7.61 8.85h.62zM10 2.39H8.053L4.956 14.16h2.035c1.328 0 2.213-.974 2.744-2.833l.265-.973c.266-1.239.266-2.124-.354-2.478.708-.442 1.15-1.15 1.505-2.39l.088-.442c.443-1.77.089-2.655-1.239-2.655z" fill="#2B2A29"/><path fill-rule="evenodd" clip-rule="evenodd" d="M2.39 6.018l1.68 2.3-2.92 2.302 1.24-4.602zm28.584 0l-2.832 2.3 1.681 2.302 1.15-4.602z" fill="#FF0"/><path d="M25.575 18.23l.088-.265h.797l-.177.53c-.177.178-.354.266-.531.355-.177.088-.354.088-.62.088-.353 0-.619-.088-.796-.265-.088-.177-.177-.354-.088-.708.088-.266.265-.531.53-.708a1.5 1.5 0 0 1 .886-.266c.177 0 .354.089.53.089.178.088.266.265.355.354l-.266.177-.265-.266c-.089 0-.266-.088-.443-.088a.803.803 0 0 0-.62.265c-.265.089-.353.266-.442.443 0 .265 0 .354.089.53.177.178.354.178.619.178.177 0 .266 0 .443-.089.177 0 .265-.088.354-.177l.088-.177h-.531zm3.717 0H30l-.177-.708-.531.708zm-.885.708l1.416-1.858H30l.53 1.858h-.353l-.089-.53h-.973l-.354.53h-.354zm4.425 0l.53-1.858h.178l.53 1.062.974-1.062h.266l-.443 1.858h-.354l.354-1.327-.973.973-.443-.973-.354 1.327h-.265zm4.69 0l.53-1.858h.266l-.442 1.858h-.354zm3.009 0l.53-1.858h.178l.796 1.239.354-1.24h.266l-.443 1.86h-.177l-.885-1.328-.265 1.327h-.354zm5.752-.708l.088-.265h.797l-.177.53c-.089.178-.266.266-.531.355-.177.088-.354.088-.62.088-.354 0-.53-.088-.708-.265-.176-.177-.265-.354-.176-.708.088-.266.265-.531.53-.708.266-.177.531-.266.885-.266.266 0 .443.089.531.089.177.088.266.265.354.354l-.265.177-.266-.266c-.088 0-.265-.088-.442-.088a.803.803 0 0 0-.62.265c-.265.089-.354.266-.442.443 0 .265 0 .354.177.53.088.178.265.178.531.178.177 0 .354 0 .442-.089.177 0 .266-.088.354-.177l.089-.177h-.531z" fill="#fff"/><path fill-rule="evenodd" clip-rule="evenodd" d="M9.912 16.726c.354 0 .619.354.53.708v.088c.355.088.532.354.443.708-.088.442-.53.708-.885.708-.265 0-.53-.177-.53-.443-.178.266-.532.443-.797.443-.354 0-.62-.266-.531-.708.088-.354.442-.62.885-.708v-.088c.088-.354.53-.708.885-.708z" fill="#FF0"/><path fill-rule="evenodd" clip-rule="evenodd" d="M9.557 19.38l-.177-.708-.442.708h.62zm11.682-2.654c.177 0 1.062.885.885 1.504-.089.443-.443.708-.885.708-.266 0-.443-.177-.531-.443-.177.266-.442.443-.708.443-.442 0-.708-.266-.531-.708.177-.708 1.504-1.504 1.77-1.504z" fill="#FF0"/><path fill-rule="evenodd" clip-rule="evenodd" d="M20.796 19.38l-.088-.708-.531.708h.62zm-5.84-.177c-.354 0-1.24-.885-1.062-1.681.088-.354.53-.708.973-.708.354 0 .531.177.531.442.266-.265.531-.442.885-.442s.62.354.531.708c-.177.885-1.593 1.681-1.858 1.681zM4.513 16.726c.266.53.531.885.974 1.327-.62.354-1.062.708-1.593 1.239-.266-.531-.531-.885-.974-1.239.62-.443 1.062-.796 1.593-1.327z" fill="#FF0"/></svg>