<svg width="69" height="28" fill="none" xmlns="http://www.w3.org/2000/svg" viewBox="0 0 68 27"><path d="M65.738 8.975c1.31-.126 2.296-1.024 2.202-2.006-.094-.983-1.232-1.678-2.543-1.553-1.31.126-2.295 1.024-2.201 2.006.094.983 1.232 1.678 2.542 1.553z" fill="#145C86"/><path d="M65.564 8.539c1.31-.126 2.296-1.024 2.202-2.006-.094-.983-1.233-1.678-2.543-1.553-1.31.126-2.296 1.024-2.202 2.006.094.983 1.232 1.678 2.543 1.553z" fill="#E6E6E6"/><path d="M34.672 18.587l-.119 3.694H24.068v-.477L32.05 11.2H28c-.715 0-1.31.12-1.55.238-.237.12-.476.239-.595.596-.238.477-.477.953-.477 1.668h-.476v-3.336H34.91v.477l-7.983 10.604h4.29c.953 0 1.549-.12 1.906-.238.238-.239.596-.477.715-.834.12-.239.238-.834.357-1.788h.477zm11.915-8.221v7.268c0 1.31 0 2.145.12 2.502 0 .238.118.477.238.596.238.12.357.12.595.12s.477 0 .834-.12l.239.477-3.575 1.43h-.596v-2.503c-1.072 1.073-1.787 1.787-2.383 2.026-.476.357-1.072.476-1.668.476-.595 0-1.191-.238-1.668-.595-.596-.358-.834-.834-1.072-1.43-.238-.715-.238-1.55-.238-2.621V12.63c0-.477-.12-.953-.239-1.072-.119-.239-.238-.477-.476-.596-.239-.12-.715-.12-1.311-.12v-.476h4.17v7.983c0 1.072.12 1.787.596 2.145.357.357.834.595 1.31.595.358 0 .835-.119 1.311-.357.477-.238 1.073-.715 1.668-1.43V12.63c0-.715-.119-1.192-.357-1.43s-.834-.357-1.549-.357v-.477h4.051zm6.077 7.506c-.834-.357-1.311-.834-1.668-1.43-.477-.595-.596-1.31-.596-2.144 0-1.192.357-2.145 1.31-2.979.834-.834 2.026-1.31 3.337-1.31 1.191 0 2.144.238 2.978.834h3.098l.12.119c.119.119.119.238.119.476v.477c-.12 0-.12 0-.239.12H58.98c.476.595.714 1.429.714 2.382 0 1.072-.357 2.026-1.31 2.86-.834.714-1.907 1.191-3.336 1.191a4.78 4.78 0 0 1-1.788-.357c-.357.357-.595.715-.834.953-.119.238-.119.476-.119.596 0 .119 0 .238.12.476.238.12.476.238.833.238.358 0 .954.12 1.907.12 1.787 0 2.86.119 3.455.238.834 0 1.43.357 1.906.834.477.477.715 1.072.715 1.787 0 .953-.476 1.907-1.31 2.74C58.502 27.405 56.715 28 54.57 28c-1.668 0-3.098-.357-4.17-1.072-.715-.477-.953-.953-.953-1.43 0-.12 0-.357.119-.596.119-.357.476-.715.834-1.31l1.43-1.43c-.477-.239-.834-.477-.954-.715-.238-.238-.357-.477-.357-.715 0-.357.12-.715.357-1.072.239-.477.834-.954 1.788-1.788zm2.144-7.149c-.595 0-1.072.239-1.549.715-.476.477-.595 1.311-.595 2.383 0 1.31.238 2.383.834 3.098.476.596.953.834 1.668.834s1.191-.238 1.668-.715c.357-.476.596-1.191.596-2.264 0-1.43-.239-2.502-.834-3.217-.477-.595-1.073-.834-1.788-.834zm-2.263 11.558a6.873 6.873 0 0 0-.954 1.191c-.238.358-.357.715-.357 1.073 0 .476.238.834.834 1.072.834.596 2.025.834 3.693.834 1.55 0 2.74-.238 3.456-.834.715-.596 1.072-1.072 1.072-1.787 0-.477-.238-.715-.715-.953-.357-.12-1.31-.239-2.621-.358-1.906 0-3.455-.119-4.409-.238zm14.297-12.273v9.532c0 .834 0 1.311.12 1.55a.93.93 0 0 0 .476.476c.238.12.596.238 1.192.238v.477h-5.72v-.477c.477 0 .954-.119 1.073-.119.238-.119.357-.357.476-.596.12-.238.239-.715.239-1.549v-4.527c0-1.31-.12-2.145-.12-2.502-.119-.239-.119-.477-.357-.596-.12-.12-.238-.12-.476-.12s-.596 0-.835.12l-.238-.477 3.575-1.43h.595z" fill="url(#a)"/><path fill-rule="evenodd" clip-rule="evenodd" d="M34.672 18.587l-.119 3.694H24.068v-.477L32.05 11.2H28c-.715 0-1.31.12-1.55.238-.237.12-.476.239-.595.596-.238.477-.477.953-.477 1.668h-.476v-3.336H34.91v.477l-7.983 10.604h4.29c.953 0 1.549-.12 1.906-.238.238-.239.596-.477.715-.834.12-.239.238-.834.357-1.788h.477zm11.915-8.221v7.268c0 1.31 0 2.145.12 2.502 0 .238.118.477.238.596.238.12.357.12.595.12s.477 0 .834-.12l.239.477-3.575 1.43h-.596v-2.503c-1.072 1.073-1.787 1.787-2.383 2.026-.476.357-1.072.476-1.668.476-.595 0-1.191-.238-1.668-.595-.596-.358-.834-.834-1.072-1.43-.238-.715-.238-1.55-.238-2.621V12.63c0-.477-.12-.953-.239-1.072-.119-.239-.238-.477-.476-.596-.239-.12-.715-.12-1.311-.12v-.476h4.17v7.983c0 1.072.12 1.787.596 2.145.357.357.834.595 1.31.595.358 0 .835-.119 1.311-.357.477-.238 1.073-.715 1.668-1.43V12.63c0-.715-.119-1.192-.357-1.43s-.834-.357-1.549-.357v-.477h4.051zm8.221.357c-.595 0-1.072.239-1.549.715-.476.477-.595 1.311-.595 2.383 0 1.31.238 2.383.834 3.098.476.596.953.834 1.668.834s1.191-.238 1.668-.715c.357-.476.596-1.191.596-2.264 0-1.43-.239-2.502-.834-3.216-.477-.596-1.073-.835-1.788-.835zm-2.263 11.558a6.873 6.873 0 0 0-.954 1.191c-.238.358-.357.715-.357 1.073 0 .476.238.834.834 1.072.834.596 2.025.834 3.693.834 1.55 0 2.74-.238 3.456-.834.715-.596 1.072-1.072 1.072-1.787 0-.477-.238-.715-.715-.953-.357-.12-1.31-.239-2.621-.358-1.906 0-3.455-.119-4.409-.238zm14.297-12.272v9.531c0 .835 0 1.311.12 1.55a.93.93 0 0 0 .476.476c.238.12.596.238 1.192.238v.477h-5.72v-.477c.477 0 .954-.119 1.073-.119.238-.119.357-.357.476-.596.12-.238.239-.714.239-1.548v-4.528c0-1.31-.12-2.145-.12-2.502-.119-.239-.119-.477-.357-.596-.12-.12-.238-.12-.476-.12s-.596 0-.835.12l-.238-.477 3.575-1.43h.595zM34.434 22.162l.119-3.456h-.238c0 .477-.12.715-.12 1.073-.119.238-.119.476-.238.595-.119.239-.238.358-.357.596-.12.12-.239.238-.477.238-.119.12-.357.239-.715.239h-5.48c-.12 0-.12-.12-.12-.12l7.983-10.484v-.358h-9.77v3.098h.238c0-.357.12-.596.12-.834.119-.238.238-.596.357-.715 0-.238.12-.357.238-.477.12-.119.239-.238.358-.238.238-.119.357-.119.715-.119h5.004c.119 0 .119.12 0 .12l-7.864 10.484v.358h10.247zm12.034-4.528v-7.149h-3.813v.238c.358 0 .596.12.834.12.358.119.477.238.596.357.357.238.476.715.476 1.43v6.791c-.357.358-.714.596-.953.834a3.622 3.622 0 0 1-.834.596c-.238.12-.476.12-.715.238-.119 0-.357.12-.595.12s-.477-.12-.715-.239c-.358 0-.477-.119-.715-.357-.239-.238-.358-.477-.477-.834-.119-.358-.119-.834-.119-1.43v-7.864h-3.932v.238h.596c.238.12.476.12.596.239.119 0 .238.119.357.238.12 0 .12.12.238.238 0 .12.12.358.12.477 0 .238.119.477.119.715v6.791c.119.477.119.834.238 1.073.12.357.238.595.357.834.12.238.358.476.596.595.238.239.477.358.834.477.238.12.477.12.834.12.358 0 .596 0 .834-.12.358-.12.596-.12.834-.357a3.91 3.91 0 0 0 .954-.715c.357-.239.834-.715 1.31-1.31h.12s.119 0 .119.118v2.383h.476l3.455-1.43-.119-.238c-.119 0-.357.12-.476.12h-.715c-.12 0-.12-.12-.238-.12-.12-.12-.12-.238-.239-.357 0-.12-.119-.239-.119-.358 0-.238-.12-.476-.12-.953v-1.549zm5.242-.477c.239.239.596.477.954.715l-.954-.715zm-.715-.834c.239.358.477.596.715.834l-.715-.834zm-.357-.953c.12.358.238.715.358.953l-.358-.953zm-.12-1.072c0 .357 0 .715.12 1.072l-.12-1.072zm.24-1.549c-.24.477-.24.953-.24 1.549l.24-1.549zm.952-1.31a5.293 5.293 0 0 0-.953 1.31l.953-1.31zm1.55-.954c-.596.12-1.073.477-1.55.953l1.55-.953zm1.787-.357c-.596 0-1.311.119-1.788.357l1.788-.357zm1.549.238c-.477-.12-.954-.238-1.55-.238l1.55.238zm1.31.596a4.404 4.404 0 0 0-1.31-.596l1.31.596zm.12 0h-.12.12zm2.501 0h-2.502 2.502zm.477 0h-.477.477zm.12 0h-.12.12zm.118.119s0-.12-.119-.12l.12.12zm0 .119v-.12.12zm0 .238V11.2v.238zm0 .239v-.239.239zm0 .119v-.12.12zm-.119.119l.12-.12-.12.12zm-.119 0h.12-.12zm-.477 0h.477-.477zm-1.548 0h1.548-1.548zm-.12.12c0-.12 0-.12.12-.12l-.12.12zm.596 1.071c-.119-.357-.357-.715-.596-1.072l.596 1.072zm.12 1.311c0-.477 0-.953-.12-1.31l.12 1.31zm-.239 1.43c.12-.358.238-.953.238-1.43l-.238 1.43zm-.953 1.31c.357-.357.715-.834.953-1.31l-.953 1.31zm-1.43.834c.477-.119.953-.476 1.43-.834l-1.43.834zm-1.906.358c.715 0 1.31-.12 1.906-.357l-1.906.357zm-.834-.12c.238.12.476.12.834.12l-.834-.12zm-.954-.118c.358 0 .596.119.954.119l-.954-.12zm-.119 0s.12-.12.12 0h-.12zm-.476.476l.476-.476-.476.476zm-.239.358c0-.12.12-.239.239-.358l-.239.358zm-.238.357c.12-.119.12-.238.238-.357l-.238.357zm0 .358v-.358.358zm0 .238v-.238.238zm.238.238c-.119 0-.119-.119-.238-.238l.238.238zm.358.238c-.12 0-.239-.119-.358-.238l.358.238zm.476.12c-.119 0-.357-.12-.476-.12l.476.12zm.715 0h-.715.715zm1.192.119c-.477 0-.834 0-1.192-.12l1.192.12zm2.144.119c-.595-.12-1.31-.12-2.144-.12l2.144.12zm1.311 0h-1.31 1.31zm1.072.357l-1.072-.357 1.072.357zm.715.596c-.238-.238-.476-.477-.715-.596l.715.596zm.596.715c-.12-.238-.357-.477-.596-.715l.596.715zm.12.953c0-.357 0-.596-.12-.953l.12.953zm-.358 1.43c.238-.477.357-.953.357-1.43l-.357 1.43zm-.953 1.31c.476-.476.714-.953.953-1.31l-.953 1.31zm-2.264 1.311c.834-.238 1.549-.715 2.264-1.31l-2.264 1.31zm-2.979.477c1.072 0 2.025-.12 2.979-.477l-2.979.477zm-2.264-.238c.715.119 1.43.238 2.264.238l-2.264-.238zm-1.906-.834c.595.357 1.191.595 1.906.834l-1.906-.834zm-.715-.596c.238.119.476.357.715.596l-.715-.596zm-.12-.715c0 .238 0 .477.12.715l-.12-.715zm0-.238v.238-.238zm.12-.358c-.12.12-.12.239-.12.358l.12-.358zm.238-.476c-.119.238-.238.357-.238.476l.238-.476zm.596-.834c-.238.357-.358.595-.596.834l.596-.834zm.357-.358l-.357.358.357-.358zm.954-.953l-.954.953.954-.953zm0-.238c.119.119.119.119 0 .238v-.238zm-.596-.358c.238.12.357.238.596.358l-.596-.358zm-.358-.357l.358.357-.358-.357zm-.119-.239c0 .12.12.239.12.239l-.12-.239zm-.119-.357c0 .12 0 .238.12.357l-.12-.357zm.12-.477c-.12.12-.12.358-.12.477l.12-.477zm.238-.595c-.12.238-.239.476-.239.595l.239-.595zm.595-.715a4.528 4.528 0 0 1-.595.715l.595-.715zm1.073-.953c-.477.357-.834.714-1.073.953l1.073-.953zm0-.12c.119 0 0 .12 0 .12v-.12zm1.31-7.149c.239-.119.596-.119.834-.119.358 0 .715 0 1.073.239.238.119.476.357.715.595.357.358.595.834.714 1.43.12.596.239 1.192.239 1.907 0 .476 0 .953-.12 1.31-.119.477-.357.834-.476 1.073-.238.238-.477.357-.834.595-.238.12-.596.12-.953.12-.358 0-.715 0-.953-.239-.358-.12-.596-.357-.834-.596-.239-.476-.477-.834-.596-1.43-.238-.595-.238-1.19-.238-1.787 0-.595 0-1.072.119-1.43.119-.476.238-.714.476-1.072.238-.238.477-.476.834-.596zM51.83 22.877c.238-.239.357-.477.595-.715h.12c.476.119 1.072.119 1.906.238h2.502c.715.12 1.191.12 1.668.12.477.118.834.238 1.072.238a.93.93 0 0 1 .477.476.91.91 0 0 1 .238.596c0 .357-.119.715-.357.953-.12.357-.477.596-.834.953a3.975 3.975 0 0 1-1.43.596c-.596.12-1.31.238-2.026.238-.834 0-1.548-.119-2.144-.238-.715-.12-1.192-.357-1.668-.596a1.435 1.435 0 0 1-.596-.596.91.91 0 0 1-.238-.595c0-.12.119-.358.119-.477a.91.91 0 0 1 .238-.596c.12-.238.238-.476.358-.595zm14.893-3.336v-9.413h-.476l-3.456 1.43.12.238c.119 0 .238 0 .357-.12h.834l.238.239c.12 0 .12.12.238.238 0 .12 0 .239.12.358v.953c.119.357.119.953.119 1.549v4.528c0 .476 0 .714-.12.953 0 .238 0 .476-.119.595 0 .12-.119.239-.238.358a.256.256 0 0 1-.238.238c-.12.12-.238.12-.477.12-.238.118-.357.118-.595.118v.239h5.48v-.239c-.238 0-.476 0-.595-.119-.239 0-.358 0-.477-.119-.12 0-.238-.119-.357-.238-.12-.12-.12-.238-.239-.358 0-.119-.119-.357-.119-.595v-.953z" fill="#E6E6E6"/><path fill-rule="evenodd" clip-rule="evenodd" d="M8.46 5.838a227.7 227.7 0 0 1-.357 2.979c-.12 1.072-.12 2.025-.239 2.979.596 0 1.31 0 1.907-.12.715 0 1.31 0 2.025-.119.953 0 1.668-.238 2.026-.476.476-.477.715-1.192.834-2.145.238 0 .357-.12.476-.12 0 1.073-.119 2.146-.119 3.099-.119 1.072-.119 2.025-.238 3.098h-.477c0-.834-.119-1.43-.238-1.668a1.22 1.22 0 0 0-.715-.596c-.357-.239-.953-.239-1.668-.239-.596 0-1.31 0-1.906.12H7.745c-.12.834-.12 1.668-.238 2.502-.12.834-.12 1.668-.239 2.502-.119.715-.119 1.072 0 1.191 0 .239.12.358.358.477.119 0 .476.12.953.238 1.072.12 2.145.239 3.098.358 1.072.119 1.787.119 2.264 0 .476 0 .953-.239 1.43-.596.595-.477 1.191-1.31 1.787-2.383h.596c-.358.715-.596 1.549-.954 2.264-.238.715-.595 1.43-.834 2.264l-7.149-1.073c-2.263-.357-4.646-.595-7.03-.953v-.357c.239 0 .477 0 .715.119.358 0 .834 0 1.192-.12.357-.118.596-.238.715-.476.119-.12.238-.596.238-1.31.238-1.55.358-3.098.596-4.647.12-1.55.357-2.98.476-4.528.12-.953.12-1.43-.119-1.668-.238-.12-.715-.238-1.43 0-.238 0-.476.119-.595.119v-.357c2.264-.477 4.408-1.073 6.672-1.55 2.145-.476 4.409-1.072 6.672-1.548v4.05h-.595c-.12-.952-.239-1.548-.477-1.786-.119-.358-.476-.596-.834-.715-.357 0-.953 0-1.906.238-.715.119-1.55.357-2.264.477-.834.119-1.668.357-2.383.476z" fill="#145C86"/><path fill-rule="evenodd" clip-rule="evenodd" d="M8.102 5.6c-.12.953-.238 1.906-.357 2.979-.12.953-.12 1.906-.239 2.978.596-.119 1.31-.119 1.907-.119.715-.12 1.31-.12 2.025-.12.953-.118 1.668-.237 2.026-.595.476-.357.715-1.072.834-2.145h.476c0 .954-.119 2.026-.119 3.098-.119.954-.119 2.026-.238 3.098-.12 0-.238 0-.477-.119 0-.834-.119-1.31-.238-1.549a1.074 1.074 0 0 0-.715-.715c-.357-.119-.953-.238-1.668-.238-.596.12-1.31.12-1.906.12-.715 0-1.311 0-2.026.118-.119.834-.119 1.668-.238 2.502-.12.715-.12 1.55-.238 2.383-.12.715-.12 1.073 0 1.311 0 .12.119.238.357.357.12.12.477.239.953.239 1.073.119 2.145.238 3.098.357 1.072.12 1.787.238 2.264.12.477-.12.953-.358 1.43-.716.595-.476 1.191-1.31 1.787-2.383h.596c-.239.834-.596 1.55-.834 2.264-.358.834-.596 1.55-.954 2.264-2.383-.357-4.765-.715-7.149-.953a924 924 0 0 0-7.03-1.072v-.358c.239.12.477.12.716.12.357 0 .834 0 1.191-.12.358 0 .596-.119.715-.357.12-.239.238-.715.238-1.43.239-1.43.358-2.979.596-4.528.12-1.549.358-3.098.477-4.646.119-.834.119-1.43-.12-1.55-.238-.238-.714-.238-1.43-.119-.238.12-.476.12-.595.12v-.358c2.264-.477 4.408-.953 6.672-1.549 2.264-.476 4.409-.953 6.673-1.43v3.932c-.239 0-.358.12-.596.12-.12-.954-.238-1.55-.477-1.907-.119-.357-.476-.477-.834-.596-.357-.119-.953 0-1.787.12-.834.238-1.668.357-2.383.476-.834.238-1.668.357-2.383.596z" fill="#fff"/><path fill-rule="evenodd" clip-rule="evenodd" d="M18.826 24.068L19.42 0l2.145 3.098-.238 19.54-2.502 1.43z" fill="url(#b)"/><defs><linearGradient id="a" x1="46.349" y1="28.01" x2="46.349" y2="10.031" gradientUnits="userSpaceOnUse"><stop stop-color="#58595B"/><stop offset=".502" stop-color="#B3B5B7"/><stop offset="1" stop-color="#595A5C"/></linearGradient><linearGradient id="b" x1="21.221" y1="23.117" x2="19.142" y2=".942" gradientUnits="userSpaceOnUse"><stop stop-color="#00619E"/><stop offset=".188" stop-color="#0B8ACD"/><stop offset=".522" stop-color="#61D6FB"/><stop offset="1" stop-color="#C7E0F4"/></linearGradient></defs></svg>