<svg viewBox="0 0 140 19" xmlns="http://www.w3.org/2000/svg"><path d="M32.266 11.812l-2.959-5.133-2.959 5.133h5.918z" fill="#00004F"/><path d="M91.18 20h4.68L83.28 0H0v19.904l73.791.078 2.2-4.045h12.715L91.18 20zM6.047 13.17a4.092 4.092 0 0 0 1.415 1.647 4.231 4.231 0 0 0 2.191.64 5.284 5.284 0 0 0 2.283-.366 5.364 5.364 0 0 0 2.328-1.829 5.277 5.277 0 0 0 .64-1.188h-4.43l.458-2.243h7.075a9.238 9.238 0 0 1-.365 1.325 9.956 9.956 0 0 1-2.1 3.385 8.244 8.244 0 0 1-3.06 2.468 6.938 6.938 0 0 1-3.469.503 6.158 6.158 0 0 1-3.287-1.372 5.944 5.944 0 0 1-1.78-2.56 6.342 6.342 0 0 1-.32-2.333 8.207 8.207 0 0 1 .407-2.378 8.853 8.853 0 0 1 2.1-3.338A10.059 10.059 0 0 1 9.33 3.107a7.635 7.635 0 0 1 2.51-.778 7.076 7.076 0 0 1 3.606.51 7.088 7.088 0 0 1 2.877 2.234l-2.146 1.6a8.12 8.12 0 0 0-.958-.777 6.155 6.155 0 0 0-2.646-1.189 5.224 5.224 0 0 0-3.287.686 6.67 6.67 0 0 0-2.239 2.195A6.642 6.642 0 0 0 5.95 9.646a4.83 4.83 0 0 0 .097 3.52v.005zm29.17 3.772l-.933-2.534H24.5l-1.331 2.334-3.299.037 9.29-14.643 9.918 14.803-3.86.003zm23.965.533h-3.13V9.602h-.732l-4.793 4.8-5.658-5.666h-.733v8.868l-3.261.066V2.334h1.464l7.389 7.936h1.199L58.05 2.4h1.132v15.074zm7.327-11.57v3.002h9.187l-1.997 2.6h-7.294v2.901h5.891l-2.13 3.334-6.856-.033V2.4h15.976L77.29 5.9l-10.78.005zm12.541 6.803l3.472-6.024 3.473 6.024H79.05zm34.637-.505c.352-.09 3.671-.992 4.543-3.75.226-.78.277-1.6.15-2.401a6.016 6.016 0 0 0-1.897-3.801A5.899 5.899 0 0 0 113.634.9a5.981 5.981 0 0 0-1.098-.103H97.56v19.106l4.893.05v-7.251h6.94l5.243 7.002h5.19l-6.139-7.501zm-12.166-3.401v-4.1h11.217a1.597 1.597 0 0 1 1.598 1.6v.9a1.6 1.6 0 0 1-1.598 1.6h-11.217zM140.715.8h-19.228v4.001h7.978v15.104h3.994V4.8h7.256v-4z" fill="#00004F"/></svg>