<svg viewBox="0 0 200 70" xmlns="http://www.w3.org/2000/svg"><path d="M117.4 24.5c-.6-1.6-1.4-2.9-2.5-4s-2.4-2-4-2.6c-1.6-.6-3.4-.9-5.4-.9-.8 0-1.7 0-2.6.1l-2.7.3c-.9.1-1.7.3-2.5.4-.8.2-1.5.3-2.1.5V48h6.9v-6.6c.8.3 1.6.6 2.4.8.8.2 1.7.3 2.7.3 1.7 0 3.3-.3 4.6-.9 1.3-.6 2.4-1.5 3.3-2.6.9-1.1 1.6-2.4 2-4 .5-1.5.7-3.3.7-5.2.1-1.9-.2-3.7-.8-5.3zm-11.1 12.1c-.7 0-1.4-.1-2.1-.3-.7-.2-1.3-.4-1.7-.7V23.2c.3-.1.8-.1 1.3-.2.5 0 1.1-.1 1.7-.1 1.9 0 3.3.6 4.3 1.9 1 1.3 1.4 3 1.4 5.1 0 4.5-1.6 6.7-4.9 6.7zm16.5-2.2c0 1.3.1 2.5.4 3.5.3 1 .8 1.9 1.5 2.6.7.7 1.7 1.3 3 1.7.6.2 1.3.3 2 .4V7.5h-6.9v26.9zm32-11.6c-.3-1.2-.9-2.3-1.7-3.2-.8-.9-1.9-1.5-3.3-2s-3.1-.7-5.1-.7c-.8 0-1.6 0-2.4.1-.8.1-1.5.2-2.3.3-.7.1-1.4.2-2 .4-.6.1-1.1.3-1.5.4l.9 5.6c.8-.3 1.8-.6 3-.7 1.2-.2 2.3-.3 3.5-.3 1.8 0 3 .4 3.7 1.1.6.6.9 1.3 1 2.2-.2 0-.5-.1-.7-.1-.8-.1-1.6-.1-2.6-.1-1.4 0-2.8.1-4.2.4-1.3.3-2.5.7-3.6 1.4-1 .6-1.9 1.5-2.5 2.6-.6 1.1-.9 2.4-.9 3.9 0 1.6.3 3 .8 4.1.5 1.1 1.3 2 2.3 2.7 1 .7 2.2 1.2 3.6 1.5 1.2.3 2.5.4 3.9.4h.7c.5 0 1 0 1.5-.1 1.6-.1 3-.2 4.2-.4 1.8-.3 3.2-.6 4.2-.8V27c0-1.5-.2-2.9-.5-4.2zm-6.2 14h-.6c-.7 0-1.4.1-2.1.1-1.4 0-2.4-.2-3.2-.7-.8-.5-1.2-1.3-1.2-2.4 0-.6.1-1.1.4-1.5.3-.4.6-.7 1.1-1 .5-.2 1-.4 1.6-.5.6-.1 1.3-.1 2-.1.5 0 1.1 0 1.7.1h.3v6zm33.8-19.2c-1.4 4.7-2.9 9.1-4.4 13.2-1.5 4.1-3.2 8.1-5 12 0 .1-.1.2-.1.3-1 2.1-1.8 3.7-2.5 4.9h-6.8c.9-1.5 2-3.8 3.4-6.9 0-.1.1-.1.1-.2-1.6-3.1-3.1-6.5-4.7-10.4-1.6-3.9-3.1-8.2-4.5-13h7.3c.3 1.2.7 2.5 1.1 3.9.4 1.4.9 2.8 1.3 4.3.5 1.4.9 2.8 1.4 4.2.4 1.2.8 2.3 1.2 3.3 1.6-4.3 2.9-8.3 3.8-11.4 0-.1.1-.3.1-.4.3-1 .5-2 .8-3 .1-.4.2-.7.2-1h7.3z" fill="#fff"/><path d="M17.5 30c0-2.2.3-4.1 1-5.7.7-1.6 1.5-3 2.6-4.1 1.1-1.1 2.3-1.9 3.7-2.5 1.4-.6 2.9-.8 4.3-.8 3.5 0 6.2 1.1 8.2 3.2 2 2.1 3 5.2 3 9.4v1.3c0 .5-.1.9-.1 1.3H24.6c.2 1.4.8 2.6 2 3.4 1.2.8 2.8 1.3 4.7 1.3 1.3 0 2.5-.1 3.7-.3 1.2-.2 2.2-.5 3-.9l.9 5.6c-.4.2-.9.4-1.5.6-.6.2-1.3.3-2.1.5-.8.1-1.6.3-2.4.3-.9.1-1.7.1-2.6.1-2.2 0-4.1-.3-5.7-1-1.6-.7-3-1.5-4-2.7-1.1-1.1-1.9-2.5-2.4-4s-.7-3.2-.7-5zm16.2-2.7c0-.6-.1-1.2-.3-1.7-.2-.6-.4-1.1-.8-1.5-.4-.4-.8-.8-1.3-1.1-.5-.3-1.2-.4-2-.4s-1.4.1-2 .4c-.6.3-1 .6-1.4 1-.4.4-.7.9-.9 1.5-.2.6-.3 1.2-.4 1.7h9.1zM51.3 42c-1.6-3.1-3.2-6.7-4.8-10.9-1.6-4.1-3.2-8.7-4.6-13.6h7.3c.3 1.2.7 2.5 1.1 3.9.4 1.4.9 2.8 1.3 4.3.5 1.4.9 2.8 1.4 4.2.5 1.4.9 2.6 1.3 3.7.4-1.1.8-2.4 1.3-3.7.5-1.4.9-2.8 1.4-4.2.5-1.4.9-2.9 1.3-4.3s.8-2.7 1.1-3.9h7.2c-1.5 4.9-3 9.4-4.6 13.6-1.6 4.1-3.2 7.8-4.8 10.9h-5.9zm40.1-12.2c0 1.9-.3 3.7-.8 5.3-.6 1.6-1.4 3-2.4 4.1-1.1 1.1-2.3 2-3.8 2.6-1.5.6-3.1.9-4.9.9-1.8 0-3.4-.3-4.9-.9-1.5-.6-2.7-1.5-3.8-2.6-1.1-1.1-1.9-2.5-2.5-4.1-.6-1.6-.9-3.3-.9-5.3 0-1.9.3-3.7.9-5.2.6-1.6 1.4-2.9 2.5-4s2.3-2 3.8-2.6c1.5-.6 3.1-.9 4.8-.9 1.8 0 3.4.3 4.9.9 1.5.6 2.7 1.5 3.8 2.6 1.1 1.1 1.9 2.5 2.5 4 .5 1.5.8 3.2.8 5.2zm-7.1 0c0-2.1-.4-3.8-1.3-5-.9-1.2-2.1-1.8-3.6-1.8-1.6 0-2.8.6-3.7 1.8-.9 1.2-1.3 2.9-1.3 5s.4 3.8 1.3 5.1c.9 1.3 2.1 1.9 3.7 1.9s2.8-.6 3.6-1.9c.9-1.3 1.3-3 1.3-5.1z" fill="#01a3fb"/><path d="M37.2 59.4h2.9v-1h-2.9v-1.6h3.3v-1h-4.6v6.6h4.8v-1h-3.5v-2zm12.9.7c-.2-.3-.5-.7-.8-1.1l-.9-1.2c-.3-.4-.6-.8-.9-1.1-.3-.4-.6-.7-.9-.9h-1.1v6.6h1.3v-4.7c.3.3.6.7.9 1.1l.9 1.2c.3.4.6.8.9 1.3.3.4.5.8.8 1.2h1.1v-6.6h-1.3v4.2zm6-3.3h2.2v5.6h1.3v-5.6h2.2v-1h-5.7v1zm11.6 2.6h2.9v-1h-2.9v-1.6H71v-1h-4.6v6.6h4.8v-1h-3.5v-2zm13 1.4c-.2-.2-.3-.5-.5-.7-.2-.2-.3-.4-.4-.5.9-.3 1.4-.9 1.4-1.8 0-.7-.3-1.3-.8-1.6-.5-.3-1.3-.5-2.3-.5h-1c-.4 0-.7.1-1 .1v6.5h1.3v-2.5h1c.1.2.3.3.4.5.2.2.3.4.5.6.2.2.3.4.5.7.2.2.3.5.4.7h1.4c-.1-.2-.3-.5-.4-.8-.1-.2-.3-.4-.5-.7zm-1-2.5c-.1.1-.2.3-.4.3-.2.1-.4.1-.6.2h-1.4v-2.1h.8c.3 0 .5 0 .7.1.2 0 .4.1.5.2.2.1.3.2.4.3.1.1.1.3.1.5.1.2 0 .4-.1.5zm5.9-1.5h2.2v5.6h1.3v-5.6h2.2v-1h-5.7v1zm14.4 1.9c-.2-.5-.5-1-.7-1.5-.2-.5-.5-1-.7-1.4h-1.2c-.2.5-.5.9-.7 1.4-.2.5-.5 1-.7 1.5-.2.5-.5 1.1-.7 1.7-.2.6-.5 1.2-.8 2h1.3c.1-.3.2-.5.3-.8.1-.3.2-.5.3-.8h3c.1.3.2.5.3.8.1.3.2.5.3.8h1.4c-.3-.7-.5-1.4-.8-2-.1-.6-.4-1.2-.6-1.7zm-3.2 1.1c.2-.6.4-1.1.6-1.6.2-.5.4-.9.5-1.2.2.3.3.7.5 1.2s.4 1 .6 1.6h-2.2zm9.2 2.5h1.3v-6.6H106v6.6zm11.3-2.2c-.2-.3-.5-.7-.8-1.1l-.9-1.2c-.3-.4-.6-.8-.9-1.1-.3-.4-.6-.7-.9-.9h-1.1v6.6h1.3v-4.7c.3.3.6.7.9 1.1l.9 1.2c.3.4.6.8.9 1.3.3.4.5.8.8 1.2h1.1v-6.6h-1.3v4.2zm14-1.2c0-.6-.1-1.1-.2-1.7-.1-.5-.1-1.1-.2-1.5h-1.2c-.2.2-.3.5-.5.9-.2.3-.4.7-.6 1.1l-.6 1.2c-.2.4-.4.8-.5 1.1-.2-.3-.3-.7-.5-1.1l-.6-1.2c-.2-.4-.4-.8-.6-1.1-.2-.3-.4-.6-.5-.9h-1.2c-.1.5-.1 1-.2 1.5s-.1 1.1-.2 1.7c0 .6-.1 1.2-.1 1.7 0 .6-.1 1.1-.1 1.7h1.3c0-.8.1-1.6.1-2.4 0-.8.1-1.6.2-2.4.1.1.2.3.3.5.1.2.2.4.3.7.1.2.2.5.4.7.1.3.2.5.3.7.1.2.2.5.3.7.1.2.2.4.2.5h1c.1-.1.1-.3.2-.5s.2-.4.3-.7c.1-.2.2-.5.3-.7.1-.3.2-.5.4-.7.1-.2.2-.5.3-.7.1-.2.2-.4.3-.5.1.8.1 1.5.2 2.4 0 .8.1 1.6.1 2.4h1.3c0-.5-.1-1.1-.1-1.7.2-.5.1-1.1.1-1.7zm6.7.5h2.9v-1H138v-1.6h3.3v-1h-4.6v6.6h4.8v-1H138v-2zm13 .7c-.2-.3-.5-.7-.8-1.1l-.9-1.2c-.3-.4-.6-.8-.9-1.1-.3-.4-.6-.7-.9-.9h-1.1v6.6h1.3v-4.7c.3.3.6.7.9 1.1l.9 1.2c.3.4.6.8.9 1.3.3.4.5.8.8 1.2h1.1v-6.6H151v4.2zm5.9-4.4v1h2.2v5.6h1.3v-5.6h2.2v-1h-5.7z" fill="gray"/></svg>