<svg viewBox="0 0 65 27" xmlns="http://www.w3.org/2000/svg"><path fill-rule="evenodd" clip-rule="evenodd" d="M27.362 17.938h-1.99V8.145c0-.705-.409-1.258-1.028-1.41-.844-.204-1.674.435-1.694 1.318-.013.52 0 1.035 0 1.555v8.33h-1.964V8.165c0-.718-.395-1.265-1.015-1.43-.85-.217-1.7.428-1.713 1.325-.013.784 0 1.568 0 2.346v7.526h-1.95c-.007-.093-.014-.178-.014-.27 0-3.17-.006-6.34 0-9.51 0-1.74 1.107-3.084 2.788-3.374.962-.165 1.852.06 2.63.679.078.066.157.131.243.197.007.007.02.007.053.007a3.285 3.285 0 0 1 1.74-.883c1.93-.363 3.795 1.087 3.9 3.051.014.283.014.567.014.85v9.26zM32.45 0h1.963v5.154c.106-.047.185-.073.258-.106 2.418-1.068 5.18.666 5.212 3.308.04 3.13.007 6.267.007 9.398 0 .052-.007.112-.013.178h-1.97V8.574c0-.877-.462-1.542-1.213-1.786-1.12-.356-2.26.468-2.28 1.667-.014 1.048 0 2.096 0 3.144v6.326H32.45V0zm16.633 11.454c0 1.14.053 2.286-.013 3.42-.106 1.786-1.667 3.242-3.48 3.341-1.871.099-3.552-1.2-3.875-2.992a4.21 4.21 0 0 1-.065-.758c-.007-1.99-.014-3.98 0-5.97.013-1.911 1.265-3.388 3.143-3.724 2.056-.369 4.145 1.206 4.277 3.289.072 1.127.013 2.26.013 3.394zm-5.443 0c0 1.028-.014 2.056 0 3.084.013 1.14 1.133 1.964 2.227 1.647.778-.224 1.252-.89 1.252-1.805.007-1.931.007-3.869 0-5.8a2.24 2.24 0 0 0-.06-.56c-.21-.843-1.014-1.417-1.831-1.318-.91.106-1.582.83-1.588 1.733-.007.995 0 2.004 0 3.019zm-36.931 0c0-.989-.007-1.978 0-2.973.02-1.897 1.259-3.367 3.124-3.71 2.154-.395 4.276 1.298 4.316 3.486a229.32 229.32 0 0 1 0 6.393c-.026 1.858-1.529 3.387-3.42 3.552-1.832.158-3.572-1.12-3.935-2.913a4.868 4.868 0 0 1-.085-.93c-.007-.961 0-1.937 0-2.905zm5.47.033c0-1.035.013-2.076-.007-3.111-.02-1.061-.982-1.832-2.017-1.66-.863.144-1.45.87-1.456 1.818-.007 1.95 0 3.908 0 5.859 0 .158.006.323.04.48.197.884 1.001 1.45 1.91 1.365.85-.08 1.516-.824 1.523-1.72.013-1.015.006-2.023.006-3.031zm48.213 6.451h-1.964c-.007-.085-.02-.158-.02-.23 0-3.098-.007-6.188 0-9.286.007-1.898 1.45-3.5 3.288-3.677 1.958-.191 3.645 1.028 4.053 2.92.047.23.08.467.08.698.006 3.124.006 6.247.006 9.364v.191h-1.964v-.355c0-2.98.007-5.964-.006-8.943 0-.31-.053-.646-.178-.93-.33-.757-1.134-1.14-1.938-.975a1.704 1.704 0 0 0-1.35 1.668c-.014 1.832-.007 3.657-.007 5.49v4.065zM5.39 7.408H2.01c-.006.085-.026.157-.026.23 0 2.28-.007 4.567 0 6.847.006 1.074.883 1.872 1.917 1.746.25-.026.495-.118.771-.19.121.288.24.578.356.87.119.296.238.592.37.915-.666.303-1.345.462-2.057.37C1.338 17.937 0 16.408 0 14.392V2.45h1.97v3.006h3.42v1.95zm47.462 10.53h-1.944a3.354 3.354 0 0 1-.014-.25c0-3.065-.006-6.129 0-9.2.007-1.904 1.246-3.374 3.11-3.717 1.51-.277 3.111.54 3.909 2.01-.547.323-1.094.646-1.654.982a25.907 25.907 0 0 0-.284-.369c-.527-.64-1.225-.863-1.937-.613s-1.173.897-1.18 1.694c-.006 1.483 0 2.959 0 4.442v4.639c-.006.119-.006.23-.006.382zm-22.743 6.92v3.064h-.48v-4.85c.487-.099.493-.099.645.356.217.632.428 1.265.646 1.898.033.099.072.19.138.342.198-.56.37-1.067.547-1.568.073-.21.152-.428.224-.64.152-.44.152-.44.653-.401v4.863h-.468v-3.057l-.06-.02c-.026.046-.065.092-.079.138-.197.56-.382 1.12-.593 1.674-.033.092-.145.191-.237.204-.053.013-.171-.118-.204-.204-.191-.514-.363-1.028-.54-1.549-.034-.092-.067-.184-.106-.276a.573.573 0 0 1-.086.026zm8.917-1.793c.487-.079.487-.079.645.336.317.864.64 1.734.956 2.597a.417.417 0 0 0 .125.191v-3.137h.534v4.837c-.442.125-.494.1-.64-.303l-.948-2.57a.413.413 0 0 0-.152-.218v3.124h-.527c.007-1.628.007-3.242.007-4.857zm-12.258 4.857h-.507c0-.408-.02-.797.006-1.193.02-.296-.092-.382-.369-.355-.198.02-.395.013-.593 0-.21-.014-.303.046-.29.283.02.415.007.824.007 1.259h-.481c-.014-.046-.034-.1-.034-.152 0-1.226-.013-2.451.007-3.677a1.114 1.114 0 0 1 1.483-1.048c.441.145.751.455.764.923.027 1.311.007 2.622.007 3.96zm-.52-2.076c0-.626.02-1.219-.007-1.805-.013-.31-.277-.514-.567-.528-.31-.013-.606.185-.626.495-.033.606-.007 1.219-.007 1.838h1.206zm20.092-.138c0 .507.053.982-.013 1.437-.079.533-.659.902-1.206.85-.566-.06-1.015-.508-1.021-1.068a103.599 103.599 0 0 1 0-2.853 1.111 1.111 0 0 1 .93-1.088c.546-.092 1.04.191 1.264.745-.145.066-.283.125-.435.191a.603.603 0 0 1-.066-.06c-.237-.322-.474-.421-.764-.322-.27.092-.422.33-.422.698v2.491c0 .462.244.745.633.738.382-.006.613-.29.613-.75v-.456h-.87a4.936 4.936 0 0 0-.02-.224c-.04-.237.046-.342.303-.323.363.014.719-.006 1.074-.006zm-25.114.547h-.837c-.02-.046-.04-.072-.04-.099-.033-.448-.033-.448.422-.448.29 0 .587.007.876.007.02 0 .033.013.12.046-.027.468.006.968-.093 1.45-.106.533-.692.856-1.22.777-.566-.086-.975-.527-.981-1.1-.013-.916-.007-1.833 0-2.742.006-.593.35-1.035.89-1.153.54-.119 1.047.151 1.31.731l-.454.198c-.046-.06-.079-.119-.118-.165a.59.59 0 0 0-.68-.224c-.256.08-.421.277-.428.54a99.808 99.808 0 0 0 0 2.801c.007.343.29.58.613.587.336 0 .6-.244.626-.6.007-.184-.006-.375-.006-.606zm14.788 1.674h-.488v-4.87h.488v4.87z"/></svg>