<svg viewBox="0 0 179 47" xmlns="http://www.w3.org/2000/svg"><path d="M3.708 32.683L1 25.642a4.747 4.747 0 0 0 2.708 1.625 4.459 4.459 0 0 0 1.625 0c-2.368-2.297-2.307-5.562-.768-6.95 1.102-.994 3.042-1.1 4.513-.362a4.545 4.545 0 0 1 2.031 2.122c2.527-1.039 5.119-.3 6.138 1.399a3.694 3.694 0 0 1 0 3.79 3.758 3.758 0 0 1-3.791 1.626c.735 2.22-.068 4.507-1.76 5.506a4.002 4.002 0 0 1-3.737.15c-1.807-.892-2.784-3.262-2.088-5.656a5.518 5.518 0 0 0-1.083 1.083 5.695 5.695 0 0 0-1.08 2.708z" fill="#55030F" stroke="#431620" stroke-width=".5" stroke-miterlimit="10"/><path d="M14.404 47.508h-2.03v-5.212a60.121 60.121 0 0 1 8.665-15.977v-4.197a24.427 24.427 0 0 0-4.422-3.015A24.889 24.889 0 0 0 6.89 16.3 48.216 48.216 0 0 0 13.964 1a41.926 41.926 0 0 0 15.063 7.176 19.966 19.966 0 0 0-5.483 12.118 86.02 86.02 0 0 1 2.044-3.61c2.913-4.865 4.417-7.316 6.621-8.237.27-.114 4.186-1.683 6.702.609 2.016 1.837 1.676 4.82 1.625 5.213a5.209 5.209 0 0 0 .972-.904 5.873 5.873 0 0 0 1.262-3.767l3.114 8.259a4.62 4.62 0 0 0-2.37-1.557 4.527 4.527 0 0 0-2.03-.068c1.879 1.716 2.7 4.131 2.03 6.16-.775 2.35-3.237 3.227-4.061 3.52-1.31.467-2.654.548-6.702-.202a79.574 79.574 0 0 1-7.92-1.896 290.413 290.413 0 0 0 3.507 2.469c5.446 3.776 6.412 4.187 7.258 5.723 1.005 1.829 1.883 5.333-.103 7.34-1.395 1.412-3.834 1.71-6.193.851a5.276 5.276 0 0 1-.813 1.557 5.47 5.47 0 0 1-3.317 2.03 5.689 5.689 0 0 1-4.535-1.353c-1.605-1.372-1.933-3.218-2.167-4.536a13.236 13.236 0 0 1 1.49-8.394l-2.776 5.438a24.798 24.798 0 0 0-2.776 12.57h-.002z" fill="#55030F" stroke="#431620" stroke-width=".5" stroke-miterlimit="10"/><path d="M56.377 4.588h-1.15v42.92h1.15V4.588z" fill="#545454"/><path d="M67.163 5.152h18.414v6.77h-.903V9.575a4.689 4.689 0 0 0-3.159-2.527h-6.318v8.756h3.43a8.033 8.033 0 0 0 .835-1.196 8.35 8.35 0 0 0 1.06-3.588h.993v10.65h-1.264a6.076 6.076 0 0 0-.721-3.001 5.95 5.95 0 0 0-1.174-1.512h-3.25v8.304a4.404 4.404 0 0 0 1.612.627 4.405 4.405 0 0 0 1.728-.04v1.158H67.163v-1.159a4.542 4.542 0 0 0 1.264.068 4.62 4.62 0 0 0 1.986-.654V6.957h-3.25V5.152zm22.916 0h18.413v6.77h-.902V9.575a4.703 4.703 0 0 0-1.293-1.622 4.696 4.696 0 0 0-1.866-.905h-6.32v8.756h3.431c.314-.373.593-.773.835-1.196a8.346 8.346 0 0 0 1.06-3.588h.993v10.65h-1.263a6.084 6.084 0 0 0-.722-3.001 5.956 5.956 0 0 0-1.174-1.512h-3.25v8.304c.74.102 7.247.946 9.125-1.326a22.157 22.157 0 0 0 2.708-4.448l.003 7.556-19.779-.037v-1.16c.416.082.841.105 1.264.068a4.62 4.62 0 0 0 1.986-.654V6.957h-3.25V5.152zm25.375 0h11.78v1.625h-3.476v18.188a11.82 11.82 0 0 0 7.898 0l3.43-5.957v7.717H115.68v-1.038a6.038 6.038 0 0 0 2.979 0V6.822h-3.205v-1.67zm25.139 0l11.779-.022-.023 1.783-3.159-.023v18.955a5.305 5.305 0 0 0 3.183-.076v1.453l-11.779.022v-1.466a6.011 6.011 0 0 0 3.317 0V6.958h-3.317l-.001-1.806zm16.743-.022h10.155v1.602h-2.347v1.444l3.927 5.145h.812l3.791-5.235a1.973 1.973 0 0 0-.299-.856 1.972 1.972 0 0 0-.649-.634h-2.211V5.152h8.169v1.49h-2.573l-6.137 7.807 7.582 11.103a1.542 1.542 0 0 0 1.444 0v1.692h-9.974v-1.557a1.829 1.829 0 0 0 1.76 0v-1.625l-4.107-5.596-4.874 6.002v1.31a4.294 4.294 0 0 0 2.798 0v1.466h-7.673v-1.422a2.302 2.302 0 0 0 1.805 0l7.221-8.574-7.176-10.561h-1.444V5.13z" fill="#55030F" stroke="#431620" stroke-width=".5" stroke-miterlimit="10"/><path d="M70.232 44.959a6.84 6.84 0 0 1-1.94-2.393 7.149 7.149 0 0 1 .315-6.634c1.906-3.255 5.595-3.534 6.138-3.565a8.123 8.123 0 0 1 4.694 1.218v-1.444h1.354v4.603h-1.354v-1.58a6.693 6.693 0 0 0-1.174-.812 5.8 5.8 0 0 0-3.43-.812 4.992 4.992 0 0 0-3.52 1.94 4.704 4.704 0 0 0-.685 1.779c-.153.66-.877 3.767 1.001 6.3a4.851 4.851 0 0 0 1.557 1.444 5.431 5.431 0 0 0 4.265.27v-3.655h-1.264v-1.399h5.552v1.49h-1.174v2.301c.05.233.044.474-.017.704-.52 1.856-5.091 2.883-8.423 1.438a7.431 7.431 0 0 1-1.895-1.193zm97.259 0a6.85 6.85 0 0 1-1.941-2.393 7.15 7.15 0 0 1-.659-3.356 7.155 7.155 0 0 1 .975-3.278c1.906-3.255 5.595-3.534 6.138-3.565a8.124 8.124 0 0 1 4.694 1.218v-1.444h1.354v4.603h-1.354v-1.58a6.696 6.696 0 0 0-1.174-.812 5.799 5.799 0 0 0-3.43-.812 4.992 4.992 0 0 0-3.52 1.94 4.7 4.7 0 0 0-.686 1.779c-.152.66-.877 3.767 1.002 6.3a4.856 4.856 0 0 0 1.557 1.444 5.424 5.424 0 0 0 2.104.572 5.434 5.434 0 0 0 2.161-.301v-3.656h-1.264v-1.399h5.551v1.49h-1.173v2.301c.05.233.044.474-.018.704-.518 1.856-5.09 2.883-8.422 1.438a7.424 7.424 0 0 1-1.895-1.193zm-67.292.18L94.693 32.14l-5.551 12.907h-1.038v1.128h3.249v-1.083h-1.275l.96-2.843h4.918l1.31 3.024h-1.49v.903h5.461v-1.039h-1.038zm-8.146-3.994l1.692-4.04 1.534 4.018-3.226.022zm19.655 5.032h-4.017v-.857h1.58V33.9h-1.58v-1.76h4.965l3.52 8.756h.541l3.701-8.756h5.1v1.625h-1.444v11.282h1.196v1.128h-6.205v-1.173h1.669v-9.974l-5.28 11.147-4.513-10.47h-.451l-.01 9.604 1.232-.013-.004.88zm19.858-14.036h6.86l-.008 1.086-1.479.005-.003 11.907h1.49v1.038h-6.86v-1.038h1.581l.021-11.904h-1.602v-1.094zm17.292 14.036h-4.339v-1.015l1.631-.01V33.768l-1.631-.004V32.14h4.364l6.601 8.215v-6.593h-1.215l-.004-1.621h3.656v1.631l-.986-.01-.007 12.415h-1.445l-7.196-9.7-1.054.004-.017 8.656h1.634l.008 1.04z" fill="#545454"/></svg>