<svg xmlns="http://www.w3.org/2000/svg" viewBox="0 0 1667.203 1667.205"><defs><clipPath id="a" transform="translate(233.602 255.474)"><path fill="none" d="M0 0h1200v1200H0z"/></clipPath></defs><g style="isolation:isolate"><g style="mix-blend-mode:overlay" opacity=".1" fill="#fff" clip-path="url(#a)" data-name="Calque 1"><path d="M833.604 833.603L791.682 0h83.846l-41.924 833.603zm0 0L647.563 19.943l82.576-14.559 103.465 828.219z"/><path d="M833.604 833.603L509.101 64.61l78.789-28.677 245.714 797.67zm0 0L380.496 132.642l72.614-41.923 380.494 742.884z"/><path d="M833.604 833.603L265.66 221.972l64.23-53.895 503.714 665.526zm0 0L168.079 329.886l53.896-64.23 611.629 567.947z"/><path d="M833.604 833.603L90.721 453.106l41.922-72.614 700.961 453.111zm0 0L35.934 587.886l28.677-78.79 768.993 324.507zm0 0L5.385 730.133l14.559-82.572 813.66 186.042z"/><path d="M833.604 833.603L0 875.524v-83.847l833.604 41.926z"/><path d="M833.604 833.603L19.942 1019.642 5.383 937.067l828.221-103.464z"/><path d="M833.604 833.603L64.61 1158.104l-28.677-78.791 797.671-245.71z"/><path d="M833.604 833.603l-700.962 453.106-41.924-72.615 742.886-380.491z"/><path d="M833.604 833.603l-611.632 567.941-53.897-64.231 665.529-503.71zm0 0l-503.718 665.52-64.231-53.895 567.949-611.625z"/><path d="M833.604 833.603l-380.499 742.881-72.613-41.924 453.112-700.957zm0 0l-245.718 797.666-78.791-28.675 324.509-768.991z"/><path d="M833.604 833.603l-103.47 828.217-82.575-14.56 186.045-813.657zm0 0l41.919 833.602h-83.848l41.929-833.602zm0 0l186.036 813.657-82.576 14.56-103.46-828.217zm0 0l324.5 768.991-78.792 28.678-245.708-797.669zm0 0l453.103 700.957-72.612 41.927-380.491-742.884z"/><path d="M833.604 833.603l567.939 611.628-64.228 53.898-503.711-665.526zm0 0l665.52 503.716-53.895 64.231-611.625-567.947z"/><path d="M833.604 833.603L1576.48 1214.1l-41.921 72.612-700.955-453.109zm0 0l797.664 245.716-28.676 78.788-768.988-324.504zm0 0l828.212 103.468-14.558 82.573-813.654-186.041z"/><path d="M833.604 833.603l833.599-41.922v83.847l-833.599-41.925z"/><path d="M833.604 833.603l813.656-186.038 14.558 82.574-828.214 103.464z"/><path d="M833.604 833.603l768.988-324.502 28.679 78.791-797.667 245.711z"/><path d="M833.604 833.603l700.957-453.106 41.924 72.615-742.881 380.491zm0 0l611.626-567.942 53.897 64.231-665.523 503.711z"/><path d="M833.604 833.603l503.713-665.522 64.23 53.895-567.943 611.627z"/><path d="M833.604 833.603l380.494-742.88 72.613 41.923-453.107 700.957zm0 0l245.713-797.667 78.79 28.677-324.503 768.99z"/><path d="M833.604 833.603L937.07 5.387l82.575 14.559-186.041 813.657z"/></g></g></svg>