<svg width="254" height="99" fill="none" xmlns="http://www.w3.org/2000/svg"><path d="M69.05 9.238c0 4.524-3.81 8.333-8.334 8.333-4.524 0-8.334-3.81-8.334-8.333 0-4.524 3.81-8.334 8.334-8.334 4.762 0 8.333 3.81 8.333 8.334zm-16.668 15c0-1.905 1.667-3.572 3.572-3.572h9.524c1.904 0 3.571 1.667 3.571 3.572v38.571H52.62l-.238-38.571zm71.667 3.572c0-1.906 1.667-3.572 3.572-3.572h20.952c1.905 0 3.571 1.666 3.571 3.571v7.381c0 1.905-1.666 3.572-3.571 3.572h-20.952c-1.905 0-3.572-1.667-3.572-3.572v-7.38zm-4.524-4.287c0-12.619-10.476-22.619-23.095-22.619-12.619 0-22.857 10-23.095 22.381V62.81h17.143V23.762c0-3.572 2.857-6.43 6.19-6.43 3.572 0 6.191 2.858 6.191 6.43v39.047h16.428v-1.428l.238-37.858zM18.335 62.809H1.906V25.904c0-6.904 1.667-12.38 5.238-16.666 2.143-2.62 4.762-4.524 7.857-5.953 3.334-1.428 6.43-2.143 9.762-2.143 6.667 0 12.143 2.143 16.667 6.667 4.524 4.524 6.667 10 6.667 16.428 0 6.43-2.143 11.905-6.667 16.43-4.524 4.523-9.762 6.904-15.952 6.904-.953 0-2.381 0-4.048-.238V29.238c1.19.714 2.381 1.19 3.572 1.19 1.666 0 3.095-.714 4.285-1.905 1.19-1.19 1.905-2.857 1.905-4.523 0-1.905-.714-3.334-1.905-4.524-1.19-1.19-2.619-1.905-4.524-1.905-4.285 0-6.428 2.857-6.428 8.81v36.428zm189.048 0h16.666V26.38c0-5.952 2.143-8.81 6.429-8.81 1.905 0 3.333.715 4.524 1.906 1.19 1.19 1.904 2.619 1.904 4.524 0 1.666-.714 3.333-1.904 4.523-1.191 1.19-2.619 1.905-4.286 1.905-1.191 0-2.381-.476-3.572-1.19v18.095c1.667.238 3.096.238 4.048.238 6.191 0 11.429-2.381 15.952-6.905 4.524-4.524 6.667-10 6.667-16.428 0-6.429-2.143-11.905-6.667-16.429-4.523-4.524-10-6.667-16.666-6.667-3.334 0-6.429.715-9.762 2.143-3.095 1.429-5.714 3.334-7.857 5.953-3.572 4.285-5.238 9.762-5.238 16.666l-.238 36.905zm-50.715-22.381V3.048l.238-.715h17.143v37.619c0 3.571 2.619 6.428 6.191 6.428 3.333 0 6.19-2.857 6.19-6.428V2.332h16.429V40.19c0 12.62-10.477 22.62-23.096 22.62s-22.857-10-23.095-22.382z" fill="#FF2400"/><path d="M.906 69.809H254v15c0 7.732-6.268 14-14 14H14.906c-7.732 0-14-6.268-14-14v-15z" fill="#00CFA6"/><path d="M63.78 94.061c3.423 0 6.12-1.537 7.744-4.292l-2.697-1.71c-1.073 1.71-2.697 2.812-5.017 2.812-3.683 0-6.09-2.87-6.09-6.525 0-3.654 2.378-6.583 6.09-6.583 2.146 0 3.799.928 4.959 2.697l2.726-1.798c-1.77-2.755-4.466-4.089-7.714-4.089-5.655 0-9.6 4.35-9.6 9.773 0 5.54 3.684 9.715 9.6 9.715zm32.195-.348h3.654L91.306 74.66H89.74l-8.236 19.053H85.1l1.624-4.06h7.627l1.624 4.06zm-8.062-7.018l2.64-6.612 2.61 6.612h-5.25zm28.48 7.366c4.002 0 6.554-2.204 6.554-5.655 0-3.16-1.566-4.93-5.162-5.916-3.219-.87-4.031-1.479-4.06-2.842-.029-1.189.957-1.943 2.523-1.943 1.624 0 2.581.667 2.958 2.03l3.074-1.276c-.87-2.58-2.842-3.857-5.887-3.857-3.799 0-6.09 2.117-6.09 5.25 0 3.073 1.711 4.784 5.394 5.712 3.016.754 3.799 1.537 3.799 2.958 0 1.508-1.131 2.436-2.929 2.436-1.972 0-3.045-.754-3.683-2.755l-3.103 1.16c.841 3.161 2.987 4.698 6.612 4.698zm19.323-.348h3.567V74.98h-3.567v18.734zm29.643-18.733v11.802l-10.498-11.977h-1.595v18.908h3.422v-11.86l10.498 12.005h1.566V74.98h-3.393zm25.76 19.081c5.597 0 9.599-4.263 9.599-9.744 0-5.452-3.683-9.744-9.599-9.744-5.568 0-9.57 4.292-9.57 9.744 0 5.481 3.712 9.744 9.57 9.744zm0-3.219c-3.596 0-6.003-2.842-6.003-6.525 0-3.683 2.407-6.525 6.003-6.525 3.625 0 6.032 2.842 6.032 6.525 0 3.683-2.407 6.525-6.032 6.525z" fill="#000"/></svg>