<svg xmlns="http://www.w3.org/2000/svg" xmlns:xlink="http://www.w3.org/1999/xlink" viewBox="0 0 1070.432 579.223"><defs><linearGradient id="a" x1="281.585" y1="126.367" x2="372.431" y2="126.367" gradientUnits="userSpaceOnUse"><stop offset="0" stop-color="#d41303"/><stop offset=".508" stop-color="#ef1601"/><stop offset=".785" stop-color="#dd1402"/><stop offset="1" stop-color="#d41303"/></linearGradient><linearGradient id="f" x1="686.564" y1="126.367" x2="777.411" y2="126.367" xlink:href="#a"/><linearGradient id="g" x1="341.404" y1="269.116" x2="837.23" y2="269.116" gradientUnits="userSpaceOnUse"><stop offset="0" stop-color="#a60f02"/><stop offset=".154" stop-color="#bd1102"/><stop offset=".508" stop-color="#ef1601"/><stop offset="1" stop-color="#a60f02"/></linearGradient><linearGradient id="h" x1="333.49" y1="200.319" x2="867.149" y2="836.309" gradientUnits="userSpaceOnUse"><stop offset="0" stop-color="#fdbe3f"/><stop offset=".48" stop-color="#932e01"/><stop offset="1" stop-color="#b95a15"/></linearGradient><linearGradient id="i" x1="595.035" y1="755.415" x2="595.035" y2="316.195" gradientUnits="userSpaceOnUse"><stop offset="0" stop-color="#6e2302"/><stop offset="1" stop-color="#ffed86"/></linearGradient><radialGradient id="b" cx="335.987" cy="162.734" r="17.49" gradientUnits="userSpaceOnUse"><stop offset="0" stop-color="#fef5d8"/><stop offset=".113" stop-color="#d4cdb5"/><stop offset=".435" stop-color="#636054"/><stop offset=".656" stop-color="#1c1b18"/><stop offset=".759"/><stop offset=".779" stop-color="#080705"/><stop offset=".812" stop-color="#1e1b13"/><stop offset=".851" stop-color="#423c29"/><stop offset=".897" stop-color="#756a48"/><stop offset=".948" stop-color="#b5a470"/><stop offset="1" stop-color="#fee69d"/></radialGradient><radialGradient id="c" cx="335.987" cy="162.734" r="17.49" gradientUnits="userSpaceOnUse"><stop offset="0" stop-color="#fef4d5"/><stop offset=".087" stop-color="#f7edcf"/><stop offset=".217" stop-color="#e2d9be"/><stop offset=".374" stop-color="#c1baa2"/><stop offset=".552" stop-color="#938d7b"/><stop offset=".748" stop-color="#585449"/><stop offset=".955" stop-color="#11100e"/><stop offset="1"/></radialGradient><radialGradient id="d" cx="397.412" cy="325.073" r="21.98" gradientTransform="matrix(1.5 0 0 1.483 -260.131 -319.48)" gradientUnits="userSpaceOnUse"><stop offset="0"/><stop offset=".155" stop-color="#4f4016"/><stop offset=".316" stop-color="#997d2a"/><stop offset=".449" stop-color="#d0aa39"/><stop offset=".548" stop-color="#f1c642"/><stop offset=".602" stop-color="#fed046"/><stop offset=".692" stop-color="#b99833"/><stop offset=".804" stop-color="#6b571d"/><stop offset=".896" stop-color="#31280e"/><stop offset=".964" stop-color="#0d0b04"/><stop offset="1"/></radialGradient><radialGradient id="e" cx="397.412" cy="325.074" r="16.122" gradientTransform="matrix(1.5 0 0 1.483 -260.131 -319.48)" gradientUnits="userSpaceOnUse"><stop offset="0"/><stop offset=".782"/><stop offset=".864" stop-color="#020201"/><stop offset=".893" stop-color="#090702"/><stop offset=".914" stop-color="#141106"/><stop offset=".931" stop-color="#251f0a"/><stop offset=".945" stop-color="#3b3110"/><stop offset=".958" stop-color="#574718"/><stop offset=".969" stop-color="#776121"/><stop offset=".98" stop-color="#9d802b"/><stop offset=".99" stop-color="#c8a437"/><stop offset=".999" stop-color="#f6c944"/><stop offset="1" stop-color="#fed046"/></radialGradient><radialGradient id="j" cx="237.006" cy="180.225" r="17.49" xlink:href="#b"/><radialGradient id="k" cx="237.006" cy="180.225" r="17.49" xlink:href="#c"/><radialGradient id="l" cx="331.425" cy="336.864" r="21.98" xlink:href="#d"/><radialGradient id="m" cx="331.425" cy="336.864" r="16.122" xlink:href="#e"/><radialGradient id="n" cx="137.525" cy="196.215" r="17.49" xlink:href="#b"/><radialGradient id="o" cx="137.525" cy="196.215" r="17.49" xlink:href="#c"/><radialGradient id="p" cx="265.104" cy="347.644" r="21.98" xlink:href="#d"/><radialGradient id="q" cx="265.104" cy="347.644" r="16.122" xlink:href="#e"/><radialGradient id="r" cx="45.105" cy="215.63" r="17.49" xlink:href="#b"/><radialGradient id="s" cx="45.105" cy="215.63" r="17.49" xlink:href="#c"/><radialGradient id="t" cx="203.491" cy="360.732" r="21.98" xlink:href="#d"/><radialGradient id="u" cx="203.491" cy="360.732" r="16.122" xlink:href="#e"/><radialGradient id="v" cx="59.595" cy="298.241" r="17.49" xlink:href="#b"/><radialGradient id="w" cx="59.595" cy="298.241" r="17.49" xlink:href="#c"/><radialGradient id="x" cx="213.151" cy="416.422" r="21.98" xlink:href="#d"/><radialGradient id="y" cx="213.151" cy="416.423" r="16.122" xlink:href="#e"/><radialGradient id="z" cx="79.277" cy="379.526" r="17.491" xlink:href="#b"/><radialGradient id="A" cx="79.277" cy="379.526" r="17.491" xlink:href="#c"/><radialGradient id="B" cx="226.272" cy="471.218" r="21.981" xlink:href="#d"/><radialGradient id="C" cx="226.272" cy="471.219" r="16.122" xlink:href="#e"/><radialGradient id="D" cx="104.554" cy="460.655" r="17.49" xlink:href="#b"/><radialGradient id="E" cx="104.554" cy="460.655" r="17.49" xlink:href="#c"/><radialGradient id="F" cx="243.124" cy="525.909" r="21.981" xlink:href="#d"/><radialGradient id="G" cx="243.124" cy="525.91" r="16.122" xlink:href="#e"/><radialGradient id="H" cx="208.987" cy="478.77" r="17.49" xlink:href="#b"/><radialGradient id="I" cx="208.987" cy="478.77" r="17.49" xlink:href="#c"/><radialGradient id="J" cx="312.745" cy="538.122" r="21.98" xlink:href="#d"/><radialGradient id="K" cx="312.745" cy="538.122" r="16.122" xlink:href="#e"/><radialGradient id="L" cx="325.996" cy="492.387" r="17.49" xlink:href="#b"/><radialGradient id="M" cx="325.996" cy="492.387" r="17.49" xlink:href="#c"/><radialGradient id="N" cx="390.752" cy="547.301" r="21.98" xlink:href="#d"/><radialGradient id="O" cx="390.752" cy="547.301" r="16.122" xlink:href="#e"/><radialGradient id="P" cx="429.038" cy="509.004" r="17.49" xlink:href="#b"/><radialGradient id="Q" cx="429.038" cy="509.004" r="17.49" xlink:href="#c"/><radialGradient id="R" cx="459.446" cy="558.502" r="21.981" xlink:href="#d"/><radialGradient id="S" cx="459.446" cy="558.503" r="16.122" xlink:href="#e"/><radialGradient id="T" cx="532.968" cy="520.491" r="17.49" xlink:href="#b"/><radialGradient id="U" cx="532.968" cy="520.491" r="17.49" xlink:href="#c"/><radialGradient id="V" cx="528.733" cy="566.246" r="21.981" xlink:href="#d"/><radialGradient id="W" cx="528.733" cy="566.247" r="16.121" xlink:href="#e"/><radialGradient id="X" cx="434.528" cy="145.246" r="17.49" xlink:href="#b"/><radialGradient id="Y" cx="434.528" cy="145.246" r="17.49" xlink:href="#c"/><radialGradient id="Z" cx="463.106" cy="313.284" r="21.981" xlink:href="#d"/><radialGradient id="aa" cx="463.106" cy="313.284" r="16.122" xlink:href="#e"/><radialGradient id="ab" cx="535.216" cy="133.895" r="17.49" xlink:href="#b"/><radialGradient id="ac" cx="535.216" cy="133.895" r="17.49" xlink:href="#c"/><radialGradient id="ad" cx="530.232" cy="305.632" r="21.98" xlink:href="#d"/><radialGradient id="ae" cx="530.232" cy="305.632" r="16.121" xlink:href="#e"/><radialGradient id="af" cx="-107.894" cy="372.148" r="17.49" gradientTransform="matrix(-1 0 0 1 626.555 -210.914)" xlink:href="#b"/><radialGradient id="ag" cx="-107.894" cy="372.148" r="17.49" gradientTransform="matrix(-1 0 0 1 626.555 -210.914)" xlink:href="#c"/><radialGradient id="ah" cx="61.612" cy="324.062" r="21.98" gradientTransform="matrix(-1.5 0 0 1.483 826.866 -319.48)" xlink:href="#d"/><radialGradient id="ai" cx="61.612" cy="324.063" r="16.121" gradientTransform="matrix(-1.5 0 0 1.483 826.866 -319.48)" xlink:href="#e"/><radialGradient id="aj" cx="-206.875" cy="389.639" r="17.491" gradientTransform="matrix(-1 0 0 1 626.555 -210.914)" xlink:href="#b"/><radialGradient id="ak" cx="-206.875" cy="389.639" r="17.491" gradientTransform="matrix(-1 0 0 1 626.555 -210.914)" xlink:href="#c"/><radialGradient id="al" cx="-4.376" cy="335.853" r="21.981" gradientTransform="matrix(-1.5 0 0 1.483 826.866 -319.48)" xlink:href="#d"/><radialGradient id="am" cx="-4.376" cy="335.853" r="16.122" gradientTransform="matrix(-1.5 0 0 1.483 826.866 -319.48)" xlink:href="#e"/><radialGradient id="an" cx="-306.355" cy="405.629" r="17.491" gradientTransform="matrix(-1 0 0 1 626.555 -210.914)" xlink:href="#b"/><radialGradient id="ao" cx="-306.355" cy="405.629" r="17.491" gradientTransform="matrix(-1 0 0 1 626.555 -210.914)" xlink:href="#c"/><radialGradient id="ap" cx="-70.696" cy="346.632" r="21.981" gradientTransform="matrix(-1.5 0 0 1.483 826.866 -319.48)" xlink:href="#d"/><radialGradient id="aq" cx="-70.696" cy="346.633" r="16.122" gradientTransform="matrix(-1.5 0 0 1.483 826.866 -319.48)" xlink:href="#e"/><radialGradient id="ar" cx="-398.775" cy="425.044" r="17.491" gradientTransform="matrix(-1 0 0 1 626.555 -210.914)" xlink:href="#b"/><radialGradient id="as" cx="-398.775" cy="425.044" r="17.491" gradientTransform="matrix(-1 0 0 1 626.555 -210.914)" xlink:href="#c"/><radialGradient id="at" cx="-132.309" cy="359.721" r="21.981" gradientTransform="matrix(-1.5 0 0 1.483 826.866 -319.48)" xlink:href="#d"/><radialGradient id="au" cx="-132.309" cy="359.721" r="16.122" gradientTransform="matrix(-1.5 0 0 1.483 826.866 -319.48)" xlink:href="#e"/><radialGradient id="av" cx="-384.285" cy="507.655" r="17.491" gradientTransform="matrix(-1 0 0 1 626.555 -210.914)" xlink:href="#b"/><radialGradient id="aw" cx="-384.285" cy="507.655" r="17.491" gradientTransform="matrix(-1 0 0 1 626.555 -210.914)" xlink:href="#c"/><radialGradient id="ax" cx="-122.649" cy="415.411" r="21.981" gradientTransform="matrix(-1.5 0 0 1.483 826.866 -319.48)" xlink:href="#d"/><radialGradient id="ay" cx="-122.649" cy="415.411" r="16.122" gradientTransform="matrix(-1.5 0 0 1.483 826.866 -319.48)" xlink:href="#e"/><radialGradient id="az" cx="-364.604" cy="588.94" r="17.491" gradientTransform="matrix(-1.001 0 0 1 626.299 -210.914)" xlink:href="#b"/><radialGradient id="aA" cx="-364.604" cy="588.94" r="17.491" gradientTransform="matrix(-1.001 0 0 1 626.299 -210.914)" xlink:href="#c"/><radialGradient id="aB" cx="-109.528" cy="470.207" r="21.981" gradientTransform="matrix(-1.501 0 0 1.483 826.765 -319.48)" xlink:href="#d"/><radialGradient id="aC" cx="-109.528" cy="470.208" r="16.122" gradientTransform="matrix(-1.501 0 0 1.483 826.765 -319.48)" xlink:href="#e"/><radialGradient id="aD" cx="-339.326" cy="670.069" r="17.491" gradientTransform="matrix(-1 0 0 1 626.555 -210.914)" xlink:href="#b"/><radialGradient id="aE" cx="-339.326" cy="670.069" r="17.491" gradientTransform="matrix(-1 0 0 1 626.555 -210.914)" xlink:href="#c"/><radialGradient id="aF" cx="-92.676" cy="524.898" r="21.981" gradientTransform="matrix(-1.5 0 0 1.483 826.866 -319.48)" xlink:href="#d"/><radialGradient id="aG" cx="-92.676" cy="524.899" r="16.122" gradientTransform="matrix(-1.5 0 0 1.483 826.866 -319.48)" xlink:href="#e"/><radialGradient id="aH" cx="-234.894" cy="688.184" r="17.49" gradientTransform="matrix(-1 0 0 1 626.555 -210.914)" xlink:href="#b"/><radialGradient id="aI" cx="-234.894" cy="688.184" r="17.49" gradientTransform="matrix(-1 0 0 1 626.555 -210.914)" xlink:href="#c"/><radialGradient id="aJ" cx="-23.055" cy="537.11" r="21.98" gradientTransform="matrix(-1.5 0 0 1.483 826.866 -319.48)" xlink:href="#d"/><radialGradient id="aK" cx="-23.055" cy="537.11" r="16.121" gradientTransform="matrix(-1.5 0 0 1.483 826.866 -319.48)" xlink:href="#e"/><radialGradient id="aL" cx="-117.885" cy="701.801" r="17.491" gradientTransform="matrix(-1 0 0 1 626.555 -210.914)" xlink:href="#b"/><radialGradient id="aM" cx="-117.885" cy="701.801" r="17.491" gradientTransform="matrix(-1 0 0 1 626.555 -210.914)" xlink:href="#c"/><radialGradient id="aN" cx="54.951" cy="546.29" r="21.98" gradientTransform="matrix(-1.5 0 0 1.483 826.866 -319.48)" xlink:href="#d"/><radialGradient id="aO" cx="54.951" cy="546.29" r="16.122" gradientTransform="matrix(-1.5 0 0 1.483 826.866 -319.48)" xlink:href="#e"/><radialGradient id="aP" cx="-14.843" cy="718.418" r="17.49" gradientTransform="matrix(-1 0 0 1 626.555 -210.914)" xlink:href="#b"/><radialGradient id="aQ" cx="-14.843" cy="718.418" r="17.49" gradientTransform="matrix(-1 0 0 1 626.555 -210.914)" xlink:href="#c"/><radialGradient id="aR" cx="123.645" cy="557.491" r="21.981" gradientTransform="matrix(-1.5 0 0 1.483 826.866 -319.48)" xlink:href="#d"/><radialGradient id="aS" cx="123.645" cy="557.492" r="16.121" gradientTransform="matrix(-1.5 0 0 1.483 826.866 -319.48)" xlink:href="#e"/><radialGradient id="aT" cx="-9.353" cy="354.66" r="17.49" gradientTransform="matrix(-1 0 0 1 626.555 -210.914)" xlink:href="#b"/><radialGradient id="aU" cx="-9.353" cy="354.66" r="17.49" gradientTransform="matrix(-1 0 0 1 626.555 -210.914)" xlink:href="#c"/><radialGradient id="aV" cx="127.305" cy="312.273" r="21.98" gradientTransform="matrix(-1.5 0 0 1.483 826.866 -319.48)" xlink:href="#d"/><radialGradient id="aW" cx="127.305" cy="312.273" r="16.121" gradientTransform="matrix(-1.5 0 0 1.483 826.866 -319.48)" xlink:href="#e"/></defs><g data-name="Calque 1"><path fill="#bf0601" d="M816.101 166.342H686.564V58.938h129.537l-30 53.701 30 53.703zm-573.206 0h129.536V58.938H242.895l30 52.203-30 55.201z"/><path fill="url(#a)" d="M372.431 166.342l-90.846-49.938L372.4 86.392l.031 79.95z"/><path fill="url(#f)" d="M686.564 166.342l90.847-49.938-90.847-30.012v79.95z"/><path d="M837.23 327.318s-122.785-9-248-9c-125.129 0-247.827 9-247.827 9v-107.4s117.323-9 247.913-9 247.914 9 247.914 9z" transform="translate(-59.819 -210.914)" fill="url(#g)"/><text transform="translate(337.032 94.194)" font-size="100" fill="#7f0303" font-family="PTSans-Bold,PT Sans" font-weight="700">J<tspan x="33.4" y="0" letter-spacing="-.031em">A</tspan><tspan x="90.802" y="0">CK</tspan><tspan x="208.7" y="0" letter-spacing="-.011em">P</tspan><tspan x="264.801" y="0" letter-spacing="-.039em">O</tspan><tspan x="327.901" y="0" letter-spacing="-.04em">T</tspan></text><text transform="translate(339.032 92.194)" font-size="100" fill="#fff" font-family="PTSans-Bold,PT Sans" font-weight="700">J<tspan x="33.4" y="0" letter-spacing="-.031em">A</tspan><tspan x="90.802" y="0">CK</tspan><tspan x="208.7" y="0" letter-spacing="-.011em">P</tspan><tspan x="264.801" y="0" letter-spacing="-.039em">O</tspan><tspan x="327.901" y="0" letter-spacing="-.04em">T</tspan></text><g opacity=".5"><path d="M1009.999 486.334a46.321 46.321 0 0 1-39.062 34.917l-410.885 53.016a194.063 194.063 0 0 1-49.674 0L99.494 521.251a46.321 46.321 0 0 1-39.062-34.917L2.343 249.229a28.917 28.917 0 0 1 23.151-35.373l476.6-82.543a194.1 194.1 0 0 1 66.244 0l476.6 82.543a28.917 28.917 0 0 1 23.15 35.373z" opacity=".091"/><path d="M1008.654 483.227a46.188 46.188 0 0 1-38.95 34.817L559.981 570.91a193.584 193.584 0 0 1-49.533 0l-409.72-52.866a46.187 46.187 0 0 1-38.947-34.817L3.853 246.793a28.834 28.834 0 0 1 23.085-35.272l475.249-82.31a193.548 193.548 0 0 1 66.057 0l475.251 82.31a28.833 28.833 0 0 1 23.085 35.272z" opacity=".182"/><path d="M1007.309 480.119a46.058 46.058 0 0 1-38.841 34.719l-408.557 52.715a192.933 192.933 0 0 1-49.393 0l-408.555-52.715a46.057 46.057 0 0 1-38.84-34.719L5.363 244.358a28.753 28.753 0 0 1 23.018-35.172l473.9-82.075a192.991 192.991 0 0 1 65.867 0l473.9 82.075a28.752 28.752 0 0 1 23.02 35.173z" opacity=".273"/><path d="M1005.963 477.012a45.925 45.925 0 0 1-38.73 34.62l-407.392 52.564a192.372 192.372 0 0 1-49.252 0l-407.391-52.564a45.926 45.926 0 0 1-38.729-34.62l-57.6-235.09a28.669 28.669 0 0 1 22.954-35.072l472.549-81.842a192.439 192.439 0 0 1 65.68 0l472.551 81.842a28.669 28.669 0 0 1 22.954 35.072z" opacity=".364"/><path d="M1004.619 473.904A45.8 45.8 0 0 1 966 508.425L559.771 560.84a191.893 191.893 0 0 1-49.111 0l-406.228-52.414a45.8 45.8 0 0 1-38.619-34.521L8.381 239.486a28.589 28.589 0 0 1 22.89-34.972l471.2-81.607a191.892 191.892 0 0 1 65.492 0l471.2 81.607a28.589 28.589 0 0 1 22.889 34.973z" opacity=".455"/><path d="M1003.273 470.798a45.663 45.663 0 0 1-38.508 34.421L559.7 557.486a191.317 191.317 0 0 1-48.969 0l-405.064-52.267a45.661 45.661 0 0 1-38.508-34.421L9.892 237.05a28.506 28.506 0 0 1 22.823-34.871l469.848-81.374a191.346 191.346 0 0 1 65.3 0l469.851 81.374a28.505 28.505 0 0 1 22.822 34.871z" opacity=".545"/><path d="M1001.928 467.686a45.533 45.533 0 0 1-38.4 34.322l-403.9 52.114a190.838 190.838 0 0 1-48.828 0l-403.9-52.114a45.531 45.531 0 0 1-38.4-34.322L11.4 234.61a28.426 28.426 0 0 1 22.757-34.771l468.5-81.139a190.789 190.789 0 0 1 65.117 0l468.5 81.139a28.425 28.425 0 0 1 22.757 34.772z" opacity=".636"/><path d="M1000.581 464.586a45.4 45.4 0 0 1-38.286 34.224l-402.736 51.961a190.277 190.277 0 0 1-48.687 0l-402.736-51.964a45.4 45.4 0 0 1-38.287-34.221l-56.938-232.4a28.343 28.343 0 0 1 22.692-34.671l467.147-80.906a190.243 190.243 0 0 1 64.93 0l467.149 80.906a28.343 28.343 0 0 1 22.691 34.671z" opacity=".727"/><path d="M999.238 461.476a45.27 45.27 0 0 1-38.177 34.125l-401.572 51.812a189.617 189.617 0 0 1-48.547 0L109.37 495.601a45.27 45.27 0 0 1-38.176-34.125L14.421 229.743a28.262 28.262 0 0 1 22.626-34.571l465.8-80.671a189.679 189.679 0 0 1 64.74 0l465.8 80.671a28.262 28.262 0 0 1 22.626 34.571z" opacity=".818"/><path d="M997.892 458.368a45.138 45.138 0 0 1-38.065 34.025l-400.409 51.664a189.146 189.146 0 0 1-48.406 0l-400.407-51.663a45.136 45.136 0 0 1-38.065-34.025L15.931 227.308a28.179 28.179 0 0 1 22.561-34.471l464.447-80.438a189.133 189.133 0 0 1 64.553 0l464.449 80.438a28.178 28.178 0 0 1 22.561 34.471z" opacity=".909"/><path d="M996.547 455.261a45.008 45.008 0 0 1-37.955 33.927L559.348 540.7a188.586 188.586 0 0 1-48.266 0L111.84 489.186a45.006 45.006 0 0 1-37.959-33.925l-56.44-230.389a28.1 28.1 0 0 1 22.5-34.371l463.1-80.2a188.581 188.581 0 0 1 64.365 0l463.1 80.2a28.1 28.1 0 0 1 22.5 34.371z"/></g><path d="M1056.366 666.175a45.008 45.008 0 0 1-37.955 33.927l-399.244 51.512a188.586 188.586 0 0 1-48.266 0L171.659 700.1a45.006 45.006 0 0 1-37.959-33.925L77.26 435.786a28.1 28.1 0 0 1 22.5-34.371l463.1-80.2a188.581 188.581 0 0 1 64.365 0l463.1 80.2a28.1 28.1 0 0 1 22.5 34.371z" transform="translate(-59.819 -210.914)" stroke-miterlimit="10" stroke-width="4.5" fill="url(#h)" stroke="url(#i)"/><path d="M516.843 496.069l-389.239-50.222a14.712 14.712 0 0 1-12.407-11.09l-45.989-187.7a14.712 14.712 0 0 1 11.779-18l429.724-74.421a143.658 143.658 0 0 1 49.007 0l429.729 74.426a14.712 14.712 0 0 1 11.779 18l-45.984 187.692a14.711 14.711 0 0 1-12.406 11.09L553.59 496.068a143.467 143.467 0 0 1-36.747.001z" fill="#f6ebcf"/><path d="M516.843 496.069l-389.239-50.222a14.712 14.712 0 0 1-12.407-11.09l-45.989-187.7a14.712 14.712 0 0 1 11.779-18l429.724-74.421a143.658 143.658 0 0 1 49.007 0l429.729 74.426a14.712 14.712 0 0 1 11.779 18l-45.984 187.692a14.711 14.711 0 0 1-12.406 11.09L553.59 496.068a143.467 143.467 0 0 1-36.747.001z" fill="none" stroke="#c90" stroke-miterlimit="10" stroke-width="3"/><circle cx="335.987" cy="162.734" r="17.49" style="mix-blend-mode:screen" fill="url(#b)"/><circle cx="335.987" cy="162.734" r="17.49" style="mix-blend-mode:overlay" opacity=".5" fill="url(#c)"/><ellipse cx="335.987" cy="162.734" rx="32.971" ry="32.605" style="mix-blend-mode:screen" opacity=".5" fill="url(#d)"/><ellipse cx="335.987" cy="162.734" rx="24.182" ry="23.915" style="mix-blend-mode:screen" opacity=".2" fill="url(#e)"/><circle cx="237.005" cy="180.225" r="17.49" style="mix-blend-mode:screen" fill="url(#j)"/><circle cx="237.005" cy="180.225" r="17.49" style="mix-blend-mode:overlay" opacity=".5" fill="url(#k)"/><ellipse cx="237.005" cy="180.224" rx="32.971" ry="32.605" style="mix-blend-mode:screen" opacity=".5" fill="url(#l)"/><ellipse cx="237.005" cy="180.225" rx="24.182" ry="23.915" style="mix-blend-mode:screen" opacity=".2" fill="url(#m)"/><circle cx="137.525" cy="196.215" r="17.49" style="mix-blend-mode:screen" fill="url(#n)"/><circle cx="137.525" cy="196.215" r="17.49" style="mix-blend-mode:overlay" opacity=".5" fill="url(#o)"/><ellipse cx="137.525" cy="196.215" rx="32.971" ry="32.605" style="mix-blend-mode:screen" opacity=".5" fill="url(#p)"/><ellipse cx="137.525" cy="196.215" rx="24.182" ry="23.915" style="mix-blend-mode:screen" opacity=".2" fill="url(#q)"/><circle cx="45.105" cy="215.63" r="17.49" style="mix-blend-mode:screen" fill="url(#r)"/><circle cx="45.105" cy="215.63" r="17.49" style="mix-blend-mode:overlay" opacity=".5" fill="url(#s)"/><ellipse cx="45.105" cy="215.63" rx="32.971" ry="32.605" style="mix-blend-mode:screen" opacity=".5" fill="url(#t)"/><ellipse cx="45.105" cy="215.63" rx="24.182" ry="23.915" style="mix-blend-mode:screen" opacity=".2" fill="url(#u)"/><circle cx="59.595" cy="298.241" r="17.49" style="mix-blend-mode:screen" fill="url(#v)"/><circle cx="59.595" cy="298.241" r="17.49" style="mix-blend-mode:overlay" opacity=".5" fill="url(#w)"/><ellipse cx="59.595" cy="298.241" rx="32.971" ry="32.605" style="mix-blend-mode:screen" opacity=".5" fill="url(#x)"/><ellipse cx="59.595" cy="298.241" rx="24.182" ry="23.915" style="mix-blend-mode:screen" opacity=".2" fill="url(#y)"/><circle cx="79.277" cy="379.526" r="17.491" style="mix-blend-mode:screen" fill="url(#z)"/><circle cx="79.277" cy="379.526" r="17.491" style="mix-blend-mode:overlay" opacity=".5" fill="url(#A)"/><ellipse cx="79.277" cy="379.525" rx="32.971" ry="32.605" style="mix-blend-mode:screen" opacity=".5" fill="url(#B)"/><ellipse cx="79.277" cy="379.526" rx="24.182" ry="23.916" style="mix-blend-mode:screen" opacity=".2" fill="url(#C)"/><circle cx="104.554" cy="460.655" r="17.49" style="mix-blend-mode:screen" fill="url(#D)"/><circle cx="104.554" cy="460.655" r="17.49" style="mix-blend-mode:overlay" opacity=".5" fill="url(#E)"/><ellipse cx="104.554" cy="460.654" rx="32.971" ry="32.606" style="mix-blend-mode:screen" opacity=".5" fill="url(#F)"/><ellipse cx="104.554" cy="460.655" rx="24.182" ry="23.915" style="mix-blend-mode:screen" opacity=".2" fill="url(#G)"/><circle cx="208.987" cy="478.77" r="17.49" style="mix-blend-mode:screen" fill="url(#H)"/><circle cx="208.987" cy="478.77" r="17.49" style="mix-blend-mode:overlay" opacity=".5" fill="url(#I)"/><ellipse cx="208.987" cy="478.77" rx="32.971" ry="32.605" style="mix-blend-mode:screen" opacity=".5" fill="url(#J)"/><ellipse cx="208.987" cy="478.769" rx="24.182" ry="23.915" style="mix-blend-mode:screen" opacity=".2" fill="url(#K)"/><circle cx="325.996" cy="492.387" r="17.49" style="mix-blend-mode:screen" fill="url(#L)"/><circle cx="325.996" cy="492.387" r="17.49" style="mix-blend-mode:overlay" opacity=".5" fill="url(#M)"/><ellipse cx="325.996" cy="492.387" rx="32.971" ry="32.605" style="mix-blend-mode:screen" opacity=".5" fill="url(#N)"/><ellipse cx="325.996" cy="492.387" rx="24.182" ry="23.915" style="mix-blend-mode:screen" opacity=".2" fill="url(#O)"/><circle cx="429.038" cy="509.004" r="17.49" style="mix-blend-mode:screen" fill="url(#P)"/><circle cx="429.038" cy="509.004" r="17.49" style="mix-blend-mode:overlay" opacity=".5" fill="url(#Q)"/><ellipse cx="429.038" cy="509.003" rx="32.971" ry="32.606" style="mix-blend-mode:screen" opacity=".5" fill="url(#R)"/><ellipse cx="429.038" cy="509.004" rx="24.182" ry="23.915" style="mix-blend-mode:screen" opacity=".2" fill="url(#S)"/><circle cx="532.968" cy="520.491" r="17.49" style="mix-blend-mode:screen" fill="url(#T)"/><circle cx="532.968" cy="520.491" r="17.49" style="mix-blend-mode:overlay" opacity=".5" fill="url(#U)"/><ellipse cx="532.968" cy="520.49" rx="32.971" ry="32.606" style="mix-blend-mode:screen" opacity=".5" fill="url(#V)"/><ellipse cx="532.968" cy="520.491" rx="24.182" ry="23.915" style="mix-blend-mode:screen" opacity=".2" fill="url(#W)"/><circle cx="434.528" cy="145.246" r="17.49" style="mix-blend-mode:screen" fill="url(#X)"/><circle cx="434.528" cy="145.246" r="17.49" style="mix-blend-mode:overlay" opacity=".5" fill="url(#Y)"/><ellipse cx="434.528" cy="145.246" rx="32.971" ry="32.605" style="mix-blend-mode:screen" opacity=".5" fill="url(#Z)"/><ellipse cx="434.528" cy="145.246" rx="24.182" ry="23.915" style="mix-blend-mode:screen" opacity=".2" fill="url(#aa)"/><circle cx="535.216" cy="133.895" r="17.49" style="mix-blend-mode:screen" fill="url(#ab)"/><circle cx="535.216" cy="133.895" r="17.49" style="mix-blend-mode:overlay" opacity=".5" fill="url(#ac)"/><ellipse cx="535.216" cy="133.894" rx="32.971" ry="32.605" style="mix-blend-mode:screen" opacity=".5" fill="url(#ad)"/><ellipse cx="535.216" cy="133.895" rx="24.182" ry="23.915" style="mix-blend-mode:screen" opacity=".2" fill="url(#ae)"/><circle cx="734.448" cy="161.234" r="17.49" style="mix-blend-mode:screen" fill="url(#af)"/><circle cx="734.448" cy="161.234" r="17.49" style="mix-blend-mode:overlay" opacity=".5" fill="url(#ag)"/><ellipse cx="734.448" cy="161.234" rx="32.971" ry="32.605" style="mix-blend-mode:screen" opacity=".5" fill="url(#ah)"/><ellipse cx="734.448" cy="161.234" rx="24.182" ry="23.915" style="mix-blend-mode:screen" opacity=".2" fill="url(#ai)"/><circle cx="833.43" cy="178.725" r="17.491" style="mix-blend-mode:screen" fill="url(#aj)"/><circle cx="833.43" cy="178.725" r="17.491" style="mix-blend-mode:overlay" opacity=".5" fill="url(#ak)"/><ellipse cx="833.43" cy="178.724" rx="32.972" ry="32.605" style="mix-blend-mode:screen" opacity=".5" fill="url(#al)"/><ellipse cx="833.43" cy="178.725" rx="24.183" ry="23.915" style="mix-blend-mode:screen" opacity=".2" fill="url(#am)"/><circle cx="932.911" cy="194.715" r="17.491" style="mix-blend-mode:screen" fill="url(#an)"/><circle cx="932.911" cy="194.715" r="17.491" style="mix-blend-mode:overlay" opacity=".5" fill="url(#ao)"/><ellipse cx="932.911" cy="194.715" rx="32.972" ry="32.605" style="mix-blend-mode:screen" opacity=".5" fill="url(#ap)"/><ellipse cx="932.911" cy="194.715" rx="24.183" ry="23.915" style="mix-blend-mode:screen" opacity=".2" fill="url(#aq)"/><circle cx="1025.331" cy="214.13" r="17.491" style="mix-blend-mode:screen" fill="url(#ar)"/><circle cx="1025.331" cy="214.13" r="17.491" style="mix-blend-mode:overlay" opacity=".5" fill="url(#as)"/><ellipse cx="1025.331" cy="214.13" rx="32.972" ry="32.605" style="mix-blend-mode:screen" opacity=".5" fill="url(#at)"/><ellipse cx="1025.331" cy="214.13" rx="24.183" ry="23.915" style="mix-blend-mode:screen" opacity=".2" fill="url(#au)"/><circle cx="1010.841" cy="296.741" r="17.491" style="mix-blend-mode:screen" fill="url(#av)"/><circle cx="1010.841" cy="296.741" r="17.491" style="mix-blend-mode:overlay" opacity=".5" fill="url(#aw)"/><ellipse cx="1010.841" cy="296.741" rx="32.972" ry="32.605" style="mix-blend-mode:screen" opacity=".5" fill="url(#ax)"/><ellipse cx="1010.841" cy="296.741" rx="24.183" ry="23.915" style="mix-blend-mode:screen" opacity=".2" fill="url(#ay)"/><ellipse cx="991.184" cy="378.026" rx="17.505" ry="17.491" style="mix-blend-mode:screen" fill="url(#az)"/><ellipse cx="991.184" cy="378.026" rx="17.505" ry="17.491" style="mix-blend-mode:overlay" opacity=".5" fill="url(#aA)"/><ellipse cx="991.184" cy="378.025" rx="32.997" ry="32.605" style="mix-blend-mode:screen" opacity=".5" fill="url(#aB)"/><ellipse cx="991.184" cy="378.026" rx="24.201" ry="23.916" style="mix-blend-mode:screen" opacity=".2" fill="url(#aC)"/><circle cx="965.882" cy="459.155" r="17.491" style="mix-blend-mode:screen" fill="url(#aD)"/><circle cx="965.882" cy="459.155" r="17.491" style="mix-blend-mode:overlay" opacity=".5" fill="url(#aE)"/><ellipse cx="965.882" cy="459.154" rx="32.972" ry="32.606" style="mix-blend-mode:screen" opacity=".5" fill="url(#aF)"/><ellipse cx="965.882" cy="459.155" rx="24.183" ry="23.915" style="mix-blend-mode:screen" opacity=".2" fill="url(#aG)"/><circle cx="861.448" cy="477.27" r="17.49" style="mix-blend-mode:screen" fill="url(#aH)"/><circle cx="861.448" cy="477.27" r="17.49" style="mix-blend-mode:overlay" opacity=".5" fill="url(#aI)"/><ellipse cx="861.448" cy="477.27" rx="32.971" ry="32.604" style="mix-blend-mode:screen" opacity=".5" fill="url(#aJ)"/><ellipse cx="861.448" cy="477.269" rx="24.182" ry="23.915" style="mix-blend-mode:screen" opacity=".2" fill="url(#aK)"/><circle cx="744.44" cy="490.887" r="17.491" style="mix-blend-mode:screen" fill="url(#aL)"/><circle cx="744.44" cy="490.887" r="17.491" style="mix-blend-mode:overlay" opacity=".5" fill="url(#aM)"/><ellipse cx="744.44" cy="490.887" rx="32.972" ry="32.605" style="mix-blend-mode:screen" opacity=".5" fill="url(#aN)"/><ellipse cx="744.44" cy="490.887" rx="24.183" ry="23.915" style="mix-blend-mode:screen" opacity=".2" fill="url(#aO)"/><circle cx="641.398" cy="507.504" r="17.49" style="mix-blend-mode:screen" fill="url(#aP)"/><circle cx="641.398" cy="507.504" r="17.49" style="mix-blend-mode:overlay" opacity=".5" fill="url(#aQ)"/><ellipse cx="641.399" cy="507.503" rx="32.971" ry="32.606" style="mix-blend-mode:screen" opacity=".5" fill="url(#aR)"/><ellipse cx="641.399" cy="507.504" rx="24.182" ry="23.915" style="mix-blend-mode:screen" opacity=".2" fill="url(#aS)"/><circle cx="635.908" cy="143.746" r="17.49" style="mix-blend-mode:screen" fill="url(#aT)"/><circle cx="635.908" cy="143.746" r="17.49" style="mix-blend-mode:overlay" opacity=".5" fill="url(#aU)"/><ellipse cx="635.908" cy="143.746" rx="32.971" ry="32.605" style="mix-blend-mode:screen" opacity=".5" fill="url(#aV)"/><ellipse cx="635.908" cy="143.746" rx="24.182" ry="23.915" style="mix-blend-mode:screen" opacity=".2" fill="url(#aW)"/></g></svg>