<svg data-name="Layer 1" xmlns="http://www.w3.org/2000/svg" viewBox="0 0 307.77 74.901"><path fill="#76aa9f" fill-rule="evenodd" d="M87.624 74.901l1.93-.05 1.909-.139 1.871-.238 1.856-.331 1.806-.416 1.783-.505 1.742-.594 1.706-.67 1.666-.757 1.618-.821 1.566-.911 1.53-.972 1.465-1.047 1.414-1.113 1.365-1.175 1.302-1.25 1.25-1.302 1.174-1.366 1.113-1.413 1.048-1.466.974-1.527.907-1.57.821-1.616.759-1.666.669-1.707.593-1.744.508-1.779.414-1.807.329-1.856.24-1.871.141-1.907.048-1.933-.048-1.921-.141-1.895-.24-1.869-.329-1.833-.414-1.805-.508-1.77-.593-1.742-.669-1.693-.759-1.654-.821-1.619-.907-1.553-.974-1.528-1.048-1.466-1.113-1.402-1.174-1.363-1.25-1.303-1.302-1.238-1.365-1.174-1.414-1.113-1.465-1.047-1.53-.974-1.566-.896-1.618-.82-1.666-.761-1.706-.668-1.742-.594-1.783-.505L95.19.759 93.334.432 91.463.191 89.554.05 87.624 0l-1.923.05-1.907.141-1.868.241-1.846.327-1.806.417-1.779.505-1.733.594-1.706.668-1.656.761-1.603.82-1.566.896-1.515.974-1.465 1.047-1.416 1.113-1.352 1.174-1.302 1.238-1.237 1.303-1.176 1.363-1.111 1.402-1.034 1.466-.974 1.528-.898 1.553-.833 1.619-.746 1.654-.67 1.693-.579 1.742-.507 1.77-.417 1.805-.328 1.833-.239 1.869-.141 1.895-.051 1.921.051 1.933.141 1.907.239 1.871.328 1.856.417 1.807.507 1.779.579 1.744.67 1.707.746 1.666.833 1.616.898 1.57.974 1.527 1.034 1.466 1.111 1.413 1.176 1.366 1.237 1.302 1.302 1.25 1.352 1.175 1.416 1.113 1.465 1.047 1.515.972 1.566.911 1.603.821 1.656.757 1.706.67 1.733.594 1.779.505 1.806.416 1.846.331 1.868.238 1.907.139 1.923.05z"/><path fill="#5d9186" fill-rule="evenodd" d="M37.521 74.901l1.918-.05 1.908-.139 1.872-.238 1.843-.331 1.807-.416 1.78-.505 1.732-.594 1.705-.67 1.654-.757 1.605-.821 1.567-.911 1.514-.972 1.468-1.047 1.414-1.113 1.351-1.175 1.302-1.25 1.238-1.302 1.175-1.366 1.111-1.413 1.035-1.466.976-1.527.896-1.57.833-1.616.744-1.666.671-1.707.58-1.744.505-1.779.419-1.807.327-1.856.241-1.871.137-1.907.052-1.933-.052-1.921-.137-1.895-.241-1.869-.327-1.833-.419-1.805-.505-1.77-.58-1.742-.671-1.693-.744-1.654-.833-1.619-.896-1.553-.976-1.528-1.035-1.466-1.111-1.402-1.175-1.363-1.238-1.303-1.302-1.238-1.351-1.174-1.414-1.113-1.468-1.047-1.514-.974-1.567-.896-1.605-.82-1.654-.761-1.705-.668-1.732-.594-1.78-.505-1.807-.417-1.843-.327-1.872-.241L39.439.05 37.521 0l-1.935.05-1.906.141-1.87.241-1.858.327-1.807.417-1.781.505-1.743.594-1.704.668-1.668.761-1.618.82-1.566.896-1.529.974-1.466 1.047-1.414 1.113-1.364 1.174-1.3 1.238-1.251 1.303-1.175 1.363-1.112 1.402L6.405 16.5l-.972 1.528-.911 1.553-.82 1.619-.759 1.654-.669 1.693-.593 1.742-.505 1.77-.417 1.805-.329 1.833-.241 1.869-.139 1.895L0 37.382l.05 1.933.139 1.907.241 1.871.329 1.856.417 1.807.505 1.779.593 1.744.669 1.707.759 1.666.82 1.616.911 1.57.972 1.527 1.049 1.466 1.112 1.413 1.175 1.366 1.251 1.302 1.3 1.25 1.364 1.175 1.414 1.113 1.466 1.047 1.529.972 1.566.911 1.618.821 1.668.757 1.704.67 1.743.594 1.781.505 1.807.416 1.858.331 1.87.238 1.906.139 1.935.05z"/><path fill="#76aa9f" fill-rule="evenodd" d="M58.189 14.365h19.896V12.33H59.907l-1.718 2.035zm-2.983 4.521h22.879v-2.035H56.407l-1.201 2.035zm-2.222 4.511h25.101v-2.035H53.868l-.884 2.035zm-1.53 4.522h26.631v-2.033H52.086l-.632 2.033zm.886 21.856h25.808v-2.034H51.706l.634 2.034zm1.906 4.522h23.902v-2.034h-24.85l.948 2.034zm2.677 4.51h21.225v-2.034H55.649l1.274 2.034zm3.691 4.523h17.534v-2.047H58.833l1.781 2.047zm-10.056-30.9h27.527v-2.035H50.949l-.391 2.035zm16.775 12.836h10.499V43.23H67.714l-.381 2.036zm.836-4.512h9.663v-2.046h-9.285l-.378 2.046zm-18.306-2.046h2.73v2.046H49.99l-.127-2.046z"/><path fill="#fff" fill-rule="evenodd" d="M44.77 36.243l-.176-.012-.176-.024-.165-.025-.163-.026-.153-.024-.163-.026-.163-.025-.18-.026-.175-.024-.202-.014-.228-.013-.239-.013h-.266l-.291.013-.329.027-.365.024-.252.039-.241.038-.216.075-.188.074-.178.09-.162.101-.129.128-.115.112-.074.139-.062.139-.026.151v.152l.037.165.051.163.1.165.128.165.252.238.305.191.352.163.38.139.403.127.416.139.418.153.404.163.38.214.353.265.315.318.266.391.202.479.128.569.049.683-.049.796-.089.593-.152.518-.203.48-.252.416-.289.368-.331.315-.353.278-.389.241-.408.189-.416.163-.429.127-.442.1-.43.078-.415.037-.417.026-.392.011h-.546l-.504-.011h-.442l-.416-.012-.38-.014-.34-.026-.303-.025-.29-.038-.267-.026-.239-.049-.241-.04-.214-.061-.216-.051-.2-.077-.204-.074-.215-.077.569-2.791.114.025.137.039.178.048.216.053.226.05.254.05.278.062.301.052.317.049.329.052.341.037.354.038.364.012.371.013h.362l.367-.013.368-.074.291-.103.226-.137.178-.177.126-.178.101-.203.064-.2.049-.19.028-.367-.115-.316-.217-.254-.314-.213-.38-.189-.442-.19-.492-.178-.493-.201-.505-.226-.48-.266-.442-.329-.405-.391-.316-.481-.227-.569-.115-.68.013-.809.064-.493.09-.469.126-.428.149-.404.203-.379.227-.329.267-.317.316-.275.368-.241.402-.203.454-.189.505-.139.571-.115.619-.088.68-.05.748-.014h.464l.43.014.394.014.352.012.317.024.29.025.252.026.227.026.215.024.178.038.163.026.154.025.125.024.113.015.113.025.102.013-.646 2.852z"/><path fill="none" stroke="#fff" stroke-miterlimit="2.613" stroke-width=".216" d="M44.77 36.243l-.176-.012-.176-.024-.165-.025-.163-.026-.153-.024-.163-.026-.163-.025-.18-.026-.175-.024-.202-.014-.228-.013-.239-.013h-.266l-.291.013-.329.027-.365.024-.252.039-.241.038-.216.075-.188.074-.178.09-.162.101-.129.128-.115.112-.074.139-.062.139-.026.151v.152l.037.165.051.163.1.165.128.165.252.238.305.191.352.163.38.139.403.127.416.139.418.153.404.163.38.214.353.265.315.318.266.391.202.479.128.569.049.683-.049.796-.089.593-.152.518-.203.48-.252.416-.289.368-.331.315-.353.278-.389.241-.408.189-.416.163-.429.127-.442.1-.43.078-.415.037-.417.026-.392.011h-.546l-.504-.011h-.442l-.416-.012-.38-.014-.34-.026-.303-.025-.29-.038-.267-.026-.239-.049-.241-.04-.214-.061-.216-.051-.2-.077-.204-.074-.215-.077.569-2.791.114.025.137.039.178.048.216.053.226.05.254.05.278.062.301.052.317.049.329.052.341.037.354.038.364.012.371.013h.362l.367-.013.368-.074.291-.103.226-.137.178-.177.126-.178.101-.203.064-.2.049-.19.028-.367-.115-.316-.217-.254-.314-.213-.38-.189-.442-.19-.492-.178-.493-.201-.505-.226-.48-.266-.442-.329-.405-.391-.316-.481-.227-.569-.115-.68.013-.809.064-.493.09-.469.126-.428.149-.404.203-.379.227-.329.267-.317.316-.275.368-.241.402-.203.454-.189.505-.139.571-.115.619-.088.68-.05.748-.014h.464l.43.014.394.014.352.012.317.024.29.025.252.026.227.026.215.024.178.038.163.026.154.025.125.024.113.015.113.025.102.013-.646 2.852"/><path fill="#fff" fill-rule="evenodd" d="M47.765 30.27h3.501l-.519 3.057h2.11l-.455 2.855-2.225-.063-1.211 7.048-.013.253.062.216.128.164.165.137.227.09.252.075.277.05.304.027.277-.013.252-.025.229-.039.203-.05.165-.051.112-.037.076-.027.024-.011-.44 2.35-.089.062-.089.051-.089.05-.087.05-.089.038-.101.039-.113.037-.115.038-.126.037-.128.027-.15.025-.15.026-.164.026-.191.025-.204.024-.215.025h-.96l-.506-.038-.44-.051-.403-.074-.342-.09-.292-.114-.239-.124-.215-.153-.164-.165-.127-.176-.09-.214-.061-.217-.039-.238-.011-.266v-.277l.037-.29.039-.317 2.412-13.782z"/><path fill="none" stroke="#fff" stroke-miterlimit="2.613" stroke-width=".216" d="M47.765 30.27h3.501l-.519 3.057h2.11l-.455 2.855-2.225-.063-1.211 7.048-.013.253.062.216.128.164.165.137.227.09.252.075.277.05.304.027.277-.013.252-.025.229-.039.203-.05.165-.051.112-.037.076-.027.024-.011-.44 2.35-.089.062-.089.051-.089.05-.087.05-.089.038-.101.039-.113.037-.115.038-.126.037-.128.027-.15.025-.15.026-.164.026-.191.025-.204.024-.215.025h-.96l-.506-.038-.44-.051-.403-.074-.342-.09-.292-.114-.239-.124-.215-.153-.164-.165-.127-.176-.09-.214-.061-.217-.039-.238-.011-.266v-.277l.037-.29.039-.317 2.412-13.782"/><path fill="none" stroke="#fff" stroke-miterlimit="2.613" stroke-width=".216" d="M55.649 40.944l-.039.214-.011.227.024.24.051.241.088.24.103.23.138.238.15.214.177.216.189.191.204.188.226.15.229.141.252.112.252.088.253.052.328.049.317.039.329.038.327.026.329.012h.342l.327-.012.341-.026.341-.051.342-.064.354-.075.34-.113.356-.138.364-.154.354-.2.366-.215-.505 3.108-.204.1-.2.102-.203.074-.187.078-.191.062-.204.064-.201.048-.215.04-.227.038-.252.026-.265.025-.291.024-.329.014h-.339l-.394.011h-.417l-.618-.011-.63-.063-.634-.089-.631-.153-.619-.188-.592-.242-.571-.314-.53-.368-.493-.429-.428-.517-.366-.582-.306-.67-.213-.745-.138-.848-.039-.933.064-1.036.051-.404.073-.468.103-.491.138-.533.191-.541.226-.544.29-.555.354-.531.403-.506.493-.479.557-.43.632-.378.731-.317.823-.228.907-.15 1.026-.053.492.014.519.05.518.088.519.126.503.192.494.227.455.303.416.352.378.431.317.506.251.58.178.671.102.755.013.859-.089.96-.191 1.063-.062.771h-9.208l.579-2.49h5.534l.026-.315-.015-.303-.026-.279-.048-.251-.089-.24-.087-.217-.128-.189-.126-.176-.149-.151-.167-.127-.189-.114-.19-.101-.202-.074-.202-.052-.215-.038-.227-.026-.241.013-.227.038-.214.053-.215.073-.216.101-.187.115-.192.139-.162.151-.166.176-.152.189-.137.204-.115.216-.114.227-.088.252-.076.252-.051.265-.504 2.615"/><path fill="#fff" fill-rule="evenodd" d="M85.777 34.085l-.163-.088-.163-.077-.18-.089-.188-.088-.191-.075-.212-.076-.216-.077-.226-.075-.24-.062-.243-.051-.263-.051-.265-.038-.291-.026-.29-.024h-.935l-.329.024-.342.04-.352.062-.354.1-.353.14-.354.177-.355.226-.341.279-.33.328-.316.405-.3.467-.279.555-.265.632-.241.71-.2.808-.079.452-.048.442-.026.443.014.431.035.429.088.405.114.378.139.379.191.342.226.327.268.291.302.265.341.228.39.189.431.164.479.114.165.037.191.038.228.027.252.025.275.025h.608l.316-.025.328-.04.329-.062.315-.088.316-.1.316-.141.29-.163.265-.202.253-.227-.566 3.373-.078.063-.074.076-.102.09-.113.072-.139.101-.178.09-.203.088-.226.075-.291.089-.329.064-.378.051-.443.051-.491.024-.571.014-.641-.014-.71-.038-.581-.063-.581-.127-.58-.188-.581-.254-.557-.301-.531-.382-.504-.441-.468-.503-.419-.57-.352-.631-.303-.707-.226-.772-.152-.846-.052-.898.026-.984.138-1.049.103-.517.111-.506.128-.493.127-.467.136-.443.165-.441.166-.417.176-.392.192-.392.188-.367.214-.353.226-.328.229-.317.252-.302.252-.278.267-.265.289-.254.292-.239.304-.216.316-.202.34-.189.341-.163.354-.152.366-.14.393-.126.389-.101.405-.09.431-.074.428-.064.455-.05.455-.024.48-.015.407.015.389.024.379.038.378.051.355.049.341.076.328.064.303.075.291.076.254.076.24.077.2.074.178.063.151.052.114.05.077.027-.634 3.498z"/><path fill="none" stroke="#fff" stroke-miterlimit="2.613" stroke-width=".216" d="M85.777 34.085l-.163-.088-.163-.077-.18-.089-.188-.088-.191-.075-.212-.076-.216-.077-.226-.075-.24-.062-.243-.051-.263-.051-.265-.038-.291-.026-.29-.024h-.935l-.329.024-.342.04-.352.062-.354.1-.353.14-.354.177-.355.226-.341.279-.33.328-.316.405-.3.467-.279.555-.265.632-.241.71-.2.808-.079.452-.048.442-.026.443.014.431.035.429.088.405.114.378.139.379.191.342.226.327.268.291.302.265.341.228.39.189.431.164.479.114.165.037.191.038.228.027.252.025.275.025h.608l.316-.025.328-.04.329-.062.315-.088.316-.1.316-.141.29-.163.265-.202.253-.227-.566 3.373-.078.063-.074.076-.102.09-.113.072-.139.101-.178.09-.203.088-.226.075-.291.089-.329.064-.378.051-.443.051-.491.024-.571.014-.641-.014-.71-.038-.581-.063-.581-.127-.58-.188-.581-.254-.557-.301-.531-.382-.504-.441-.468-.503-.419-.57-.352-.631-.303-.707-.226-.772-.152-.846-.052-.898.026-.984.138-1.049.103-.517.111-.506.128-.493.127-.467.136-.443.165-.441.166-.417.176-.392.192-.392.188-.367.214-.353.226-.328.229-.317.252-.302.252-.278.267-.265.289-.254.292-.239.304-.216.316-.202.34-.189.341-.163.354-.152.366-.14.393-.126.389-.101.405-.09.431-.074.428-.064.455-.05.455-.024.48-.015.407.015.389.024.379.038.378.051.355.049.341.076.328.064.303.075.291.076.254.076.24.077.2.074.178.063.151.052.114.05.077.027-.634 3.498"/><path fill="#fff" fill-rule="evenodd" d="M116.88 46.856h-3.499l.253-1.401v-.127l-.203.254-.215.225-.213.202-.228.179-.227.164-.228.137-.227.114-.241.115-.239.089-.24.062-.241.063-.253.036-.251.04-.24.025-.252.013h-.252l-.658-.051-.607-.139-.555-.215-.507-.289-.454-.368-.405-.427-.354-.47-.303-.529-.25-.571-.203-.591-.139-.619-.102-.646-.037-.644.011-.656.063-.644.114-.644.19-.747.227-.706.267-.645.314-.606.328-.569.38-.506.39-.453.418-.418.442-.367.468-.315.481-.278.481-.215.504-.178.504-.112.504-.075.519-.026.368.011.353.04.329.062.303.09.291.101.253.112.252.14.228.139.201.149.189.167.165.164.152.164.126.164.114.164.102.153.074.151.886-4.965h3.434l-2.855 16.523z"/><path fill="none" stroke="#fff" stroke-miterlimit="2.613" stroke-width=".216" d="M116.88 46.856h-3.499l.253-1.401v-.127l-.203.254-.215.225-.213.202-.228.179-.227.164-.228.137-.227.114-.241.115-.239.089-.24.062-.241.063-.253.036-.251.04-.24.025-.252.013h-.252l-.658-.051-.607-.139-.555-.215-.507-.289-.454-.368-.405-.427-.354-.47-.303-.529-.25-.571-.203-.591-.139-.619-.102-.646-.037-.644.011-.656.063-.644.114-.644.19-.747.227-.706.267-.645.314-.606.328-.569.38-.506.39-.453.418-.418.442-.367.468-.315.481-.278.481-.215.504-.178.504-.112.504-.075.519-.026.368.011.353.04.329.062.303.09.291.101.253.112.252.14.228.139.201.149.189.167.165.164.152.164.126.164.114.164.102.153.074.151.886-4.965h3.434l-2.855 16.523"/><path fill="#76aa9f" fill-rule="evenodd" d="M111.157 43.8l.354-.025.328-.076.305-.088.291-.139.265-.151.252-.192.24-.212.215-.23.188-.253.178-.278.163-.29.141-.302.125-.318.103-.327.086-.341.065-.341.061-.352.04-.367v-.344l-.012-.352-.039-.328-.05-.317-.089-.303-.102-.29-.125-.251-.152-.241-.163-.204-.191-.176-.214-.151-.228-.102-.24-.062-.264-.026-.343.026-.316.05-.291.101-.29.126-.252.165-.253.202-.215.215-.215.24-.189.276-.177.292-.166.303-.138.328-.126.34-.1.344-.101.364-.075.367-.066.557.028.606.087.618.166.594.251.519.329.416.416.279.505.101z"/><path fill="#fff" fill-rule="evenodd" d="M33.58 44.052l-.507 2.804h-3.184l.089-.518.065-.467.048-.353.052-.19-.177.202-.203.203-.239.189-.266.176-.303.178-.316.15-.33.152-.34.127-.368.113-.363.09-.369.076-.377.049-.367.026-.365.012-.355-.038-.342-.049-.442-.115-.404-.127-.354-.164-.316-.189-.276-.201-.252-.228-.204-.242-.177-.251-.15-.265-.128-.28-.1-.275-.076-.278-.051-.291-.038-.292-.025-.279v-.277l.037-.493.077-.467.127-.442.164-.43.201-.403.227-.366.266-.353.304-.318.317-.29.352-.266.368-.239.377-.203.403-.174.419-.141.429-.113.443-.077h.023l.064-.013.09-.012.137-.012.152-.025.177-.013.188-.026.216-.025.215-.024.216-.025.228-.014.2-.025.204-.013.187-.014.179-.011h.43l.303.011.276.014h.278l.228.013.178.012.124.013h.038l.026-.089.076-.226.061-.267.026-.239-.05-.277-.113-.255-.152-.226-.203-.19-.239-.162-.265-.115-.304-.077-.327-.024-.354-.013-.381-.012h-.391l-.403.012-.417.026-.405.036-.403.039-.391.051-.381.049-.367.064-.327.062-.302.064-.278.078-.23.074-.175.088-.141.076.898-3.044.279-.114.276-.101.305-.088.302-.065.306-.063.327-.049.328-.051.341-.026.353-.024.367-.013.379-.014h1.212l.443.014.443.013.353.024.38.064.39.089.404.114.392.152.38.177.378.214.357.239.311.28.281.302.254.34.187.379.127.407.074.428v.479l-.074.506-1.275 6.67z"/><path fill="none" stroke="#fff" stroke-miterlimit="2.613" stroke-width=".216" d="M33.58 44.052l-.507 2.804h-3.184l.089-.518.065-.467.048-.353.052-.19-.177.202-.203.203-.239.189-.266.176-.303.178-.316.15-.33.152-.34.127-.368.113-.363.09-.369.076-.377.049-.367.026-.365.012-.355-.038-.342-.049-.442-.115-.404-.127-.354-.164-.316-.189-.276-.201-.252-.228-.204-.242-.177-.251-.15-.265-.128-.28-.1-.275-.076-.278-.051-.291-.038-.292-.025-.279v-.277l.037-.493.077-.467.127-.442.164-.43.201-.403.227-.366.266-.353.304-.318.317-.29.352-.266.368-.239.377-.203.403-.174.419-.141.429-.113.443-.077h.023l.064-.013.09-.012.137-.012.152-.025.177-.013.188-.026.216-.025.215-.024.216-.025.228-.014.2-.025.204-.013.187-.014.179-.011h.43l.303.011.276.014h.278l.228.013.178.012.124.013h.038l.026-.089.076-.226.061-.267.026-.239-.05-.277-.113-.255-.152-.226-.203-.19-.239-.162-.265-.115-.304-.077-.327-.024-.354-.013-.381-.012h-.391l-.403.012-.417.026-.405.036-.403.039-.391.051-.381.049-.367.064-.327.062-.302.064-.278.078-.23.074-.175.088-.141.076.898-3.044.279-.114.276-.101.305-.088.302-.065.306-.063.327-.049.328-.051.341-.026.353-.024.367-.013.379-.014h1.212l.443.014.443.013.353.024.38.064.39.089.404.114.392.152.38.177.378.214.357.239.311.28.281.302.254.34.187.379.127.407.074.428v.479l-.074.506-1.275 6.67"/><path fill="#e42332" fill-rule="evenodd" d="M30.534 40.754l-.013-.063-.051-.062-.076-.039-.125-.024-.139-.025-.164-.015h-.381l-.2.015-.214.025-.203.024-.203.027-.189.025-.177.036-.151.04-.14.036-.087.025-.102.04-.139.05-.14.062-.164.077-.164.089-.176.087-.164.102-.177.126-.165.125-.152.153-.138.152-.127.163-.088.178-.074.201-.041.202-.01.43.061.341.127.254.164.189.19.126.216.075.202.039.202.012.378-.012.342-.039.328-.052.292-.075.25-.088.241-.112.214-.115.191-.139.164-.127.149-.151.128-.138.101-.152.087-.152.08-.151.062-.14.035-.139.103-.365.087-.418.076-.403.064-.33z"/><path fill="#fff" fill-rule="evenodd" d="M6.997 46.856H3.563L6.431 30.27h5.974l.57 9.84 4.132-9.84h6.24l-2.932 16.586h-3.436l2.173-12.392h-.137l-5.144 12.392H9.994l-.026-.518-.088-1.377-.113-1.957-.128-2.25-.127-2.26-.113-1.982-.089-1.441-.026-.607h-.188L6.997 46.856z"/><path fill="none" stroke="#fff" stroke-miterlimit="2.613" stroke-width=".216" d="M6.997 46.856H3.563L6.431 30.27h5.974l.57 9.84 4.132-9.84h6.24l-2.932 16.586h-3.436l2.173-12.392h-.137l-5.144 12.392H9.994l-.026-.518-.088-1.377-.113-1.957-.128-2.25-.127-2.26-.113-1.982-.089-1.441-.026-.607h-.188L6.997 46.856"/><path fill="#fff" fill-rule="evenodd" d="M96.279 44.052l-.519 2.804h-3.172l.024-.518.013-.454v-.34l.025-.151-.163.189-.191.188-.226.177-.253.179-.263.162-.305.151-.317.153-.315.126-.342.1-.354.101-.352.065-.353.049-.369.026-.351.012-.343-.038-.342-.049-.454-.115-.402-.127-.356-.164-.33-.189-.276-.201-.241-.228-.201-.242-.176-.251-.152-.265-.114-.28-.101-.275-.063-.278-.053-.291-.035-.292-.028-.279v-.277l.028-.493.075-.467.113-.442.165-.43.189-.403.24-.366.265-.353.291-.318.329-.29.341-.266.366-.239.393-.203.391-.174.416-.141.416-.113.43-.077h.026l.061-.013.09-.012.126-.012.166-.025.175-.013.191-.026.2-.025.217-.024.227-.025.215-.014.214-.025.202-.013.176-.014.178-.011h.442l.304.011.29.014h.278l.241.013.201.012.113.013h.052l.026-.089.038-.226.036-.267.025-.239-.049-.277-.1-.255-.164-.226-.193-.19-.226-.162-.265-.115-.278-.077-.304-.024-.355-.013-.377-.012h-.392l-.406.012-.414.026-.406.036-.404.039-.392.051-.379.049-.365.064-.329.062-.303.064-.278.078-.226.074-.18.088-.137.076.885-3.044.276-.114.292-.101.29-.088.302-.065.317-.063.317-.049.326-.051.343-.026.352-.024.367-.013.366-.014h1.189l.429.014.429.013.355.024.378.064.391.089.406.114.392.152.389.177.379.214.354.239.318.28.289.302.252.34.191.379.138.407.091.428v.479l-.065.506-1.324 6.67z"/><path fill="#fff" fill-rule="evenodd" d="M95.76 46.946l.074-.077.518-2.805-.152-.024-.518 2.805.078-.078v.179l.061-.014.013-.063-.074.077z"/><path fill="#fff" fill-rule="evenodd" d="M92.512 46.856l.076.09h3.172v-.179h-3.172l.076.089h-.152l-.012.09h.088l-.076-.09z"/><path fill="#fff" fill-rule="evenodd" d="M92.715 45.44l-.116-.1-.049.204-.015.34v.454l-.023.518h.152l.025-.518.026-.454-.013-.34v-.104l-.114-.1.127.1z"/><path fill="#fff" fill-rule="evenodd" d="M87.8 47.059l.353.051.343.036.351-.01.369-.026.364-.051.354-.064.355-.099.352-.103.317-.126.327-.151.306-.151.262-.177.267-.179.226-.174.204-.204.165-.191-.127-.1-.164.19-.177.177-.229.177-.239.177-.265.151-.303.153-.304.151-.316.125-.327.101-.354.103-.356.063-.338.049-.369.027-.351.011-.343-.038-.327-.049-.026.151zm-3.057-3.829l.011.277.026.279.039.304.051.291.062.278.102.29.113.29.165.266.175.265.204.239.252.241.29.202.329.203.368.163.414.128.456.113.026-.151-.456-.115-.391-.126-.342-.163-.329-.179-.265-.199-.227-.217-.202-.24-.178-.241-.137-.264-.113-.266-.103-.263-.062-.279-.05-.292-.039-.278-.026-.279.013-.277h-.176z"/><path fill="#fff" fill-rule="evenodd" d="M89.277 38.38l-.441.075-.429.115-.418.138-.404.177-.393.202-.377.253-.343.267-.327.302-.304.315-.266.354-.252.379-.189.418-.163.428-.114.454-.077.48-.037.493h.176l.013-.493.076-.454.114-.429.164-.429.188-.393.227-.354.267-.353.277-.314.328-.279.342-.267.352-.226.396-.204.376-.174.418-.139.403-.115.417-.075v-.152z"/><path fill="#fff" fill-rule="evenodd" d="M91.879 38.114h-.138l-.178.027-.176.014-.202.01-.214.024-.215.014-.227.025-.217.025-.2.027-.191.025-.175.011-.166.027-.126.011-.101.013-.05.013h-.026v.152h.026l.076-.014.075-.011.126-.013.166-.025.175-.014.191-.025.2-.026.217-.024.227-.026.215-.011.214-.027.202-.011.176-.014h.316v-.177z"/><path fill="#fff" fill-rule="evenodd" d="M93.586 38.253l.076-.064h-.052l-.113-.012-.201-.012-.241-.024h-.568l-.304-.027h-.304v.177h.608l.29.025h.519l.201.013.113.014h.052l.076-.063-.076.063.064.011.012-.074-.152-.027z"/><path fill="#fff" fill-rule="evenodd" d="M93.713 37.445H93.7l-.012.239-.04.254-.038.227-.024.088.152.027.024-.091.038-.229.036-.276.039-.239h-.162z"/><path fill="#fff" fill-rule="evenodd" d="M92.208 36.194v.013l.292.013.264.076.252.113.216.152.175.176.152.215.103.227.051.266h.151l-.052-.289-.099-.28-.178-.239-.201-.204-.24-.175-.279-.115-.291-.074-.316-.038v.163z"/><path fill="#fff" fill-rule="evenodd" d="M86.789 36.801l.126.075.126-.063.164-.089.217-.075.276-.074.305-.063.326-.065.367-.063.366-.049.392-.054.404-.038.406-.036.414-.025h1.175l.355.012v-.152l-.355-.011-.377-.027h-.392l-.406.027-.414.024-.406.039-.404.038-.392.05-.391.049-.367.065-.327.063-.305.064-.277.074-.239.078-.19.086-.151.089.126.076-.152-.025z"/><path fill="#fff" fill-rule="evenodd" d="M87.725 33.692l-.053.065-.883 3.044.152.025.885-3.046-.052.065-.049-.153-.039.013-.014.052.053-.065z"/><path fill="#fff" fill-rule="evenodd" d="M93.345 33.113l-.429-.025-.429-.014h-1.189l-.366.026-.367.013-.352.026-.343.022-.341.051-.313.051-.317.064-.305.064-.302.088-.289.1-.278.113.049.153.279-.114.289-.1.278-.091.305-.061.317-.065.312-.049.316-.051.343-.025.352-.026.367-.011h1.555l.429.011h.429v-.15z"/><path fill="#fff" fill-rule="evenodd" d="M97.679 37.395l.063-.519v-.479l-.087-.444-.141-.416-.201-.39-.256-.354-.302-.316-.314-.278-.367-.242-.379-.226-.404-.177-.392-.153-.415-.112-.394-.088-.39-.062-.355-.026v.15l.355.026.365.064.392.087.39.114.394.151.378.178.38.202.34.24.317.277.277.291.252.327.176.37.14.391.089.416v.479l-.063.494.152.025zm-1.327 6.669l1.327-6.669-.152-.025-1.327 6.67.152.024z"/><path fill="#76aa9f" fill-rule="evenodd" d="M93.219 40.754l-.025-.076-.049-.061-.09-.039-.126-.037-.139-.015-.165-.013h-.19l-.188.013-.203.026-.202.026-.202.026-.191.025-.186.038-.166.024-.165.039-.126.024-.087.013-.102.038-.126.039-.14.05-.165.074-.15.078-.178.088-.163.112-.166.115-.165.139-.137.137-.139.166-.115.177-.088.189-.074.203-.037.214-.013.43.059.341.105.254.15.189.189.126.217.075.214.039.215.012.379-.012.352-.039.33-.064.292-.087.276-.101.24-.113.227-.129.202-.15.179-.139.148-.163.141-.153.114-.165.087-.151.065-.152.051-.151.036-.139.052-.354.064-.365.049-.354.025-.317z"/><path fill="#fff" fill-rule="evenodd" d="M119.241 45.128l.03-.293.096-.341.178-.303.215-.265.266-.214.305-.153.328-.102.352-.037.355.037.328.102.304.153.266.214.215.265.176.303.1.341.027.293h-.38l-.012-.23-.078-.278-.126-.251-.164-.217-.201-.177-.24-.125-.278-.088-.292-.027-.289.027-.277.088-.241.125-.204.177-.163.217-.125.251-.077.278-.026.23h-.368z"/><path fill="#fff" fill-rule="evenodd" d="M120.38 45.128v-.759h.694l.153.012.139.024.1.038.089.051.063.076.051.077.025.087.013.089-.013.113-.025.088-.038.077-.026.027h-.531l.05-.015.09-.012.075-.025.064-.026.051-.037.026-.04.023-.061v-.089l-.013-.063-.025-.052-.036-.024-.039-.025-.064-.012-.062-.012h-.517v.493h-.317zm-1.139 0l-.01.074.04.366.096.341.178.303.215.253.266.213.305.167.328.101.352.038.355-.038.328-.101.304-.167.266-.213.215-.253.176-.303.1-.341.037-.366-.01-.074h-.38l.013.074-.025.303-.078.278-.126.241-.164.212-.201.179-.24.137-.278.089-.292.026-.289-.026-.277-.089-.241-.137-.204-.179-.163-.212-.125-.241-.077-.278-.026-.303v-.074h-.368z"/><path fill="#fff" fill-rule="evenodd" d="M120.38 45.128v.769h.317v-.631h.314l.378.631h.255l-.379-.631h.088l.087-.027.077-.025.064-.05.024-.036h-.531l-.063.011h-.314v-.011h-.317z"/><path d="M119.232 45.202l.039-.366.1-.341.178-.3.215-.265.267-.214.3-.153.328-.1.352-.037.355.037.327.1.3.153.267.214.215.265.176.3.1.341.037.366-.037.366-.1.341-.176.3-.215.253-.267.213-.3.167-.327.1-.355.038-.352-.038-.328-.1-.3-.167-.267-.213-.215-.253-.178-.3-.1-.341-.039-.366m1.465.7h-.317v-1.533h.694l.154.012.139.024.1.038.089.05.063.076.05.076.025.087.013.089-.013.113-.025.089-.037.076-.05.063-.064.05-.076.025-.087.027h-.089l.379.631h-.255l-.378-.631h-.315v.631m.315-.758l.113-.026.09-.012.075-.024.064-.026.05-.037.026-.04.024-.061v-.089l-.013-.063-.025-.051-.036-.024-.039-.025-.064-.012-.062-.011h-.518v.5h.315m0 1.528l.292-.025.278-.089.24-.137.2-.179.164-.212.126-.24.078-.279.024-.3-.024-.3-.078-.279-.126-.251-.164-.217-.2-.176-.24-.125-.278-.089-.292-.026-.289.026-.277.089-.24.125-.2.176-.163.217-.125.251-.076.279-.026.3.026.3.076.279.125.24.163.212.2.179.24.137.277.089.289.025" fill="none" stroke="#fff" stroke-miterlimit="2.613" stroke-width=".216"/><path fill="#fff" fill-rule="evenodd" d="M97.226 46.856h3.563l1.274-7.188.05-.276.077-.279.075-.278.101-.278.126-.277.151-.267.165-.252.203-.24.227-.214.252-.203.291-.191.328-.151.366-.125.405-.101.441-.077.492-.026h.317l.568-3.245-.354.024-.34.04-.316.062-.304.087-.278.101-.264.129-.254.138-.24.151-.226.179-.216.175-.201.203-.202.201-.191.215-.188.239-.19.228-.175.253.378-2.286h-3.551l-2.36 13.529z"/><path fill="none" stroke="#fff" stroke-miterlimit="2.613" stroke-width=".216" d="M97.226 46.856h3.563l1.274-7.188.05-.276.077-.279.075-.278.101-.278.126-.277.151-.267.165-.252.203-.24.227-.214.252-.203.291-.191.328-.151.366-.125.405-.101.441-.077.492-.026h.317l.568-3.245-.354.024-.34.04-.316.062-.304.087-.278.101-.264.129-.254.138-.24.151-.226.179-.216.175-.201.203-.202.201-.191.215-.188.239-.19.228-.175.253.378-2.286h-3.551l-2.36 13.529"/><path fill="#fff" fill-rule="evenodd" d="M63.772 46.856h3.625l1.214-7.188.05-.276.063-.266.062-.265.09-.254.1-.253.127-.24.151-.227.177-.214.202-.192.227-.188.28-.152.301-.138.354-.115.393-.099.429-.065.491-.037h.04l.05.013.063.012h.063l.063.012.052.013.035.013h.014l.013-.05.038-.152.05-.227.064-.279.087-.328.09-.354.114-.354.112-.355.103-.239.126-.241.126-.238.126-.215.113-.188.088-.152.064-.089.024-.037h-.01l-.052-.014-.061-.013-.091-.013h-.087l-.101-.011-.089-.013h-.089l-.392.024-.353.04-.329.062-.301.077-.291.1-.266.127-.241.125-.228.151-.212.166-.205.189-.188.19-.189.212-.191.217-.176.241-.188.251-.191.253.454-2.286h-3.625l-2.362 13.529z"/><path fill="none" stroke="#fff" stroke-miterlimit="2.613" stroke-width=".216" d="M63.772 46.856h3.625l1.214-7.188.05-.276.063-.266.062-.265.09-.254.1-.253.127-.24.151-.227.177-.214.202-.192.227-.188.28-.152.301-.138.354-.115.393-.099.429-.065.491-.037h.04l.05.013.063.012h.063l.063.012.052.013.035.013h.014l.013-.05.038-.152.05-.227.064-.279.087-.328.09-.354.114-.354.112-.355.103-.239.126-.241.126-.238.126-.215.113-.188.088-.152.064-.089.024-.037h-.01l-.052-.014-.061-.013-.091-.013h-.087l-.101-.011-.089-.013h-.089l-.392.024-.353.04-.329.062-.301.077-.291.1-.266.127-.241.125-.228.151-.212.166-.205.189-.188.19-.189.212-.191.217-.176.241-.188.251-.191.253.454-2.286h-3.625l-2.362 13.529"/><path d="M64.164 37.355l-.1-.755-.178-.67-.251-.58-.317-.506-.378-.431-.416-.353-.455-.3-.494-.227-.5-.192-.518-.126-.519-.088-.518-.05-.492-.014-1.026.053-.907.15-.823.228-.731.317-.631.379-.558.429-.492.479-.4.506-.354.531-.29.555-.226.544-.191.541-.138.533-.1.491-.074.468-.05.4-.064 1.035.039.934.138.848.213.745.306.67.366.582.428.518.492.429.531.367.571.315.592.242.618.188.631.153.634.089.63.063.618.01h.417l.394-.01h.339l.329-.015.291-.024.265-.024.252-.026.227-.038.215-.04.2-.048.2-.064.19-.062.188-.078.2-.074.2-.1.2-.1.5-3.108-.366.215-.354.2-.364.154-.356.138-.341.114-.353.075-.342.064-.341.05-.341.026-.327.012h-.342l-.328-.012-.328-.026-.329-.037-.317-.039-.326-.048-.254-.051-.252-.089-.252-.112-.229-.14-.226-.15-.2-.188-.189-.191-.177-.216-.15-.214-.137-.238-.1-.23-.089-.24-.05-.24-.024-.241.01-.213.031-.164h8.2l.063-.77.191-1.063.089-.96zm-3.425 1.163h-4.615v-.011h-.008l.033-.176.051-.265.076-.253.088-.252.115-.227.115-.216.137-.2.152-.188.166-.176.162-.151.193-.139.187-.115.216-.1.215-.074.215-.052.227-.038.241-.013.228.026.215.038.2.051.2.074.19.1.194.109.167.127.149.151.126.176.128.188.088.217.089.24.048.251.026.279.015.3z" fill="#fff" fill-rule="evenodd"/><path d="M298.032 30.654a3.352 3.352 0 1 1 3.351 3.523 3.443 3.443 0 0 1-3.351-3.523zm3.351 2.689a2.683 2.683 0 1 0-2.557-2.689 2.631 2.631 0 0 0 2.557 2.689zm-.456-1.146h-.695v-3.1h1.244a1.28 1.28 0 0 1 .755.171.963.963 0 0 1 .375.779.824.824 0 0 1-.506.782l.537 1.369h-.763l-.454-1.216h-.5v1.216zm0-1.743h.382a.857.857 0 0 0 .421-.064.429.429 0 0 0 .168-.359.377.377 0 0 0-.168-.312.889.889 0 0 0-.429-.054h-.374v.789zM250.122 7.243l-.918 5.97a10.242 10.242 0 0 0-5.019-1.475c-4.173 0-7.125 4.242-7.125 10.3 0 4.183 1.981 6.7 5.24 6.7a10.346 10.346 0 0 0 4.762-1.418l-.979 6.283a16.623 16.623 0 0 1-4.954.8c-6.045 0-9.8-4.56-9.8-11.878 0-9.845 5.195-16.719 12.626-16.719a9.239 9.239 0 0 1 2.514.3l2.31.606c.688.272.842.314 1.346.532zm-18.606 4.087a3.081 3.081 0 0 0-.574-.058c-1.847 0-2.891.977-4.606 3.644l.5-3.4h-5.078L218.315 33.9h5.633c2.014-13.679 2.53-16.041 5.23-16.041a2.9 2.9 0 0 1 .41.023 22.285 22.285 0 0 1 2.121-6.488l-.192-.059zm-33.561 22.3a12.234 12.234 0 0 1-4.022.738c-2.861 0-4.424-1.743-4.424-4.923a12.76 12.76 0 0 1 .16-2.007l.347-2.182.257-1.783 2.432-15.271h5.573l-.639 3.321h2.868l-.788 5.44h-2.861l-1.481 9.341c-.051.412-.094.717-.094.927 0 1.146.585 1.658 1.91 1.658a4.326 4.326 0 0 0 1.509-.209l-.748 4.95zm-22.098-15.033c0 2.825 1.3 4.778 4.248 6.238 2.257 1.122 2.615 1.449 2.615 2.468 0 1.391-1 2.035-3.208 2.035a14.841 14.841 0 0 1-5.012-.9l-.775 5.162.254.054 1.029.218c.331.07.818.133 1.462.2 1.337.125 2.362.185 3.087.185 5.881 0 8.6-2.374 8.6-7.472a6.133 6.133 0 0 0-3.936-6.23c-2.338-1.114-2.6-1.377-2.6-2.416 0-1.214.928-1.838 2.728-1.838a30.684 30.684 0 0 1 4.01.333l.8-5.168a35 35 0 0 0-4.918-.441c-6.24 0-8.4 3.435-8.38 7.566zM294.773 33.9h-5.305l.278-2.193a6.511 6.511 0 0 1-5.18 2.488c-4.1 0-6.787-3.694-6.787-9.29 0-7.444 4.175-13.729 9.133-13.729 2.179 0 3.826.943 5.377 3.064l1.22-7.862h5.523L294.773 33.9zm-8.274-5.27c2.619 0 4.45-3.11 4.45-7.54 0-2.844-1.045-4.394-2.982-4.394-2.54 0-4.345 3.123-4.345 7.527 0 2.931.972 4.406 2.877 4.406zm-70.788 4.8a18.562 18.562 0 0 1-5.76.9c-6.251 0-9.518-3.44-9.518-10.018 0-7.691 4.154-13.353 9.8-13.353 4.606 0 7.565 3.173 7.565 8.146a24.621 24.621 0 0 1-.7 5.521h-11.142a4.45 4.45 0 0 0-.054.694c0 2.616 1.667 3.933 4.93 3.933a12.642 12.642 0 0 0 5.815-1.423l-.936 5.6zm-3.145-13.327c.032-.468.04-.849.04-1.132 0-1.829-.987-2.9-2.654-2.9-1.778 0-3.052 1.427-3.574 4.014l6.189.015zM153.351 33.9h-5.601l3.208-21.15-7.168 21.15h-3.838l-.464-21.026-3.379 21.026h-5.246l4.377-27.523h8.071l.222 17.031 5.448-17.031h8.711L153.351 33.9zm14.432-9.97a9.373 9.373 0 0 0-1.255-.1c-3.176 0-4.786 1.156-4.786 3.416a2.02 2.02 0 0 0 2.015 2.282c2.28 0 3.933-2.282 4.026-5.6zm4.077 9.969h-4.642l.1-2.324a6.842 6.842 0 0 1-5.873 2.713c-3.048 0-5.129-2.494-5.129-6.1 0-5.464 3.636-8.636 9.852-8.636a17.04 17.04 0 0 1 2.28.166 5.79 5.79 0 0 0 .222-1.452c0-1.478-.974-2.039-3.6-2.039a16.841 16.841 0 0 0-4.661.639l-.779.226-.491.145.771-5.019a21.262 21.262 0 0 1 6.719-1.2c4.817 0 7.37 2.273 7.37 6.562a26.6 26.6 0 0 1-.464 4.44l-1.173 7.93-.191 1.432-.144 1.141-.1.779-.07.6zm87.918-9.969a9.254 9.254 0 0 0-1.245-.1c-3.189 0-4.8 1.156-4.8 3.416a2.026 2.026 0 0 0 2.024 2.282c2.291 0 3.925-2.282 4.025-5.6zm4.081 9.969h-4.648l.108-2.324a6.844 6.844 0 0 1-5.873 2.713c-3.048 0-5.137-2.494-5.137-6.1 0-5.464 3.633-8.636 9.861-8.636a17 17 0 0 1 2.278.166 5.937 5.937 0 0 0 .222-1.452c0-1.478-.974-2.039-3.6-2.039a16.688 16.688 0 0 0-4.655.639l-.8.226-.485.145.78-5.019a21.263 21.263 0 0 1 6.7-1.2c4.825 0 7.378 2.273 7.378 6.562a28.707 28.707 0 0 1-.459 4.44l-1.182 7.93-.173 1.432-.157 1.141-.1.779-.061.6zm15.659-22.569a2.8 2.8 0 0 0-.564-.058c-1.84 0-2.893.977-4.616 3.644l.5-3.4h-5.071L266.339 33.9h5.614c2.016-13.679 2.546-16.041 5.228-16.041a1.448 1.448 0 0 1 .392.023 22.53 22.53 0 0 1 2.136-6.488l-.191-.059z" fill="#5d9186"/><path d="M255.995 55.606c0 5.074-1.571 8.061-4.046 8.061-1.807.056-2.9-1.958-2.9-4.971 0-3.563 1.6-7.6 4.17-7.6 2.065 0 2.78 2.189 2.78 4.512zm5.513.093c0-5.64-2.787-10.029-8.024-10.029-6.03 0-9.934 5.338-9.934 13.2 0 5.626 2.308 10.226 8.017 10.226 5.761 0 9.942-4.079 9.942-13.393zm-16.156-13.988l-.857 5.964a9.2 9.2 0 0 0-4.685-1.489c-3.917 0-6.653 4.26-6.653 10.317 0 4.181 1.832 6.711 4.884 6.711a9.147 9.147 0 0 0 4.454-1.419l-.908 6.279a14.652 14.652 0 0 1-4.641.8c-5.643 0-9.159-4.562-9.159-11.881 0-9.849 4.852-16.723 11.8-16.723a8.924 8.924 0 0 1 2.354.3l2.144.609c.662.263.8.309 1.266.537zm-34.664 4.098a2.053 2.053 0 0 0-.538-.062c-1.7 0-2.7.981-4.29 3.639l.464-3.4h-4.74l-3.2 22.383h5.234c1.883-13.693 2.381-16.049 4.892-16.049a2.323 2.323 0 0 1 .382.025 23.6 23.6 0 0 1 1.988-6.5l-.191-.039zm68.374 22.321h-4.946l.255-2.185a5.972 5.972 0 0 1-4.85 2.485c-3.814 0-6.332-3.7-6.332-9.3 0-7.432 3.909-13.735 8.53-13.735 2.039 0 3.586.964 5.016 3.084l1.155-7.87h5.152l-3.98 27.521zm-7.739-5.265c2.466 0 4.165-3.108 4.165-7.541 0-2.853-.971-4.384-2.771-4.384-2.381 0-4.073 3.111-4.073 7.53 0 2.916.908 4.4 2.679 4.4zm-109.722 5.177a16.109 16.109 0 0 1-5.362.911c-5.846 0-8.9-3.447-8.9-10.023 0-7.681 3.881-13.347 9.15-13.347 4.315 0 7.066 3.167 7.066 8.14a27.44 27.44 0 0 1-.635 5.524h-10.431a6.941 6.941 0 0 0-.043.7c0 2.61 1.563 3.926 4.6 3.926a11.26 11.26 0 0 0 5.437-1.417l-.881 5.591zm-2.927-13.312c.024-.473.039-.85.039-1.137 0-1.825-.919-2.893-2.475-2.893-1.672 0-2.861 1.437-3.34 4.007l5.776.023zm65.197 13.312a16.176 16.176 0 0 1-5.365.911c-5.858 0-8.905-3.447-8.905-10.023 0-7.681 3.886-13.347 9.15-13.347 4.316 0 7.075 3.167 7.075 8.14a26.563 26.563 0 0 1-.659 5.524h-10.41c-.032.334-.051.5-.051.7 0 2.61 1.559 3.926 4.6 3.926a11.28 11.28 0 0 0 5.442-1.417l-.873 5.591zm-2.939-13.312c.034-.473.054-.85.054-1.137 0-1.825-.927-2.893-2.476-2.893-1.672 0-2.86 1.437-3.344 4.007l5.766.023zm75.992 13.312a16.3 16.3 0 0 1-5.379.911c-5.846 0-8.905-3.447-8.905-10.023 0-7.681 3.894-13.347 9.158-13.347 4.315 0 7.063 3.167 7.063 8.14a26.388 26.388 0 0 1-.644 5.524h-10.42a5.725 5.725 0 0 0-.044.7c0 2.61 1.564 3.926 4.6 3.926a11.28 11.28 0 0 0 5.44-1.417l-.869 5.591zm-2.943-13.312c.023-.473.039-.85.039-1.137 0-1.825-.915-2.893-2.474-2.893-1.672 0-2.856 1.437-3.341 4.007l5.777.023zm-147.875-7.91a7.59 7.59 0 0 0-4.373-1.285c-2.116 0-3.819.439-3.819 2.69 0 3.976 7.716 2.491 7.716 11.007 0 7.756-5.093 9.767-9.7 9.767a16.294 16.294 0 0 1-6.146-1.45l1.251-5.7a8.106 8.106 0 0 0 4.897 1.606c1.649 0 4.232-.45 4.232-3.328 0-4.506-7.712-2.83-7.712-10.738 0-7.235 4.505-9.4 8.851-9.4 2.447 0 4.747.359 6.1 1.255l-1.291 5.578zm30.826 21.21a10.527 10.527 0 0 1-4.649.861c-4.575 0-7.413-4.573-7.413-10.141 0-7.287 4.1-13.1 10.144-13.1a11.049 11.049 0 0 1 4.915 1.489l-1.158 5.346a6.426 6.426 0 0 0-3.5-1.207c-2.8 0-4.8 2.565-4.8 7.161 0 2.646 1.45 4.817 3.741 4.817a6.3 6.3 0 0 0 3.5-.974l-.78 5.748zm19.578-5.6c-.269 1.926-.518 3.795-.667 5.8h-5.039l.425-3.618h-.051c-1.578 2.459-3.211 4.133-6.064 4.133-3.164 0-4.879-3.329-4.879-7.677a28.233 28.233 0 0 1 .428-4.685l1.426-10.353h5.608l-1.5 10.39a24.791 24.791 0 0 0-.366 3.378c0 1.309.6 2.634 2.109 2.553 2.3 0 3.655-2.812 4.041-6.093l1.543-10.228h5.429l-2.443 16.4zm105.638 5.532h-.847V64.25h-1.227v-.795h3.301v.795h-1.227v3.712zm5.622 0h-.792v-3.768h-.011l-.757 3.768h-.831l-.739-3.768h-.012v3.768h-.79v-4.507h1.236l.736 3.553h.011l.723-3.553h1.226v4.507z" fill="#76aa9f"/></svg>