<svg data-name="Слой 1" xmlns="http://www.w3.org/2000/svg" viewBox="0 0 107.571 18.589"><path d="M100.587 8.112a4.712 4.712 0 0 1-2.714.637h-1.2l.924-4.989h.886a4.14 4.14 0 0 1 2.252.492 1.948 1.948 0 0 1 .867 1.74 2.43 2.43 0 0 1-1.01 2.12m-71.863 6.261h-9.323l.6-3.261h5.848l.665-3.673h-5.791l.56-3.227h9.299zm76.885-12.961A11 11 0 0 0 99.45-.001h-7.122l-2.647 14.374h-9.33l.6-3.261h5.621l.668-3.663-5.618.01.6-3.247h5.789l.77-4.213H77.012l-2.513 13.636h-4.312L72.718.005h-6.147l-2.513 13.636h-4.2L62.387.005h-6.14l-2.654 14.374h-9.4l.592-3.261h5.646l.665-3.642-5.638-.005.6-3.253h5.853l.766-4.213h-36.63l-2.085 11.391L9.807 0H3.431L-.001 18.589h6.088l2.077-11.7 4.032 11.7h21.823l2.653-14.377h3.415l-2.654 14.377h57.424l1.663-9.076 2.7 9.076h6.092l-2.791-7.416.637-.138a5.459 5.459 0 0 0 3.265-1.919 5.931 5.931 0 0 0 1.152-3.747 4.442 4.442 0 0 0-1.967-3.957" fill="#76aa9f"/></svg>