<svg width="720" height="175" fill="none" xmlns="http://www.w3.org/2000/svg"><path d="M145 56h47v119h-47V56zm205 10h80v41h-80V66z" fill="#E03D22"/><circle cx="168.5" cy="23.5" r="23.5" fill="#E03D22"/><path fill-rule="evenodd" clip-rule="evenodd" d="M337 63.95C336.799 28.596 307.265 0 271.1 0c-36.164 0-65.397 28.303-65.899 63.46L205.004 169H205v6h49V65.303h.006a19.863 19.863 0 0 1-.006-.49c0-9.988 8.059-18.086 18-18.086s18 8.098 18 18.087c0 .163-.002.326-.006.489H290V175h47V63.95zM0 175h47.415V71.864c0-16.738 6.028-25.157 18.183-25.157 5.124 0 9.443 1.704 13.06 5.212 3.616 3.508 5.424 7.717 5.424 12.729 0 4.911-1.707 9.22-5.223 12.83-3.516 3.607-7.635 5.412-12.558 5.412-3.466 0-6.853-1.256-10.301-3.697v51.048c4.866.506 8.635.758 11.306.758 17.48 0 32.648-6.514 45.507-19.444C125.571 98.625 132 83.19 132 65.349c0-18.342-6.429-33.777-19.388-46.406C99.653 6.314 83.781 0 64.996 0 55.553 0 46.31 2.105 37.37 6.214c-8.94 4.11-16.375 9.622-22.201 16.638C5.023 34.98 0 50.716 0 69.96V175zm588 0h47.416V71.864c0-16.738 6.027-25.157 18.182-25.157 5.123 0 9.443 1.704 13.06 5.212 3.616 3.508 5.424 7.717 5.424 12.729 0 4.911-1.708 9.22-5.224 12.83-3.516 3.607-7.634 5.412-12.557 5.412-3.466 0-6.853-1.256-10.301-3.697v51.048c4.866.506 8.635.758 11.306.758 17.479 0 32.648-6.514 45.507-19.444C713.571 98.625 720 83.19 720 65.349c0-18.342-6.429-33.777-19.388-46.406C687.653 6.314 671.781 0 652.995 0c-9.442 0-18.684 2.105-27.625 6.214-8.941 4.11-16.375 9.622-22.201 16.638C593.023 34.98 588 50.716 588 69.96V175zM443.004 6l.197 105.539C443.703 146.697 472.936 175 509.1 175c36.165 0 65.699-28.596 65.9-63.95V4h-47v105.697h-.006c.004.163.006.326.006.489 0 9.989-8.059 18.087-18 18.087s-18-8.098-18-18.087c0-.163.002-.326.006-.489H492V4h-49v2h.004zM443 0h49-49zm85 0h47-47z" fill="#E03D22"/></svg>