<svg data-name="Слой 1" xmlns="http://www.w3.org/2000/svg" viewBox="0 0 97.621 48.832"><path d="M97.187 14.805h-1.974c-.375 0-.419.144-.433.437v13.761c0 .381.165.437.451.457h1.937c.267 0 .453-.056.453-.457V15.242c0-.372-.128-.437-.434-.437zm-27.1 0h-1.976c-.372 0-.411.144-.429.437v13.761c0 .381.164.437.453.457h1.933c.271 0 .455-.056.455-.457V15.242c.001-.372-.122-.437-.436-.437zm-6.312 18.3c-1.245-.336-3.818-1.231-4.5-3.575 3.713-1.391 4.607-4.984 4.607-7.452 0-4.484-2.66-7.606-6.582-7.606-3.614 0-6.642 2.622-6.642 7.766 0 3.369 1.557 6.835 5.668 7.5 1.7 4 7.144 4.632 7.557 4.632.583 0 .725-.375.725-.6-.003-.464-.313-.548-.831-.67zm-6.519-5.025a3.168 3.168 0 0 1-2.764-1.725 8.84 8.84 0 0 1-.915-4.276 8.334 8.334 0 0 1 .915-4.215 3.377 3.377 0 0 1 2.786-1.642 3.143 3.143 0 0 1 2.68 1.577 8.184 8.184 0 0 1 .994 4.2 8.906 8.906 0 0 1-.81 4.233 3.349 3.349 0 0 1-2.884 1.843zm33.617-13.27h-1.411c-.289 0-.4.081-.479.417l-2.409 9.508-2.951-9.45c-.125-.393-.144-.431-.287-.475h-.792c-.227 0-.271.121-.372.417l-2.9 9.508-2.394-9.47c-.1-.438-.19-.455-.54-.455h-1.951c-.208 0-.4.065-.4.312a.943.943 0 0 0 .065.33l3.885 13.622c.1.334.213.39.585.39.308 0 .87 0 .929-.02.206-.016.249-.079.354-.388l2.782-8.851 2.969 8.869c.1.314.168.37.372.39h1.023c.289 0 .35-.076.455-.408l3.825-13.6a2.465 2.465 0 0 0 .058-.374c-.002-.277-.184-.277-.414-.277zM36.906 32.73c-.46-.171-.5.372-.386.725a3.121 3.121 0 0 0 .859 1.588c.243.148.532-.193.348-1.021-.079-.359-.352-1.11-.821-1.292zm-3.636 1.534c-.007-.005-.012-.005-.019-.011a.09.09 0 0 1-.035-.009c-.016-.005-.029-.013-.043-.016s-.022 0-.025 0c-.023-.007-.045-.013-.07-.022a1.132 1.132 0 0 0-.819.148 1.348 1.348 0 0 0-.181 1.871 1.7 1.7 0 0 0 .785.626.041.041 0 0 1 .024.007.192.192 0 0 0 .03.009.2.2 0 0 0 .042.011.059.059 0 0 1 .027.009.451.451 0 0 0 .067.016 1.072 1.072 0 0 0 .821-.146 1.337 1.337 0 0 0 .184-1.866 1.6 1.6 0 0 0-.788-.627zm12.9 13.109a15.472 15.472 0 0 0-6.229-6.2 13.856 13.856 0 0 0-2.752-1.184 43.475 43.475 0 0 0-6.195-1.184 11.913 11.913 0 0 1-4.839-2.124 8.055 8.055 0 0 1-2.026-2.118c-.1-.162-.621-.792-.569-1.009a6.547 6.547 0 0 0 .354 3.47c-6.566-.294-12.322-3.935-14.958-8.349-4.854-8.122-3.143-17.965 3.327-22.312s16.333-1.281 21.614 6.568a18.318 18.318 0 0 1 2.743 15.318l-.035.106a5.827 5.827 0 0 0-5.368-1 6.939 6.939 0 0 1 5.035 1.947 7.9 7.9 0 0 1 .925.969c.064.087.13.175.193.269a7.658 7.658 0 0 1 1.391 3.239c5.583-7.082 6.505-16.891 1.565-24.509C34.057-.439 20.639-2.918 10.387 3.722s-13.463 19.9-7.167 29.61c5.171 7.988 17.3 10.424 24.256 8.223a17.975 17.975 0 0 1 17.9 5.788 5.607 5.607 0 0 1 .836 1.324.219.219 0 0 0 .319.128c.063-.027.236-.228-.357-1.422z" fill="#76aa9f"/></svg>