<svg data-name="Слой 1" xmlns="http://www.w3.org/2000/svg" viewBox="0 0 54.276 27.882"><defs><linearGradient id="a" x1="18.738" y1="20.87" x2="29.282" y2="31.555" gradientUnits="userSpaceOnUse"><stop offset=".091" stop-color="#870406"/><stop offset=".491" stop-color="#c70000"/><stop offset=".867" stop-color="#870406"/></linearGradient><linearGradient id="b" x1="2.194" y1="34.771" x2="55.47" y2="34.771" gradientUnits="userSpaceOnUse"><stop offset="0" stop-color="#c80406"/><stop offset=".094" stop-color="#c80406"/><stop offset=".226" stop-color="#e00"/><stop offset=".355" stop-color="#fd0002"/><stop offset=".479" stop-color="#f46d5b"/><stop offset=".598" stop-color="#ff3135"/><stop offset=".731" stop-color="#e00"/><stop offset=".936" stop-color="#c80406"/></linearGradient></defs><path d="M21.965 19.765c-2.543 0-4.6 1.4-4.6 3.13s2.061 3.13 4.6 3.13z" transform="translate(-17.361 -19.765)" fill="url(#a)"/><path d="M.639 5.235a9.041 9.041 0 0 0 1.709 1.108 9.141 9.141 0 0 0 3.256.917h41.035l7.636 10.957-7.636 9.666h-41.1c-2.54 0-4.53-1.4-4.535-3.124z"/><path d="M17.361 22.9c0 1.729 2.061 3.13 4.6 3.13H63l7.636 10.957L63 46.647H21.9c-2.54 0-4.53-1.4-4.535-3.124V22.9z" transform="translate(-17.361 -19.765)" fill="url(#b)"/><path d="M12.55 16.909l-.88-1.76h-.08l.256 1.76v5.84h-2.08v-11.28h1.6l4.24 5.968.848 1.712h.08l-.256-1.714v-5.887h2.08v11.28h-1.6zm7.728-5.361h6.64V13.5H22.47v2.608h4.048v1.952H22.47v2.736h4.528v1.952h-6.72zm11.261 6.257l.208 1.984h.064l.224-2.016 1.952-6.224h1.442l1.921 6.256.224 1.984h.065l.24-2.016 1.36-6.224h2.224l-3.088 11.28h-1.473l-2-6.224-.272-1.712h-.08l-.271 1.728-1.984 6.208h-1.556l-3.072-11.28h2.384z"/><path d="M11.55 15.909l-.88-1.76h-.08l.256 1.76v5.84h-2.08v-11.28h1.6l4.24 5.968.848 1.712h.08l-.256-1.714v-5.887h2.08v11.28h-1.6zm7.728-5.361h6.64V12.5H21.47v2.608h4.048v1.952H21.47v2.736h4.528v1.952h-6.72zm11.261 6.257l.208 1.984h.064l.224-2.016 1.952-6.224h1.442l1.921 6.256.224 1.984h.065l.24-2.016 1.36-6.224h2.224l-3.088 11.28h-1.473l-2-6.224-.272-1.712h-.08l-.272 1.728-1.984 6.208h-1.555l-3.072-11.28h2.384z" fill="#fff"/></svg>