<svg data-name="Слой 1" xmlns="http://www.w3.org/2000/svg" viewBox="0 0 75.013 25.621"><path d="M59.651 2.521l6.241-1.117v23.963h-6.241zm9.116 0v22.846h6.246V1.401zM50.761 25.367h6.244V7.837h-6.244zM9.493 10.319c-.79-.052-2.617-.17-2.617-1.815 0-1.985 2.629-1.985 3.617-1.985a21.728 21.728 0 0 1 5.588.993s.893.315 1.655.638l.071.02V2.733l-.1-.029a22.325 22.325 0 0 0-8.18-1.3c-7.039 0-9.532 4.1-9.532 7.613 0 2.025.867 6.793 8.927 7.341.685.042 2.5.147 2.5 1.847 0 1.4-1.485 2.231-3.982 2.231a19.572 19.572 0 0 1-7-1.36v5.6a32.606 32.606 0 0 0 8.326.949c6.881 0 9.964-3.879 9.964-7.725-.001-4.364-3.45-7.196-9.236-7.584zm37.746-2.736c-5.77.186-8.7 2.776-8.7 7.924v9.86h6.3v-8.046c0-3.081.4-4.4 4.061-4.528V7.671a8.739 8.739 0 0 0-1.66-.091zm-16.94.237a21.665 21.665 0 0 1-3.556 6.1V1.401l-6.444 1.274v22.689h6.444V18.35a24.406 24.406 0 0 1 2.788 7.014h7.717c-.763-3.174-4.1-9.025-4.1-9.025a28.292 28.292 0 0 0 4.523-8.522zm23.582-1.661a3.078 3.078 0 1 0-3.077-3.077 3.076 3.076 0 0 0 3.077 3.074z" fill="#76aa9f"/></svg>