<svg data-name="Слой 1" xmlns="http://www.w3.org/2000/svg" viewBox="0 0 96.55 24.139"><g fill="#76aa9f"><path d="M84.389 0a11.984 11.984 0 0 1 5.289 1.225q.377.179.753.4l-1.111.995L87.651.894l-2.818 2.508-1.674-1.826-5.249 4.731 3.365 3.708-1.322 1.163 3.314 3.714-1.315 1.158 4.736 5.272 2.815-2.586 2.431 2.774a12.886 12.886 0 0 1-1.59 1.056A12.068 12.068 0 1 1 84.393.001z"/><path d="M82.189 11.308l2.87-2.585 2.585 2.871-2.87 2.584-2.585-2.87zm2.041 4.96l2.871-2.584 2.585 2.87-2.871 2.585-2.585-2.871zm-4.095-9.862l2.871-2.584 2.584 2.87-2.871 2.585-2.584-2.871zm5.267-1.391l2.153-1.938 1.938 2.153-2.152 1.939-1.939-2.154zm3.825 8.878l2.154-1.938 1.938 2.153-2.153 1.938-1.939-2.153zm1.894 4.349l2.152-1.939 1.939 2.152-2.153 1.939-1.938-2.152zm.867-9.966l1.435-1.292 1.292 1.435-1.434 1.292-1.293-1.435zm-1.833-4.264L91.59 2.72l1.292 1.435-1.435 1.292-1.292-1.435zm3.668 8.528l1.435-1.292 1.292 1.435-1.435 1.292-1.292-1.435zm-6.436-3.195l2.152-1.939 1.939 2.152-2.152 1.939-1.939-2.152z"/></g><path d="M5.636 9.99h-.1l-1.818 6.873H2.231L.003 7.098h1.539l1.542 7.286h.1l1.79-7.286h1.229l1.91 7.286h.1l1.4-7.286h1.612l-2.231 9.765H7.513zm11.695 5.36v1.047a4.853 4.853 0 0 1-2.438.634c-2.313 0-3.264-1.432-3.264-3.609 0-2.093 1.061-3.608 3.126-3.608 1.721 0 2.782 1.116 2.782 3.361v.509h-4.49c0 1.652.675 2.383 2.093 2.383a4.206 4.206 0 0 0 2.191-.717zm-4.255-2.589h3.153c-.068-1.446-.771-2.024-1.515-2.024-.84 0-1.487.65-1.639 2.027zm7.146-2.44a4.146 4.146 0 0 1 1.859-.51c1.708 0 2.63 1.185 2.63 3.389 0 2.575-1.239 3.828-3.236 3.828a6.379 6.379 0 0 1-2.686-.676V6.745l1.432-.344zm-.009 5.529a3.192 3.192 0 0 0 1.267.22c1.019 0 1.79-.633 1.79-2.864 0-1.75-.634-2.314-1.556-2.314a2.878 2.878 0 0 0-1.5.454zm10.765-1.053h.069l2.947-7.7h1.709v9.765h-1.49V9.783h-.124l-2.81 7.079h-.876L27.588 9.95h-.124v6.914h-1.239V7.097h1.666zm6.235-1.377c0-2.41 1.322-3.608 3.14-3.608s3.14 1.2 3.14 3.608c0 2.355-1.253 3.609-3.14 3.609s-3.14-1.254-3.14-3.609zm4.834 0c0-1.859-.758-2.644-1.694-2.644-.909 0-1.694.785-1.694 2.644 0 1.887.716 2.644 1.694 2.644s1.7-.757 1.7-2.644zm2.756-2.59a7.045 7.045 0 0 1 3.511-1.019c1.653 0 2.273.647 2.273 2.066v4.986h-1.429v-4.669c0-1.088-.537-1.281-1.239-1.281a3.8 3.8 0 0 0-1.681.5v5.454h-1.435zm12.769 4.52v1.047a4.851 4.851 0 0 1-2.437.634c-2.313 0-3.264-1.432-3.264-3.609 0-2.093 1.061-3.608 3.126-3.608 1.722 0 2.783 1.116 2.783 3.361v.509h-4.49c0 1.652.675 2.383 2.093 2.383a4.2 4.2 0 0 0 2.189-.717zm-4.255-2.589h3.154c-.068-1.446-.771-2.024-1.515-2.024-.843 0-1.487.65-1.643 2.027zm9.82-2.716h1.476l-2.5 6.887c-.689 1.9-1.529 2.892-3.112 2.892v-1.129c.936 0 1.514-.744 1.845-1.763l-2.643-6.882h1.515l1.763 5.068h.082z" fill="#76aa9f"/></svg>