<svg data-name="Слой 1" xmlns="http://www.w3.org/2000/svg" viewBox="0 0 103.083 19.624"><path d="M4.964 10.377l-2.87 6.447H0L3.153 9.93C1.67 9.177.682 7.812.682 5.295c0-3.53 2.235-5.294 4.894-5.294h2.706v16.824H6.47v-6.448zM6.47 1.53h-.965c-1.459 0-2.87.965-2.87 3.765 0 2.706 1.294 3.577 2.87 3.577h.965zm10.545 3.434v11.859h-1.812v-5.318h-2.729v5.318h-1.835V4.964h1.835v5.035h2.729V4.964zm9.435 14.189h-1.647v-2.33H19.72v2.33h-1.646v-3.836h.729c1.082-2.518 1.2-6.188 1.2-9.342V4.963h5.506v10.353h.941zM23.697 6.447H21.65v.212c0 2.494-.117 6.141-1.106 8.659h3.153zm7.812 10.54c-2.447 0-3.953-1.953-3.953-5.6 0-3.812 1.059-6.589 3.577-6.589 1.976 0 3.271 1.482 3.271 5.506v1.012h-4.94c0 2.683.753 4.094 2.212 4.094a4.114 4.114 0 0 0 2.33-.8l.424 1.411a4.668 4.668 0 0 1-2.921.966zM29.485 9.81h3.035c0-2.024-.33-3.506-1.388-3.506-1.129.002-1.528 1.39-1.646 3.508zm8.636 1.106v5.906h-1.835V4.964h1.835v5.482l2.847-5.482h1.859l-2.941 5.577 3.365 6.283h-2zm5.365-.023c0-3.718 1.436-6.094 4.212-6.094a3.734 3.734 0 0 1 2.188.612l-.259 1.742a3.139 3.139 0 0 0-1.953-.824c-1.318 0-2.259 1.482-2.259 4.471 0 2.965.706 4.659 2.188 4.659a3 3 0 0 0 2-.729l.423 1.365a3.591 3.591 0 0 1-2.471.894c-2.539-.002-4.069-2.048-4.069-6.095zm19.022 5.931h-7.2l-.165 2.8h-.918V15.86h.494c.824-.683 1.224-2.565 1.459-4.965.235-2.494.306-6.212.377-10.895h5.882v15.86h1.154v3.764h-.918zM61.264.964h-3.65c-.071 4.259-.189 7.506-.377 9.93-.212 2.517-.588 4.188-1.224 4.965h5.251zm7.2 15.13a3.023 3.023 0 0 0 2.4-1.27l.353.893a3.425 3.425 0 0 1-2.776 1.341c-2.517 0-3.671-2.282-3.671-6.164s1.459-6.165 3.459-6.165c2.047 0 3.364 2.141 2.988 6.354h-5.365c.047 3.247.894 5.011 2.612 5.011zm-2.588-5.883h4.307c.188-3.153-.753-4.564-1.953-4.564-1.248 0-2.26 1.6-2.355 4.564zm12.588.895h-4.047v5.718h-1.106V4.964h1.106v5.247h4.047V4.964h1.106v11.859h-1.106zm3.722-6.142h1.1v4.4h.878a3.364 3.364 0 0 1 3.717 3.694 3.458 3.458 0 0 1-3.788 3.764h-1.905zm1.1 5.271v5.718h.706a2.53 2.53 0 0 0 2.8-2.87c0-2-.988-2.847-2.683-2.847zm7.583-4.348v10.941h-1.082V4.964h5.012v.918zm11.156 2.678a16.115 16.115 0 0 1 .094-1.624h-.071a10.516 10.516 0 0 1-.635 1.529l-3.859 8.353h-.941V4.964h1.035v8.235c0 .635-.048 1.153-.094 1.671h.07a12.922 12.922 0 0 1 .635-1.576l3.859-8.33h.964v11.859h-1.059z" fill="#76aa9f"/></svg>